M48
; DRILL file {KiCad 9.0.6} date 2025-11-28T15:28:25+0100
; FORMAT={-:-/ absolute / inch / decimal}
; #@! TF.CreationDate,2025-11-28T15:28:25+01:00
; #@! TF.GenerationSoftware,Kicad,Pcbnew,9.0.6
; #@! TF.FileFunction,Plated,1,2,PTH
FMAT,2
INCH
; #@! TA.AperFunction,Plated,PTH,ViaDrill
T1C0.0120
; #@! TA.AperFunction,Plated,PTH,ComponentDrill
T2C0.0157
; #@! TA.AperFunction,Plated,PTH,ComponentDrill
T3C0.0394
; #@! TA.AperFunction,Plated,PTH,ComponentDrill
T4C0.0866
%
G90
G05
T1
X-2.6831Y1.3051
X-2.6516Y0.1024
X-2.6417Y0.4626
X-2.5118Y0.4626
X-2.4823Y1.2933
X-2.4764Y0.1063
X-2.437Y0.2185
X-2.3602Y0.6299
X-2.1594Y0.6339
X-2.1181Y0.8268
X-2.0965Y0.0945
X-2.0Y1.126
X-1.9275Y0.1969
X-1.9075Y1.122
X-1.8917Y0.622
X-1.8819Y0.0866
X-1.8366Y0.8051
X-1.8228Y0.9626
X-1.8209Y1.3012
X-1.7106Y1.0276
X-1.6555Y0.1024
X-1.6476Y0.3957
X-1.6142Y1.25
X-1.6063Y0.7402
X-1.6004Y0.1929
X-1.5768Y0.9213
X-1.573Y0.6457
X-1.5531Y1.2087
X-1.5472Y1.0197
X-1.5256Y0.2224
X-1.5197Y0.5827
X-1.4788Y0.998
X-1.4114Y1.1791
X-1.4114Y0.6707
X-1.3796Y1.0574
X-1.3051Y1.1791
X-1.2657Y1.2165
X-1.2264Y0.7047
X-1.1909Y0.8681
X-1.1024Y0.6378
X-1.0925Y0.8839
X-1.0906Y0.4803
X-1.0827Y1.0512
X-1.0787Y0.374
X-1.0571Y0.0657
X-1.002Y0.8661
X-0.9921Y0.9331
X-0.9823Y0.7224
X-0.9547Y0.3917
X-0.9213Y0.998
X-0.897Y0.6699
X-0.8839Y0.5039
X-0.874Y1.0374
X-0.872Y0.8917
X-0.7736Y0.4173
X-0.7618Y1.2697
X-0.7539Y0.8248
X-0.7538Y0.9874
X-0.7472Y0.1422
X-0.7461Y0.2461
X-0.7169Y0.2677
X-0.7146Y0.6004
X-0.689Y1.0748
X-0.687Y1.0039
X-0.685Y0.4862
X-0.6339Y0.0709
X-0.563Y0.1614
X-0.4882Y1.2697
X-0.4882Y0.6594
X-0.4882Y0.3839
X-0.4567Y0.4626
X-0.4193Y0.988
X-0.4173Y0.7028
X-0.4094Y0.1457
X-0.3972Y1.2441
X-0.3543Y0.126
X-0.3209Y1.0315
X-0.2854Y0.0768
X-0.2559Y0.6102
X-0.25Y0.3898
X-0.2461Y0.7185
X-0.2382Y0.4783
X-0.2224Y0.8878
X-0.2165Y1.2815
X-0.1594Y0.0846
X-0.0846Y1.2815
T2
X-2.3519Y1.2402
X-2.3519Y0.1378
X-2.3329Y1.2861
X-2.3329Y1.1942
X-2.3329Y0.1837
X-2.3329Y0.0919
X-2.287Y1.3051
X-2.287Y1.1752
X-2.287Y0.2028
X-2.287Y0.0728
X-2.241Y1.2861
X-2.241Y1.1942
X-2.241Y0.1837
X-2.241Y0.0919
X-2.222Y1.2402
X-2.222Y0.1378
X-1.0133Y1.2402
X-1.0133Y0.1343
X-0.9943Y1.2861
X-0.9943Y1.1942
X-0.9943Y0.1802
X-0.9943Y0.0884
X-0.9484Y1.3051
X-0.9484Y1.1752
X-0.9484Y0.1993
X-0.9484Y0.0693
X-0.9024Y1.2861
X-0.9024Y1.1942
X-0.9024Y0.1802
X-0.9024Y0.0884
X-0.8834Y1.2402
X-0.8834Y0.1343
T3
X-1.3988Y0.3209
X-1.3677Y0.134
X-1.2988Y0.3209
X-1.2677Y0.134
X-1.1988Y0.3209
X-0.6113Y1.138
X-0.6113Y1.038
X-0.6113Y0.938
X-0.6113Y0.838
X-0.6113Y0.738
X-0.5113Y1.138
X-0.5113Y1.038
X-0.5113Y0.938
X-0.5113Y0.838
X-0.5113Y0.738
X-0.1676Y1.138
X-0.1676Y1.038
X-0.1676Y0.938
X-0.1676Y0.838
X-0.1676Y0.738
X-0.1676Y0.638
X-0.1676Y0.538
X-0.1676Y0.438
X-0.1676Y0.338
X-0.1676Y0.238
X-0.0676Y1.138
X-0.0676Y1.038
X-0.0676Y0.938
X-0.0676Y0.838
X-0.0676Y0.738
X-0.0676Y0.638
X-0.0676Y0.538
X-0.0676Y0.438
X-0.0676Y0.338
X-0.0676Y0.238
T4
X-2.287Y1.2402
X-2.287Y0.1378
X-0.9484Y1.2402
X-0.9484Y0.1343
M30
