%TF.GenerationSoftware,KiCad,Pcbnew,9.0.6*%
%TF.CreationDate,2025-11-28T15:28:25+01:00*%
%TF.ProjectId,ESP32C3_Xiao_wireless_DAP,45535033-3243-4335-9f58-69616f5f7769,0.1*%
%TF.SameCoordinates,Original*%
%TF.FileFunction,Legend,Bot*%
%TF.FilePolarity,Positive*%
%FSLAX46Y46*%
G04 Gerber Fmt 4.6, Leading zero omitted, Abs format (unit mm)*
G04 Created by KiCad (PCBNEW 9.0.6) date 2025-11-28 15:28:25*
%MOMM*%
%LPD*%
G01*
G04 APERTURE LIST*
G04 Aperture macros list*
%AMRoundRect*
0 Rectangle with rounded corners*
0 $1 Rounding radius*
0 $2 $3 $4 $5 $6 $7 $8 $9 X,Y pos of 4 corners*
0 Add a 4 corners polygon primitive as box body*
4,1,4,$2,$3,$4,$5,$6,$7,$8,$9,$2,$3,0*
0 Add four circle primitives for the rounded corners*
1,1,$1+$1,$2,$3*
1,1,$1+$1,$4,$5*
1,1,$1+$1,$6,$7*
1,1,$1+$1,$8,$9*
0 Add four rect primitives between the rounded corners*
20,1,$1+$1,$2,$3,$4,$5,0*
20,1,$1+$1,$4,$5,$6,$7,0*
20,1,$1+$1,$6,$7,$8,$9,0*
20,1,$1+$1,$8,$9,$2,$3,0*%
G04 Aperture macros list end*
%ADD10C,0.300000*%
%ADD11RoundRect,0.101600X0.850000X-0.850000X0.850000X0.850000X-0.850000X0.850000X-0.850000X-0.850000X0*%
%ADD12C,1.903200*%
%ADD13RoundRect,0.279883X-0.671717X-0.671717X0.671717X-0.671717X0.671717X0.671717X-0.671717X0.671717X0*%
%ADD14C,0.903200*%
%ADD15C,4.603200*%
%ADD16RoundRect,0.101600X-0.850000X0.850000X-0.850000X-0.850000X0.850000X-0.850000X0.850000X0.850000X0*%
G04 APERTURE END LIST*
D10*
X-7407011Y11836672D02*
X-7407011Y13336672D01*
X-7407011Y13336672D02*
X-7978440Y13336672D01*
X-7978440Y13336672D02*
X-8121297Y13265243D01*
X-8121297Y13265243D02*
X-8192726Y13193815D01*
X-8192726Y13193815D02*
X-8264154Y13050958D01*
X-8264154Y13050958D02*
X-8264154Y12836672D01*
X-8264154Y12836672D02*
X-8192726Y12693815D01*
X-8192726Y12693815D02*
X-8121297Y12622386D01*
X-8121297Y12622386D02*
X-7978440Y12550958D01*
X-7978440Y12550958D02*
X-7407011Y12550958D01*
X-8907011Y11836672D02*
X-8907011Y12836672D01*
X-8907011Y12550958D02*
X-8978440Y12693815D01*
X-8978440Y12693815D02*
X-9049868Y12765243D01*
X-9049868Y12765243D02*
X-9192726Y12836672D01*
X-9192726Y12836672D02*
X-9335583Y12836672D01*
X-10049868Y11836672D02*
X-9907011Y11908100D01*
X-9907011Y11908100D02*
X-9835582Y11979529D01*
X-9835582Y11979529D02*
X-9764154Y12122386D01*
X-9764154Y12122386D02*
X-9764154Y12550958D01*
X-9764154Y12550958D02*
X-9835582Y12693815D01*
X-9835582Y12693815D02*
X-9907011Y12765243D01*
X-9907011Y12765243D02*
X-10049868Y12836672D01*
X-10049868Y12836672D02*
X-10264154Y12836672D01*
X-10264154Y12836672D02*
X-10407011Y12765243D01*
X-10407011Y12765243D02*
X-10478439Y12693815D01*
X-10478439Y12693815D02*
X-10549868Y12550958D01*
X-10549868Y12550958D02*
X-10549868Y12122386D01*
X-10549868Y12122386D02*
X-10478439Y11979529D01*
X-10478439Y11979529D02*
X-10407011Y11908100D01*
X-10407011Y11908100D02*
X-10264154Y11836672D01*
X-10264154Y11836672D02*
X-10049868Y11836672D01*
X-11192725Y12836672D02*
X-11192725Y11550958D01*
X-11192725Y11550958D02*
X-11121297Y11408100D01*
X-11121297Y11408100D02*
X-10978440Y11336672D01*
X-10978440Y11336672D02*
X-10907011Y11336672D01*
X-11192725Y13336672D02*
X-11121297Y13265243D01*
X-11121297Y13265243D02*
X-11192725Y13193815D01*
X-11192725Y13193815D02*
X-11264154Y13265243D01*
X-11264154Y13265243D02*
X-11192725Y13336672D01*
X-11192725Y13336672D02*
X-11192725Y13193815D01*
X-12478440Y11908100D02*
X-12335583Y11836672D01*
X-12335583Y11836672D02*
X-12049868Y11836672D01*
X-12049868Y11836672D02*
X-11907011Y11908100D01*
X-11907011Y11908100D02*
X-11835583Y12050958D01*
X-11835583Y12050958D02*
X-11835583Y12622386D01*
X-11835583Y12622386D02*
X-11907011Y12765243D01*
X-11907011Y12765243D02*
X-12049868Y12836672D01*
X-12049868Y12836672D02*
X-12335583Y12836672D01*
X-12335583Y12836672D02*
X-12478440Y12765243D01*
X-12478440Y12765243D02*
X-12549868Y12622386D01*
X-12549868Y12622386D02*
X-12549868Y12479529D01*
X-12549868Y12479529D02*
X-11835583Y12336672D01*
X-13835582Y11908100D02*
X-13692725Y11836672D01*
X-13692725Y11836672D02*
X-13407011Y11836672D01*
X-13407011Y11836672D02*
X-13264154Y11908100D01*
X-13264154Y11908100D02*
X-13192725Y11979529D01*
X-13192725Y11979529D02*
X-13121297Y12122386D01*
X-13121297Y12122386D02*
X-13121297Y12550958D01*
X-13121297Y12550958D02*
X-13192725Y12693815D01*
X-13192725Y12693815D02*
X-13264154Y12765243D01*
X-13264154Y12765243D02*
X-13407011Y12836672D01*
X-13407011Y12836672D02*
X-13692725Y12836672D01*
X-13692725Y12836672D02*
X-13835582Y12765243D01*
X-14264154Y12836672D02*
X-14835582Y12836672D01*
X-14478439Y13336672D02*
X-14478439Y12050958D01*
X-14478439Y12050958D02*
X-14549868Y11908100D01*
X-14549868Y11908100D02*
X-14692725Y11836672D01*
X-14692725Y11836672D02*
X-14835582Y11836672D01*
X-15335582Y11979529D02*
X-15407011Y11908100D01*
X-15407011Y11908100D02*
X-15335582Y11836672D01*
X-15335582Y11836672D02*
X-15264154Y11908100D01*
X-15264154Y11908100D02*
X-15335582Y11979529D01*
X-15335582Y11979529D02*
X-15335582Y11836672D01*
X-15335582Y12765243D02*
X-15407011Y12693815D01*
X-15407011Y12693815D02*
X-15335582Y12622386D01*
X-15335582Y12622386D02*
X-15264154Y12693815D01*
X-15264154Y12693815D02*
X-15335582Y12765243D01*
X-15335582Y12765243D02*
X-15335582Y12622386D01*
X-17192725Y12622386D02*
X-17692725Y12622386D01*
X-17907011Y11836672D02*
X-17192725Y11836672D01*
X-17192725Y11836672D02*
X-17192725Y13336672D01*
X-17192725Y13336672D02*
X-17907011Y13336672D01*
X-18478440Y11908100D02*
X-18692725Y11836672D01*
X-18692725Y11836672D02*
X-19049868Y11836672D01*
X-19049868Y11836672D02*
X-19192725Y11908100D01*
X-19192725Y11908100D02*
X-19264154Y11979529D01*
X-19264154Y11979529D02*
X-19335583Y12122386D01*
X-19335583Y12122386D02*
X-19335583Y12265243D01*
X-19335583Y12265243D02*
X-19264154Y12408100D01*
X-19264154Y12408100D02*
X-19192725Y12479529D01*
X-19192725Y12479529D02*
X-19049868Y12550958D01*
X-19049868Y12550958D02*
X-18764154Y12622386D01*
X-18764154Y12622386D02*
X-18621297Y12693815D01*
X-18621297Y12693815D02*
X-18549868Y12765243D01*
X-18549868Y12765243D02*
X-18478440Y12908100D01*
X-18478440Y12908100D02*
X-18478440Y13050958D01*
X-18478440Y13050958D02*
X-18549868Y13193815D01*
X-18549868Y13193815D02*
X-18621297Y13265243D01*
X-18621297Y13265243D02*
X-18764154Y13336672D01*
X-18764154Y13336672D02*
X-19121297Y13336672D01*
X-19121297Y13336672D02*
X-19335583Y13265243D01*
X-19978439Y11836672D02*
X-19978439Y13336672D01*
X-19978439Y13336672D02*
X-20549868Y13336672D01*
X-20549868Y13336672D02*
X-20692725Y13265243D01*
X-20692725Y13265243D02*
X-20764154Y13193815D01*
X-20764154Y13193815D02*
X-20835582Y13050958D01*
X-20835582Y13050958D02*
X-20835582Y12836672D01*
X-20835582Y12836672D02*
X-20764154Y12693815D01*
X-20764154Y12693815D02*
X-20692725Y12622386D01*
X-20692725Y12622386D02*
X-20549868Y12550958D01*
X-20549868Y12550958D02*
X-19978439Y12550958D01*
X-21335582Y13336672D02*
X-22264154Y13336672D01*
X-22264154Y13336672D02*
X-21764154Y12765243D01*
X-21764154Y12765243D02*
X-21978439Y12765243D01*
X-21978439Y12765243D02*
X-22121296Y12693815D01*
X-22121296Y12693815D02*
X-22192725Y12622386D01*
X-22192725Y12622386D02*
X-22264154Y12479529D01*
X-22264154Y12479529D02*
X-22264154Y12122386D01*
X-22264154Y12122386D02*
X-22192725Y11979529D01*
X-22192725Y11979529D02*
X-22121296Y11908100D01*
X-22121296Y11908100D02*
X-21978439Y11836672D01*
X-21978439Y11836672D02*
X-21549868Y11836672D01*
X-21549868Y11836672D02*
X-21407011Y11908100D01*
X-21407011Y11908100D02*
X-21335582Y11979529D01*
X-22835582Y13193815D02*
X-22907010Y13265243D01*
X-22907010Y13265243D02*
X-23049867Y13336672D01*
X-23049867Y13336672D02*
X-23407010Y13336672D01*
X-23407010Y13336672D02*
X-23549867Y13265243D01*
X-23549867Y13265243D02*
X-23621296Y13193815D01*
X-23621296Y13193815D02*
X-23692725Y13050958D01*
X-23692725Y13050958D02*
X-23692725Y12908100D01*
X-23692725Y12908100D02*
X-23621296Y12693815D01*
X-23621296Y12693815D02*
X-22764153Y11836672D01*
X-22764153Y11836672D02*
X-23692725Y11836672D01*
X-25192724Y11979529D02*
X-25121296Y11908100D01*
X-25121296Y11908100D02*
X-24907010Y11836672D01*
X-24907010Y11836672D02*
X-24764153Y11836672D01*
X-24764153Y11836672D02*
X-24549867Y11908100D01*
X-24549867Y11908100D02*
X-24407010Y12050958D01*
X-24407010Y12050958D02*
X-24335581Y12193815D01*
X-24335581Y12193815D02*
X-24264153Y12479529D01*
X-24264153Y12479529D02*
X-24264153Y12693815D01*
X-24264153Y12693815D02*
X-24335581Y12979529D01*
X-24335581Y12979529D02*
X-24407010Y13122386D01*
X-24407010Y13122386D02*
X-24549867Y13265243D01*
X-24549867Y13265243D02*
X-24764153Y13336672D01*
X-24764153Y13336672D02*
X-24907010Y13336672D01*
X-24907010Y13336672D02*
X-25121296Y13265243D01*
X-25121296Y13265243D02*
X-25192724Y13193815D01*
X-25692724Y13336672D02*
X-26621296Y13336672D01*
X-26621296Y13336672D02*
X-26121296Y12765243D01*
X-26121296Y12765243D02*
X-26335581Y12765243D01*
X-26335581Y12765243D02*
X-26478438Y12693815D01*
X-26478438Y12693815D02*
X-26549867Y12622386D01*
X-26549867Y12622386D02*
X-26621296Y12479529D01*
X-26621296Y12479529D02*
X-26621296Y12122386D01*
X-26621296Y12122386D02*
X-26549867Y11979529D01*
X-26549867Y11979529D02*
X-26478438Y11908100D01*
X-26478438Y11908100D02*
X-26335581Y11836672D01*
X-26335581Y11836672D02*
X-25907010Y11836672D01*
X-25907010Y11836672D02*
X-25764153Y11908100D01*
X-25764153Y11908100D02*
X-25692724Y11979529D01*
X-26907009Y11693815D02*
X-28049867Y11693815D01*
X-28264152Y13336672D02*
X-29264152Y11836672D01*
X-29264152Y13336672D02*
X-28264152Y11836672D01*
X-29835580Y11836672D02*
X-29835580Y12836672D01*
X-29835580Y13336672D02*
X-29764152Y13265243D01*
X-29764152Y13265243D02*
X-29835580Y13193815D01*
X-29835580Y13193815D02*
X-29907009Y13265243D01*
X-29907009Y13265243D02*
X-29835580Y13336672D01*
X-29835580Y13336672D02*
X-29835580Y13193815D01*
X-31192723Y11836672D02*
X-31192723Y12622386D01*
X-31192723Y12622386D02*
X-31121295Y12765243D01*
X-31121295Y12765243D02*
X-30978438Y12836672D01*
X-30978438Y12836672D02*
X-30692723Y12836672D01*
X-30692723Y12836672D02*
X-30549866Y12765243D01*
X-31192723Y11908100D02*
X-31049866Y11836672D01*
X-31049866Y11836672D02*
X-30692723Y11836672D01*
X-30692723Y11836672D02*
X-30549866Y11908100D01*
X-30549866Y11908100D02*
X-30478438Y12050958D01*
X-30478438Y12050958D02*
X-30478438Y12193815D01*
X-30478438Y12193815D02*
X-30549866Y12336672D01*
X-30549866Y12336672D02*
X-30692723Y12408100D01*
X-30692723Y12408100D02*
X-31049866Y12408100D01*
X-31049866Y12408100D02*
X-31192723Y12479529D01*
X-32121295Y11836672D02*
X-31978438Y11908100D01*
X-31978438Y11908100D02*
X-31907009Y11979529D01*
X-31907009Y11979529D02*
X-31835581Y12122386D01*
X-31835581Y12122386D02*
X-31835581Y12550958D01*
X-31835581Y12550958D02*
X-31907009Y12693815D01*
X-31907009Y12693815D02*
X-31978438Y12765243D01*
X-31978438Y12765243D02*
X-32121295Y12836672D01*
X-32121295Y12836672D02*
X-32335581Y12836672D01*
X-32335581Y12836672D02*
X-32478438Y12765243D01*
X-32478438Y12765243D02*
X-32549866Y12693815D01*
X-32549866Y12693815D02*
X-32621295Y12550958D01*
X-32621295Y12550958D02*
X-32621295Y12122386D01*
X-32621295Y12122386D02*
X-32549866Y11979529D01*
X-32549866Y11979529D02*
X-32478438Y11908100D01*
X-32478438Y11908100D02*
X-32335581Y11836672D01*
X-32335581Y11836672D02*
X-32121295Y11836672D01*
X-32907009Y11693815D02*
X-34049867Y11693815D01*
X-34264152Y12836672D02*
X-34549866Y11836672D01*
X-34549866Y11836672D02*
X-34835581Y12550958D01*
X-34835581Y12550958D02*
X-35121295Y11836672D01*
X-35121295Y11836672D02*
X-35407009Y12836672D01*
X-35978438Y11836672D02*
X-35978438Y12836672D01*
X-35978438Y13336672D02*
X-35907010Y13265243D01*
X-35907010Y13265243D02*
X-35978438Y13193815D01*
X-35978438Y13193815D02*
X-36049867Y13265243D01*
X-36049867Y13265243D02*
X-35978438Y13336672D01*
X-35978438Y13336672D02*
X-35978438Y13193815D01*
X-36692724Y11836672D02*
X-36692724Y12836672D01*
X-36692724Y12550958D02*
X-36764153Y12693815D01*
X-36764153Y12693815D02*
X-36835581Y12765243D01*
X-36835581Y12765243D02*
X-36978439Y12836672D01*
X-36978439Y12836672D02*
X-37121296Y12836672D01*
X-38192724Y11908100D02*
X-38049867Y11836672D01*
X-38049867Y11836672D02*
X-37764152Y11836672D01*
X-37764152Y11836672D02*
X-37621295Y11908100D01*
X-37621295Y11908100D02*
X-37549867Y12050958D01*
X-37549867Y12050958D02*
X-37549867Y12622386D01*
X-37549867Y12622386D02*
X-37621295Y12765243D01*
X-37621295Y12765243D02*
X-37764152Y12836672D01*
X-37764152Y12836672D02*
X-38049867Y12836672D01*
X-38049867Y12836672D02*
X-38192724Y12765243D01*
X-38192724Y12765243D02*
X-38264152Y12622386D01*
X-38264152Y12622386D02*
X-38264152Y12479529D01*
X-38264152Y12479529D02*
X-37549867Y12336672D01*
X-39121295Y11836672D02*
X-38978438Y11908100D01*
X-38978438Y11908100D02*
X-38907009Y12050958D01*
X-38907009Y12050958D02*
X-38907009Y13336672D01*
X-40264152Y11908100D02*
X-40121295Y11836672D01*
X-40121295Y11836672D02*
X-39835580Y11836672D01*
X-39835580Y11836672D02*
X-39692723Y11908100D01*
X-39692723Y11908100D02*
X-39621295Y12050958D01*
X-39621295Y12050958D02*
X-39621295Y12622386D01*
X-39621295Y12622386D02*
X-39692723Y12765243D01*
X-39692723Y12765243D02*
X-39835580Y12836672D01*
X-39835580Y12836672D02*
X-40121295Y12836672D01*
X-40121295Y12836672D02*
X-40264152Y12765243D01*
X-40264152Y12765243D02*
X-40335580Y12622386D01*
X-40335580Y12622386D02*
X-40335580Y12479529D01*
X-40335580Y12479529D02*
X-39621295Y12336672D01*
X-40907009Y11908100D02*
X-41049866Y11836672D01*
X-41049866Y11836672D02*
X-41335580Y11836672D01*
X-41335580Y11836672D02*
X-41478437Y11908100D01*
X-41478437Y11908100D02*
X-41549866Y12050958D01*
X-41549866Y12050958D02*
X-41549866Y12122386D01*
X-41549866Y12122386D02*
X-41478437Y12265243D01*
X-41478437Y12265243D02*
X-41335580Y12336672D01*
X-41335580Y12336672D02*
X-41121294Y12336672D01*
X-41121294Y12336672D02*
X-40978437Y12408100D01*
X-40978437Y12408100D02*
X-40907009Y12550958D01*
X-40907009Y12550958D02*
X-40907009Y12622386D01*
X-40907009Y12622386D02*
X-40978437Y12765243D01*
X-40978437Y12765243D02*
X-41121294Y12836672D01*
X-41121294Y12836672D02*
X-41335580Y12836672D01*
X-41335580Y12836672D02*
X-41478437Y12765243D01*
X-42121295Y11908100D02*
X-42264152Y11836672D01*
X-42264152Y11836672D02*
X-42549866Y11836672D01*
X-42549866Y11836672D02*
X-42692723Y11908100D01*
X-42692723Y11908100D02*
X-42764152Y12050958D01*
X-42764152Y12050958D02*
X-42764152Y12122386D01*
X-42764152Y12122386D02*
X-42692723Y12265243D01*
X-42692723Y12265243D02*
X-42549866Y12336672D01*
X-42549866Y12336672D02*
X-42335580Y12336672D01*
X-42335580Y12336672D02*
X-42192723Y12408100D01*
X-42192723Y12408100D02*
X-42121295Y12550958D01*
X-42121295Y12550958D02*
X-42121295Y12622386D01*
X-42121295Y12622386D02*
X-42192723Y12765243D01*
X-42192723Y12765243D02*
X-42335580Y12836672D01*
X-42335580Y12836672D02*
X-42549866Y12836672D01*
X-42549866Y12836672D02*
X-42692723Y12765243D01*
X-43049866Y11693815D02*
X-44192724Y11693815D01*
X-44549866Y11836672D02*
X-44549866Y13336672D01*
X-44549866Y13336672D02*
X-44907009Y13336672D01*
X-44907009Y13336672D02*
X-45121295Y13265243D01*
X-45121295Y13265243D02*
X-45264152Y13122386D01*
X-45264152Y13122386D02*
X-45335581Y12979529D01*
X-45335581Y12979529D02*
X-45407009Y12693815D01*
X-45407009Y12693815D02*
X-45407009Y12479529D01*
X-45407009Y12479529D02*
X-45335581Y12193815D01*
X-45335581Y12193815D02*
X-45264152Y12050958D01*
X-45264152Y12050958D02*
X-45121295Y11908100D01*
X-45121295Y11908100D02*
X-44907009Y11836672D01*
X-44907009Y11836672D02*
X-44549866Y11836672D01*
X-45978438Y12265243D02*
X-46692723Y12265243D01*
X-45835581Y11836672D02*
X-46335581Y13336672D01*
X-46335581Y13336672D02*
X-46835581Y11836672D01*
X-47335580Y11836672D02*
X-47335580Y13336672D01*
X-47335580Y13336672D02*
X-47907009Y13336672D01*
X-47907009Y13336672D02*
X-48049866Y13265243D01*
X-48049866Y13265243D02*
X-48121295Y13193815D01*
X-48121295Y13193815D02*
X-48192723Y13050958D01*
X-48192723Y13050958D02*
X-48192723Y12836672D01*
X-48192723Y12836672D02*
X-48121295Y12693815D01*
X-48121295Y12693815D02*
X-48049866Y12622386D01*
X-48049866Y12622386D02*
X-47907009Y12550958D01*
X-47907009Y12550958D02*
X-47335580Y12550958D01*
X-7192726Y10921756D02*
X-7692726Y9421756D01*
X-7692726Y9421756D02*
X-8192726Y10921756D01*
X-9264154Y9493184D02*
X-9121297Y9421756D01*
X-9121297Y9421756D02*
X-8835582Y9421756D01*
X-8835582Y9421756D02*
X-8692725Y9493184D01*
X-8692725Y9493184D02*
X-8621297Y9636042D01*
X-8621297Y9636042D02*
X-8621297Y10207470D01*
X-8621297Y10207470D02*
X-8692725Y10350327D01*
X-8692725Y10350327D02*
X-8835582Y10421756D01*
X-8835582Y10421756D02*
X-9121297Y10421756D01*
X-9121297Y10421756D02*
X-9264154Y10350327D01*
X-9264154Y10350327D02*
X-9335582Y10207470D01*
X-9335582Y10207470D02*
X-9335582Y10064613D01*
X-9335582Y10064613D02*
X-8621297Y9921756D01*
X-9978439Y9421756D02*
X-9978439Y10421756D01*
X-9978439Y10136042D02*
X-10049868Y10278899D01*
X-10049868Y10278899D02*
X-10121296Y10350327D01*
X-10121296Y10350327D02*
X-10264154Y10421756D01*
X-10264154Y10421756D02*
X-10407011Y10421756D01*
X-12049867Y9564613D02*
X-12121296Y9493184D01*
X-12121296Y9493184D02*
X-12049867Y9421756D01*
X-12049867Y9421756D02*
X-11978439Y9493184D01*
X-11978439Y9493184D02*
X-12049867Y9564613D01*
X-12049867Y9564613D02*
X-12049867Y9421756D01*
X-12049867Y10350327D02*
X-12121296Y10278899D01*
X-12121296Y10278899D02*
X-12049867Y10207470D01*
X-12049867Y10207470D02*
X-11978439Y10278899D01*
X-11978439Y10278899D02*
X-12049867Y10350327D01*
X-12049867Y10350327D02*
X-12049867Y10207470D01*
X-14192725Y10921756D02*
X-14335582Y10921756D01*
X-14335582Y10921756D02*
X-14478439Y10850327D01*
X-14478439Y10850327D02*
X-14549867Y10778899D01*
X-14549867Y10778899D02*
X-14621296Y10636042D01*
X-14621296Y10636042D02*
X-14692725Y10350327D01*
X-14692725Y10350327D02*
X-14692725Y9993184D01*
X-14692725Y9993184D02*
X-14621296Y9707470D01*
X-14621296Y9707470D02*
X-14549867Y9564613D01*
X-14549867Y9564613D02*
X-14478439Y9493184D01*
X-14478439Y9493184D02*
X-14335582Y9421756D01*
X-14335582Y9421756D02*
X-14192725Y9421756D01*
X-14192725Y9421756D02*
X-14049867Y9493184D01*
X-14049867Y9493184D02*
X-13978439Y9564613D01*
X-13978439Y9564613D02*
X-13907010Y9707470D01*
X-13907010Y9707470D02*
X-13835582Y9993184D01*
X-13835582Y9993184D02*
X-13835582Y10350327D01*
X-13835582Y10350327D02*
X-13907010Y10636042D01*
X-13907010Y10636042D02*
X-13978439Y10778899D01*
X-13978439Y10778899D02*
X-14049867Y10850327D01*
X-14049867Y10850327D02*
X-14192725Y10921756D01*
X-15335581Y9564613D02*
X-15407010Y9493184D01*
X-15407010Y9493184D02*
X-15335581Y9421756D01*
X-15335581Y9421756D02*
X-15264153Y9493184D01*
X-15264153Y9493184D02*
X-15335581Y9564613D01*
X-15335581Y9564613D02*
X-15335581Y9421756D01*
X-16835582Y9421756D02*
X-15978439Y9421756D01*
X-16407010Y9421756D02*
X-16407010Y10921756D01*
X-16407010Y10921756D02*
X-16264153Y10707470D01*
X-16264153Y10707470D02*
X-16121296Y10564613D01*
X-16121296Y10564613D02*
X-15978439Y10493184D01*
X-7407011Y7006840D02*
X-7407011Y8506840D01*
X-7407011Y8506840D02*
X-7764154Y8506840D01*
X-7764154Y8506840D02*
X-7978440Y8435411D01*
X-7978440Y8435411D02*
X-8121297Y8292554D01*
X-8121297Y8292554D02*
X-8192726Y8149697D01*
X-8192726Y8149697D02*
X-8264154Y7863983D01*
X-8264154Y7863983D02*
X-8264154Y7649697D01*
X-8264154Y7649697D02*
X-8192726Y7363983D01*
X-8192726Y7363983D02*
X-8121297Y7221126D01*
X-8121297Y7221126D02*
X-7978440Y7078268D01*
X-7978440Y7078268D02*
X-7764154Y7006840D01*
X-7764154Y7006840D02*
X-7407011Y7006840D01*
X-9549868Y7006840D02*
X-9549868Y7792554D01*
X-9549868Y7792554D02*
X-9478440Y7935411D01*
X-9478440Y7935411D02*
X-9335583Y8006840D01*
X-9335583Y8006840D02*
X-9049868Y8006840D01*
X-9049868Y8006840D02*
X-8907011Y7935411D01*
X-9549868Y7078268D02*
X-9407011Y7006840D01*
X-9407011Y7006840D02*
X-9049868Y7006840D01*
X-9049868Y7006840D02*
X-8907011Y7078268D01*
X-8907011Y7078268D02*
X-8835583Y7221126D01*
X-8835583Y7221126D02*
X-8835583Y7363983D01*
X-8835583Y7363983D02*
X-8907011Y7506840D01*
X-8907011Y7506840D02*
X-9049868Y7578268D01*
X-9049868Y7578268D02*
X-9407011Y7578268D01*
X-9407011Y7578268D02*
X-9549868Y7649697D01*
X-10049869Y8006840D02*
X-10621297Y8006840D01*
X-10264154Y8506840D02*
X-10264154Y7221126D01*
X-10264154Y7221126D02*
X-10335583Y7078268D01*
X-10335583Y7078268D02*
X-10478440Y7006840D01*
X-10478440Y7006840D02*
X-10621297Y7006840D01*
X-11692726Y7078268D02*
X-11549869Y7006840D01*
X-11549869Y7006840D02*
X-11264154Y7006840D01*
X-11264154Y7006840D02*
X-11121297Y7078268D01*
X-11121297Y7078268D02*
X-11049869Y7221126D01*
X-11049869Y7221126D02*
X-11049869Y7792554D01*
X-11049869Y7792554D02*
X-11121297Y7935411D01*
X-11121297Y7935411D02*
X-11264154Y8006840D01*
X-11264154Y8006840D02*
X-11549869Y8006840D01*
X-11549869Y8006840D02*
X-11692726Y7935411D01*
X-11692726Y7935411D02*
X-11764154Y7792554D01*
X-11764154Y7792554D02*
X-11764154Y7649697D01*
X-11764154Y7649697D02*
X-11049869Y7506840D01*
X-12407011Y7149697D02*
X-12478440Y7078268D01*
X-12478440Y7078268D02*
X-12407011Y7006840D01*
X-12407011Y7006840D02*
X-12335583Y7078268D01*
X-12335583Y7078268D02*
X-12407011Y7149697D01*
X-12407011Y7149697D02*
X-12407011Y7006840D01*
X-12407011Y7935411D02*
X-12478440Y7863983D01*
X-12478440Y7863983D02*
X-12407011Y7792554D01*
X-12407011Y7792554D02*
X-12335583Y7863983D01*
X-12335583Y7863983D02*
X-12407011Y7935411D01*
X-12407011Y7935411D02*
X-12407011Y7792554D01*
X-14192726Y8363983D02*
X-14264154Y8435411D01*
X-14264154Y8435411D02*
X-14407011Y8506840D01*
X-14407011Y8506840D02*
X-14764154Y8506840D01*
X-14764154Y8506840D02*
X-14907011Y8435411D01*
X-14907011Y8435411D02*
X-14978440Y8363983D01*
X-14978440Y8363983D02*
X-15049869Y8221126D01*
X-15049869Y8221126D02*
X-15049869Y8078268D01*
X-15049869Y8078268D02*
X-14978440Y7863983D01*
X-14978440Y7863983D02*
X-14121297Y7006840D01*
X-14121297Y7006840D02*
X-15049869Y7006840D01*
X-15978440Y8506840D02*
X-16121297Y8506840D01*
X-16121297Y8506840D02*
X-16264154Y8435411D01*
X-16264154Y8435411D02*
X-16335582Y8363983D01*
X-16335582Y8363983D02*
X-16407011Y8221126D01*
X-16407011Y8221126D02*
X-16478440Y7935411D01*
X-16478440Y7935411D02*
X-16478440Y7578268D01*
X-16478440Y7578268D02*
X-16407011Y7292554D01*
X-16407011Y7292554D02*
X-16335582Y7149697D01*
X-16335582Y7149697D02*
X-16264154Y7078268D01*
X-16264154Y7078268D02*
X-16121297Y7006840D01*
X-16121297Y7006840D02*
X-15978440Y7006840D01*
X-15978440Y7006840D02*
X-15835582Y7078268D01*
X-15835582Y7078268D02*
X-15764154Y7149697D01*
X-15764154Y7149697D02*
X-15692725Y7292554D01*
X-15692725Y7292554D02*
X-15621297Y7578268D01*
X-15621297Y7578268D02*
X-15621297Y7935411D01*
X-15621297Y7935411D02*
X-15692725Y8221126D01*
X-15692725Y8221126D02*
X-15764154Y8363983D01*
X-15764154Y8363983D02*
X-15835582Y8435411D01*
X-15835582Y8435411D02*
X-15978440Y8506840D01*
X-17049868Y8363983D02*
X-17121296Y8435411D01*
X-17121296Y8435411D02*
X-17264153Y8506840D01*
X-17264153Y8506840D02*
X-17621296Y8506840D01*
X-17621296Y8506840D02*
X-17764153Y8435411D01*
X-17764153Y8435411D02*
X-17835582Y8363983D01*
X-17835582Y8363983D02*
X-17907011Y8221126D01*
X-17907011Y8221126D02*
X-17907011Y8078268D01*
X-17907011Y8078268D02*
X-17835582Y7863983D01*
X-17835582Y7863983D02*
X-16978439Y7006840D01*
X-16978439Y7006840D02*
X-17907011Y7006840D01*
X-19264153Y8506840D02*
X-18549867Y8506840D01*
X-18549867Y8506840D02*
X-18478439Y7792554D01*
X-18478439Y7792554D02*
X-18549867Y7863983D01*
X-18549867Y7863983D02*
X-18692724Y7935411D01*
X-18692724Y7935411D02*
X-19049867Y7935411D01*
X-19049867Y7935411D02*
X-19192724Y7863983D01*
X-19192724Y7863983D02*
X-19264153Y7792554D01*
X-19264153Y7792554D02*
X-19335582Y7649697D01*
X-19335582Y7649697D02*
X-19335582Y7292554D01*
X-19335582Y7292554D02*
X-19264153Y7149697D01*
X-19264153Y7149697D02*
X-19192724Y7078268D01*
X-19192724Y7078268D02*
X-19049867Y7006840D01*
X-19049867Y7006840D02*
X-18692724Y7006840D01*
X-18692724Y7006840D02*
X-18549867Y7078268D01*
X-18549867Y7078268D02*
X-18478439Y7149697D01*
X-19978438Y7578268D02*
X-21121295Y7578268D01*
X-22621296Y7006840D02*
X-21764153Y7006840D01*
X-22192724Y7006840D02*
X-22192724Y8506840D01*
X-22192724Y8506840D02*
X-22049867Y8292554D01*
X-22049867Y8292554D02*
X-21907010Y8149697D01*
X-21907010Y8149697D02*
X-21764153Y8078268D01*
X-24049867Y7006840D02*
X-23192724Y7006840D01*
X-23621295Y7006840D02*
X-23621295Y8506840D01*
X-23621295Y8506840D02*
X-23478438Y8292554D01*
X-23478438Y8292554D02*
X-23335581Y8149697D01*
X-23335581Y8149697D02*
X-23192724Y8078268D01*
X-24692723Y7578268D02*
X-25835580Y7578268D01*
X-26478438Y8363983D02*
X-26549866Y8435411D01*
X-26549866Y8435411D02*
X-26692723Y8506840D01*
X-26692723Y8506840D02*
X-27049866Y8506840D01*
X-27049866Y8506840D02*
X-27192723Y8435411D01*
X-27192723Y8435411D02*
X-27264152Y8363983D01*
X-27264152Y8363983D02*
X-27335581Y8221126D01*
X-27335581Y8221126D02*
X-27335581Y8078268D01*
X-27335581Y8078268D02*
X-27264152Y7863983D01*
X-27264152Y7863983D02*
X-26407009Y7006840D01*
X-26407009Y7006840D02*
X-27335581Y7006840D01*
X-28192723Y7863983D02*
X-28049866Y7935411D01*
X-28049866Y7935411D02*
X-27978437Y8006840D01*
X-27978437Y8006840D02*
X-27907009Y8149697D01*
X-27907009Y8149697D02*
X-27907009Y8221126D01*
X-27907009Y8221126D02*
X-27978437Y8363983D01*
X-27978437Y8363983D02*
X-28049866Y8435411D01*
X-28049866Y8435411D02*
X-28192723Y8506840D01*
X-28192723Y8506840D02*
X-28478437Y8506840D01*
X-28478437Y8506840D02*
X-28621294Y8435411D01*
X-28621294Y8435411D02*
X-28692723Y8363983D01*
X-28692723Y8363983D02*
X-28764152Y8221126D01*
X-28764152Y8221126D02*
X-28764152Y8149697D01*
X-28764152Y8149697D02*
X-28692723Y8006840D01*
X-28692723Y8006840D02*
X-28621294Y7935411D01*
X-28621294Y7935411D02*
X-28478437Y7863983D01*
X-28478437Y7863983D02*
X-28192723Y7863983D01*
X-28192723Y7863983D02*
X-28049866Y7792554D01*
X-28049866Y7792554D02*
X-27978437Y7721126D01*
X-27978437Y7721126D02*
X-27907009Y7578268D01*
X-27907009Y7578268D02*
X-27907009Y7292554D01*
X-27907009Y7292554D02*
X-27978437Y7149697D01*
X-27978437Y7149697D02*
X-28049866Y7078268D01*
X-28049866Y7078268D02*
X-28192723Y7006840D01*
X-28192723Y7006840D02*
X-28478437Y7006840D01*
X-28478437Y7006840D02*
X-28621294Y7078268D01*
X-28621294Y7078268D02*
X-28692723Y7149697D01*
X-28692723Y7149697D02*
X-28764152Y7292554D01*
X-28764152Y7292554D02*
X-28764152Y7578268D01*
X-28764152Y7578268D02*
X-28692723Y7721126D01*
X-28692723Y7721126D02*
X-28621294Y7792554D01*
X-28621294Y7792554D02*
X-28478437Y7863983D01*
%LPC*%
D11*
%TO.C,J6*%
X-35530000Y8150000D03*
D12*
X-32990000Y8150000D03*
X-30450000Y8150000D03*
%TD*%
D13*
%TO.C,J2*%
X-4257700Y28905200D03*
D12*
X-1717700Y28905200D03*
X-4257700Y26365200D03*
X-1717700Y26365200D03*
X-4257700Y23825200D03*
X-1717700Y23825200D03*
X-4257700Y21285200D03*
X-1717700Y21285200D03*
X-4257700Y18745200D03*
X-1717700Y18745200D03*
X-4257700Y16205200D03*
X-1717700Y16205200D03*
X-4257700Y13665200D03*
X-1717700Y13665200D03*
X-4257700Y11125200D03*
X-1717700Y11125200D03*
X-4257700Y8585200D03*
X-1717700Y8585200D03*
X-4257700Y6045200D03*
X-1717700Y6045200D03*
%TD*%
D14*
%TO.C,H2*%
X-59738800Y31500000D03*
X-59255526Y32666726D03*
X-59255526Y30333274D03*
X-58088800Y33150000D03*
D15*
X-58088800Y31500000D03*
D14*
X-58088800Y29850000D03*
X-56922074Y32666726D03*
X-56922074Y30333274D03*
X-56438800Y31500000D03*
%TD*%
D16*
%TO.C,J4*%
X-32200000Y3403600D03*
D12*
X-34740000Y3403600D03*
%TD*%
D13*
%TO.C,J1*%
X-15525800Y28905200D03*
D12*
X-12985800Y28905200D03*
X-15525800Y26365200D03*
X-12985800Y26365200D03*
X-15525800Y23825200D03*
X-12985800Y23825200D03*
X-15525800Y21285200D03*
X-12985800Y21285200D03*
X-15525800Y18745200D03*
X-12985800Y18745200D03*
%TD*%
D14*
%TO.C,H1*%
X-25738800Y31500000D03*
X-25255526Y32666726D03*
X-25255526Y30333274D03*
X-24088800Y33150000D03*
D15*
X-24088800Y31500000D03*
D14*
X-24088800Y29850000D03*
X-22922074Y32666726D03*
X-22922074Y30333274D03*
X-22438800Y31500000D03*
%TD*%
%TO.C,H4*%
X-59738800Y3500000D03*
X-59255526Y4666726D03*
X-59255526Y2333274D03*
X-58088800Y5150000D03*
D15*
X-58088800Y3500000D03*
D14*
X-58088800Y1850000D03*
X-56922074Y4666726D03*
X-56922074Y2333274D03*
X-56438800Y3500000D03*
%TD*%
%TO.C,H3*%
X-25738800Y3411200D03*
X-25255526Y4577926D03*
X-25255526Y2244474D03*
X-24088800Y5061200D03*
D15*
X-24088800Y3411200D03*
D14*
X-24088800Y1761200D03*
X-22922074Y4577926D03*
X-22922074Y2244474D03*
X-22438800Y3411200D03*
%TD*%
%LPD*%
M02*
