%TF.GenerationSoftware,KiCad,Pcbnew,9.0.6*%
%TF.CreationDate,2026-01-04T14:29:39+01:00*%
%TF.ProjectId,ESP32C3_Xiao_wireless_DAP,45535033-3243-4335-9f58-69616f5f7769,0.1*%
%TF.SameCoordinates,Original*%
%TF.FileFunction,Legend,Bot*%
%TF.FilePolarity,Positive*%
%FSLAX46Y46*%
G04 Gerber Fmt 4.6, Leading zero omitted, Abs format (unit mm)*
G04 Created by KiCad (PCBNEW 9.0.6) date 2026-01-04 14:29:39*
%MOMM*%
%LPD*%
G01*
G04 APERTURE LIST*
G04 Aperture macros list*
%AMRoundRect*
0 Rectangle with rounded corners*
0 $1 Rounding radius*
0 $2 $3 $4 $5 $6 $7 $8 $9 X,Y pos of 4 corners*
0 Add a 4 corners polygon primitive as box body*
4,1,4,$2,$3,$4,$5,$6,$7,$8,$9,$2,$3,0*
0 Add four circle primitives for the rounded corners*
1,1,$1+$1,$2,$3*
1,1,$1+$1,$4,$5*
1,1,$1+$1,$6,$7*
1,1,$1+$1,$8,$9*
0 Add four rect primitives between the rounded corners*
20,1,$1+$1,$2,$3,$4,$5,0*
20,1,$1+$1,$4,$5,$6,$7,0*
20,1,$1+$1,$6,$7,$8,$9,0*
20,1,$1+$1,$8,$9,$2,$3,0*%
G04 Aperture macros list end*
%ADD10C,0.120000*%
%ADD11C,0.200000*%
%ADD12C,0.300000*%
%ADD13C,0.000000*%
%ADD14RoundRect,0.101600X0.850000X-0.850000X0.850000X0.850000X-0.850000X0.850000X-0.850000X-0.850000X0*%
%ADD15C,1.903200*%
%ADD16RoundRect,0.279883X-0.671717X-0.671717X0.671717X-0.671717X0.671717X0.671717X-0.671717X0.671717X0*%
%ADD17C,0.903200*%
%ADD18C,4.603200*%
%ADD19RoundRect,0.101600X-0.850000X0.850000X-0.850000X-0.850000X0.850000X-0.850000X0.850000X0.850000X0*%
G04 APERTURE END LIST*
D10*
X-27033336Y22732407D02*
X-27033336Y23432407D01*
X-27033336Y23432407D02*
X-27300003Y23432407D01*
X-27300003Y23432407D02*
X-27366669Y23399074D01*
X-27366669Y23399074D02*
X-27400003Y23365740D01*
X-27400003Y23365740D02*
X-27433336Y23299074D01*
X-27433336Y23299074D02*
X-27433336Y23199074D01*
X-27433336Y23199074D02*
X-27400003Y23132407D01*
X-27400003Y23132407D02*
X-27366669Y23099074D01*
X-27366669Y23099074D02*
X-27300003Y23065740D01*
X-27300003Y23065740D02*
X-27033336Y23065740D01*
X-27733336Y22732407D02*
X-27733336Y23199074D01*
X-27733336Y23432407D02*
X-27700003Y23399074D01*
X-27700003Y23399074D02*
X-27733336Y23365740D01*
X-27733336Y23365740D02*
X-27766669Y23399074D01*
X-27766669Y23399074D02*
X-27733336Y23432407D01*
X-27733336Y23432407D02*
X-27733336Y23365740D01*
X-28066669Y23199074D02*
X-28066669Y22732407D01*
X-28066669Y23132407D02*
X-28100002Y23165740D01*
X-28100002Y23165740D02*
X-28166669Y23199074D01*
X-28166669Y23199074D02*
X-28266669Y23199074D01*
X-28266669Y23199074D02*
X-28333336Y23165740D01*
X-28333336Y23165740D02*
X-28366669Y23099074D01*
X-28366669Y23099074D02*
X-28366669Y22732407D01*
X-29166668Y23432407D02*
X-29633335Y23432407D01*
X-29633335Y23432407D02*
X-29333335Y22732407D01*
X-29900002Y22799074D02*
X-29933335Y22765740D01*
X-29933335Y22765740D02*
X-29900002Y22732407D01*
X-29900002Y22732407D02*
X-29866669Y22765740D01*
X-29866669Y22765740D02*
X-29900002Y22799074D01*
X-29900002Y22799074D02*
X-29900002Y22732407D01*
X-29900002Y23165740D02*
X-29933335Y23132407D01*
X-29933335Y23132407D02*
X-29900002Y23099074D01*
X-29900002Y23099074D02*
X-29866669Y23132407D01*
X-29866669Y23132407D02*
X-29900002Y23165740D01*
X-29900002Y23165740D02*
X-29900002Y23099074D01*
X-30766668Y23432407D02*
X-30766668Y22865740D01*
X-30766668Y22865740D02*
X-30800001Y22799074D01*
X-30800001Y22799074D02*
X-30833335Y22765740D01*
X-30833335Y22765740D02*
X-30900001Y22732407D01*
X-30900001Y22732407D02*
X-31033335Y22732407D01*
X-31033335Y22732407D02*
X-31100001Y22765740D01*
X-31100001Y22765740D02*
X-31133335Y22799074D01*
X-31133335Y22799074D02*
X-31166668Y22865740D01*
X-31166668Y22865740D02*
X-31166668Y23432407D01*
X-31466668Y22932407D02*
X-31800001Y22932407D01*
X-31400001Y22732407D02*
X-31633334Y23432407D01*
X-31633334Y23432407D02*
X-31866668Y22732407D01*
X-32500001Y22732407D02*
X-32266668Y23065740D01*
X-32100001Y22732407D02*
X-32100001Y23432407D01*
X-32100001Y23432407D02*
X-32366668Y23432407D01*
X-32366668Y23432407D02*
X-32433334Y23399074D01*
X-32433334Y23399074D02*
X-32466668Y23365740D01*
X-32466668Y23365740D02*
X-32500001Y23299074D01*
X-32500001Y23299074D02*
X-32500001Y23199074D01*
X-32500001Y23199074D02*
X-32466668Y23132407D01*
X-32466668Y23132407D02*
X-32433334Y23099074D01*
X-32433334Y23099074D02*
X-32366668Y23065740D01*
X-32366668Y23065740D02*
X-32100001Y23065740D01*
X-32700001Y23432407D02*
X-33100001Y23432407D01*
X-32900001Y22732407D02*
X-32900001Y23432407D01*
X-33166667Y22665740D02*
X-33700001Y22665740D01*
X-34266667Y22732407D02*
X-34033334Y23065740D01*
X-33866667Y22732407D02*
X-33866667Y23432407D01*
X-33866667Y23432407D02*
X-34133334Y23432407D01*
X-34133334Y23432407D02*
X-34200000Y23399074D01*
X-34200000Y23399074D02*
X-34233334Y23365740D01*
X-34233334Y23365740D02*
X-34266667Y23299074D01*
X-34266667Y23299074D02*
X-34266667Y23199074D01*
X-34266667Y23199074D02*
X-34233334Y23132407D01*
X-34233334Y23132407D02*
X-34200000Y23099074D01*
X-34200000Y23099074D02*
X-34133334Y23065740D01*
X-34133334Y23065740D02*
X-33866667Y23065740D01*
X-34500000Y23432407D02*
X-34966667Y22732407D01*
X-34966667Y23432407D02*
X-34500000Y22732407D01*
X-36300000Y22732407D02*
X-36300000Y23432407D01*
X-36300000Y23432407D02*
X-36566667Y23432407D01*
X-36566667Y23432407D02*
X-36633333Y23399074D01*
X-36633333Y23399074D02*
X-36666667Y23365740D01*
X-36666667Y23365740D02*
X-36700000Y23299074D01*
X-36700000Y23299074D02*
X-36700000Y23199074D01*
X-36700000Y23199074D02*
X-36666667Y23132407D01*
X-36666667Y23132407D02*
X-36633333Y23099074D01*
X-36633333Y23099074D02*
X-36566667Y23065740D01*
X-36566667Y23065740D02*
X-36300000Y23065740D01*
X-37000000Y22732407D02*
X-37000000Y23199074D01*
X-37000000Y23432407D02*
X-36966667Y23399074D01*
X-36966667Y23399074D02*
X-37000000Y23365740D01*
X-37000000Y23365740D02*
X-37033333Y23399074D01*
X-37033333Y23399074D02*
X-37000000Y23432407D01*
X-37000000Y23432407D02*
X-37000000Y23365740D01*
X-37333333Y23199074D02*
X-37333333Y22732407D01*
X-37333333Y23132407D02*
X-37366666Y23165740D01*
X-37366666Y23165740D02*
X-37433333Y23199074D01*
X-37433333Y23199074D02*
X-37533333Y23199074D01*
X-37533333Y23199074D02*
X-37600000Y23165740D01*
X-37600000Y23165740D02*
X-37633333Y23099074D01*
X-37633333Y23099074D02*
X-37633333Y22732407D01*
X-38599999Y23132407D02*
X-38533332Y23165740D01*
X-38533332Y23165740D02*
X-38499999Y23199074D01*
X-38499999Y23199074D02*
X-38466666Y23265740D01*
X-38466666Y23265740D02*
X-38466666Y23299074D01*
X-38466666Y23299074D02*
X-38499999Y23365740D01*
X-38499999Y23365740D02*
X-38533332Y23399074D01*
X-38533332Y23399074D02*
X-38599999Y23432407D01*
X-38599999Y23432407D02*
X-38733332Y23432407D01*
X-38733332Y23432407D02*
X-38799999Y23399074D01*
X-38799999Y23399074D02*
X-38833332Y23365740D01*
X-38833332Y23365740D02*
X-38866666Y23299074D01*
X-38866666Y23299074D02*
X-38866666Y23265740D01*
X-38866666Y23265740D02*
X-38833332Y23199074D01*
X-38833332Y23199074D02*
X-38799999Y23165740D01*
X-38799999Y23165740D02*
X-38733332Y23132407D01*
X-38733332Y23132407D02*
X-38599999Y23132407D01*
X-38599999Y23132407D02*
X-38533332Y23099074D01*
X-38533332Y23099074D02*
X-38499999Y23065740D01*
X-38499999Y23065740D02*
X-38466666Y22999074D01*
X-38466666Y22999074D02*
X-38466666Y22865740D01*
X-38466666Y22865740D02*
X-38499999Y22799074D01*
X-38499999Y22799074D02*
X-38533332Y22765740D01*
X-38533332Y22765740D02*
X-38599999Y22732407D01*
X-38599999Y22732407D02*
X-38733332Y22732407D01*
X-38733332Y22732407D02*
X-38799999Y22765740D01*
X-38799999Y22765740D02*
X-38833332Y22799074D01*
X-38833332Y22799074D02*
X-38866666Y22865740D01*
X-38866666Y22865740D02*
X-38866666Y22999074D01*
X-38866666Y22999074D02*
X-38833332Y23065740D01*
X-38833332Y23065740D02*
X-38799999Y23099074D01*
X-38799999Y23099074D02*
X-38733332Y23132407D01*
X-39166666Y22799074D02*
X-39199999Y22765740D01*
X-39199999Y22765740D02*
X-39166666Y22732407D01*
X-39166666Y22732407D02*
X-39133333Y22765740D01*
X-39133333Y22765740D02*
X-39166666Y22799074D01*
X-39166666Y22799074D02*
X-39166666Y22732407D01*
X-39166666Y23165740D02*
X-39199999Y23132407D01*
X-39199999Y23132407D02*
X-39166666Y23099074D01*
X-39166666Y23099074D02*
X-39133333Y23132407D01*
X-39133333Y23132407D02*
X-39166666Y23165740D01*
X-39166666Y23165740D02*
X-39166666Y23099074D01*
X-39933332Y23432407D02*
X-40333332Y23432407D01*
X-40133332Y22732407D02*
X-40133332Y23432407D01*
X-40566665Y22732407D02*
X-40566665Y23432407D01*
X-40566665Y23432407D02*
X-40733332Y23432407D01*
X-40733332Y23432407D02*
X-40833332Y23399074D01*
X-40833332Y23399074D02*
X-40899998Y23332407D01*
X-40899998Y23332407D02*
X-40933332Y23265740D01*
X-40933332Y23265740D02*
X-40966665Y23132407D01*
X-40966665Y23132407D02*
X-40966665Y23032407D01*
X-40966665Y23032407D02*
X-40933332Y22899074D01*
X-40933332Y22899074D02*
X-40899998Y22832407D01*
X-40899998Y22832407D02*
X-40833332Y22765740D01*
X-40833332Y22765740D02*
X-40733332Y22732407D01*
X-40733332Y22732407D02*
X-40566665Y22732407D01*
X-41266665Y22732407D02*
X-41266665Y23432407D01*
X-27033337Y25332407D02*
X-27033337Y26032407D01*
X-27033337Y26032407D02*
X-27300004Y26032407D01*
X-27300004Y26032407D02*
X-27366670Y25999074D01*
X-27366670Y25999074D02*
X-27400004Y25965740D01*
X-27400004Y25965740D02*
X-27433337Y25899074D01*
X-27433337Y25899074D02*
X-27433337Y25799074D01*
X-27433337Y25799074D02*
X-27400004Y25732407D01*
X-27400004Y25732407D02*
X-27366670Y25699074D01*
X-27366670Y25699074D02*
X-27300004Y25665740D01*
X-27300004Y25665740D02*
X-27033337Y25665740D01*
X-27733337Y25332407D02*
X-27733337Y25799074D01*
X-27733337Y26032407D02*
X-27700004Y25999074D01*
X-27700004Y25999074D02*
X-27733337Y25965740D01*
X-27733337Y25965740D02*
X-27766670Y25999074D01*
X-27766670Y25999074D02*
X-27733337Y26032407D01*
X-27733337Y26032407D02*
X-27733337Y25965740D01*
X-28066670Y25799074D02*
X-28066670Y25332407D01*
X-28066670Y25732407D02*
X-28100003Y25765740D01*
X-28100003Y25765740D02*
X-28166670Y25799074D01*
X-28166670Y25799074D02*
X-28266670Y25799074D01*
X-28266670Y25799074D02*
X-28333337Y25765740D01*
X-28333337Y25765740D02*
X-28366670Y25699074D01*
X-28366670Y25699074D02*
X-28366670Y25332407D01*
X-29166669Y26032407D02*
X-29600003Y26032407D01*
X-29600003Y26032407D02*
X-29366669Y25765740D01*
X-29366669Y25765740D02*
X-29466669Y25765740D01*
X-29466669Y25765740D02*
X-29533336Y25732407D01*
X-29533336Y25732407D02*
X-29566669Y25699074D01*
X-29566669Y25699074D02*
X-29600003Y25632407D01*
X-29600003Y25632407D02*
X-29600003Y25465740D01*
X-29600003Y25465740D02*
X-29566669Y25399074D01*
X-29566669Y25399074D02*
X-29533336Y25365740D01*
X-29533336Y25365740D02*
X-29466669Y25332407D01*
X-29466669Y25332407D02*
X-29266669Y25332407D01*
X-29266669Y25332407D02*
X-29200003Y25365740D01*
X-29200003Y25365740D02*
X-29166669Y25399074D01*
X-29900003Y25399074D02*
X-29933336Y25365740D01*
X-29933336Y25365740D02*
X-29900003Y25332407D01*
X-29900003Y25332407D02*
X-29866670Y25365740D01*
X-29866670Y25365740D02*
X-29900003Y25399074D01*
X-29900003Y25399074D02*
X-29900003Y25332407D01*
X-29900003Y25765740D02*
X-29933336Y25732407D01*
X-29933336Y25732407D02*
X-29900003Y25699074D01*
X-29900003Y25699074D02*
X-29866670Y25732407D01*
X-29866670Y25732407D02*
X-29900003Y25765740D01*
X-29900003Y25765740D02*
X-29900003Y25699074D01*
X-31133336Y25999074D02*
X-31066669Y26032407D01*
X-31066669Y26032407D02*
X-30966669Y26032407D01*
X-30966669Y26032407D02*
X-30866669Y25999074D01*
X-30866669Y25999074D02*
X-30800002Y25932407D01*
X-30800002Y25932407D02*
X-30766669Y25865740D01*
X-30766669Y25865740D02*
X-30733336Y25732407D01*
X-30733336Y25732407D02*
X-30733336Y25632407D01*
X-30733336Y25632407D02*
X-30766669Y25499074D01*
X-30766669Y25499074D02*
X-30800002Y25432407D01*
X-30800002Y25432407D02*
X-30866669Y25365740D01*
X-30866669Y25365740D02*
X-30966669Y25332407D01*
X-30966669Y25332407D02*
X-31033336Y25332407D01*
X-31033336Y25332407D02*
X-31133336Y25365740D01*
X-31133336Y25365740D02*
X-31166669Y25399074D01*
X-31166669Y25399074D02*
X-31166669Y25632407D01*
X-31166669Y25632407D02*
X-31033336Y25632407D01*
X-31466669Y25332407D02*
X-31466669Y26032407D01*
X-31466669Y26032407D02*
X-31866669Y25332407D01*
X-31866669Y25332407D02*
X-31866669Y26032407D01*
X-32200002Y25332407D02*
X-32200002Y26032407D01*
X-32200002Y26032407D02*
X-32366669Y26032407D01*
X-32366669Y26032407D02*
X-32466669Y25999074D01*
X-32466669Y25999074D02*
X-32533335Y25932407D01*
X-32533335Y25932407D02*
X-32566669Y25865740D01*
X-32566669Y25865740D02*
X-32600002Y25732407D01*
X-32600002Y25732407D02*
X-32600002Y25632407D01*
X-32600002Y25632407D02*
X-32566669Y25499074D01*
X-32566669Y25499074D02*
X-32533335Y25432407D01*
X-32533335Y25432407D02*
X-32466669Y25365740D01*
X-32466669Y25365740D02*
X-32366669Y25332407D01*
X-32366669Y25332407D02*
X-32200002Y25332407D01*
X-36100000Y25332407D02*
X-36100000Y26032407D01*
X-36100000Y26032407D02*
X-36366667Y26032407D01*
X-36366667Y26032407D02*
X-36433333Y25999074D01*
X-36433333Y25999074D02*
X-36466667Y25965740D01*
X-36466667Y25965740D02*
X-36500000Y25899074D01*
X-36500000Y25899074D02*
X-36500000Y25799074D01*
X-36500000Y25799074D02*
X-36466667Y25732407D01*
X-36466667Y25732407D02*
X-36433333Y25699074D01*
X-36433333Y25699074D02*
X-36366667Y25665740D01*
X-36366667Y25665740D02*
X-36100000Y25665740D01*
X-36800000Y25332407D02*
X-36800000Y25799074D01*
X-36800000Y26032407D02*
X-36766667Y25999074D01*
X-36766667Y25999074D02*
X-36800000Y25965740D01*
X-36800000Y25965740D02*
X-36833333Y25999074D01*
X-36833333Y25999074D02*
X-36800000Y26032407D01*
X-36800000Y26032407D02*
X-36800000Y25965740D01*
X-37133333Y25799074D02*
X-37133333Y25332407D01*
X-37133333Y25732407D02*
X-37166666Y25765740D01*
X-37166666Y25765740D02*
X-37233333Y25799074D01*
X-37233333Y25799074D02*
X-37333333Y25799074D01*
X-37333333Y25799074D02*
X-37400000Y25765740D01*
X-37400000Y25765740D02*
X-37433333Y25699074D01*
X-37433333Y25699074D02*
X-37433333Y25332407D01*
X-38599999Y25799074D02*
X-38599999Y25332407D01*
X-38433332Y26065740D02*
X-38266666Y25565740D01*
X-38266666Y25565740D02*
X-38699999Y25565740D01*
X-38966666Y25399074D02*
X-38999999Y25365740D01*
X-38999999Y25365740D02*
X-38966666Y25332407D01*
X-38966666Y25332407D02*
X-38933333Y25365740D01*
X-38933333Y25365740D02*
X-38966666Y25399074D01*
X-38966666Y25399074D02*
X-38966666Y25332407D01*
X-38966666Y25765740D02*
X-38999999Y25732407D01*
X-38999999Y25732407D02*
X-38966666Y25699074D01*
X-38966666Y25699074D02*
X-38933333Y25732407D01*
X-38933333Y25732407D02*
X-38966666Y25765740D01*
X-38966666Y25765740D02*
X-38966666Y25699074D01*
X-39733332Y26032407D02*
X-40133332Y26032407D01*
X-39933332Y25332407D02*
X-39933332Y26032407D01*
X-40766665Y25399074D02*
X-40733332Y25365740D01*
X-40733332Y25365740D02*
X-40633332Y25332407D01*
X-40633332Y25332407D02*
X-40566665Y25332407D01*
X-40566665Y25332407D02*
X-40466665Y25365740D01*
X-40466665Y25365740D02*
X-40399998Y25432407D01*
X-40399998Y25432407D02*
X-40366665Y25499074D01*
X-40366665Y25499074D02*
X-40333332Y25632407D01*
X-40333332Y25632407D02*
X-40333332Y25732407D01*
X-40333332Y25732407D02*
X-40366665Y25865740D01*
X-40366665Y25865740D02*
X-40399998Y25932407D01*
X-40399998Y25932407D02*
X-40466665Y25999074D01*
X-40466665Y25999074D02*
X-40566665Y26032407D01*
X-40566665Y26032407D02*
X-40633332Y26032407D01*
X-40633332Y26032407D02*
X-40733332Y25999074D01*
X-40733332Y25999074D02*
X-40766665Y25965740D01*
X-41066665Y25332407D02*
X-41066665Y26032407D01*
X-41466665Y25332407D02*
X-41166665Y25732407D01*
X-41466665Y26032407D02*
X-41066665Y25632407D01*
X-42266665Y26065740D02*
X-41666665Y25165740D01*
X-42466665Y25365740D02*
X-42566665Y25332407D01*
X-42566665Y25332407D02*
X-42733331Y25332407D01*
X-42733331Y25332407D02*
X-42799998Y25365740D01*
X-42799998Y25365740D02*
X-42833331Y25399074D01*
X-42833331Y25399074D02*
X-42866665Y25465740D01*
X-42866665Y25465740D02*
X-42866665Y25532407D01*
X-42866665Y25532407D02*
X-42833331Y25599074D01*
X-42833331Y25599074D02*
X-42799998Y25632407D01*
X-42799998Y25632407D02*
X-42733331Y25665740D01*
X-42733331Y25665740D02*
X-42599998Y25699074D01*
X-42599998Y25699074D02*
X-42533331Y25732407D01*
X-42533331Y25732407D02*
X-42499998Y25765740D01*
X-42499998Y25765740D02*
X-42466665Y25832407D01*
X-42466665Y25832407D02*
X-42466665Y25899074D01*
X-42466665Y25899074D02*
X-42499998Y25965740D01*
X-42499998Y25965740D02*
X-42533331Y25999074D01*
X-42533331Y25999074D02*
X-42599998Y26032407D01*
X-42599998Y26032407D02*
X-42766665Y26032407D01*
X-42766665Y26032407D02*
X-42866665Y25999074D01*
X-43099998Y26032407D02*
X-43266665Y25332407D01*
X-43266665Y25332407D02*
X-43399998Y25832407D01*
X-43399998Y25832407D02*
X-43533332Y25332407D01*
X-43533332Y25332407D02*
X-43699998Y26032407D01*
X-44366665Y25399074D02*
X-44333332Y25365740D01*
X-44333332Y25365740D02*
X-44233332Y25332407D01*
X-44233332Y25332407D02*
X-44166665Y25332407D01*
X-44166665Y25332407D02*
X-44066665Y25365740D01*
X-44066665Y25365740D02*
X-43999998Y25432407D01*
X-43999998Y25432407D02*
X-43966665Y25499074D01*
X-43966665Y25499074D02*
X-43933332Y25632407D01*
X-43933332Y25632407D02*
X-43933332Y25732407D01*
X-43933332Y25732407D02*
X-43966665Y25865740D01*
X-43966665Y25865740D02*
X-43999998Y25932407D01*
X-43999998Y25932407D02*
X-44066665Y25999074D01*
X-44066665Y25999074D02*
X-44166665Y26032407D01*
X-44166665Y26032407D02*
X-44233332Y26032407D01*
X-44233332Y26032407D02*
X-44333332Y25999074D01*
X-44333332Y25999074D02*
X-44366665Y25965740D01*
X-44999998Y25332407D02*
X-44666665Y25332407D01*
X-44666665Y25332407D02*
X-44666665Y26032407D01*
X-45233332Y25332407D02*
X-45233332Y26032407D01*
X-45633332Y25332407D02*
X-45333332Y25732407D01*
X-45633332Y26032407D02*
X-45233332Y25632407D01*
X-44200001Y17982407D02*
X-44666668Y17982407D01*
X-44666668Y17982407D02*
X-44366668Y17282407D01*
X-44933335Y17349074D02*
X-44966668Y17315740D01*
X-44966668Y17315740D02*
X-44933335Y17282407D01*
X-44933335Y17282407D02*
X-44900002Y17315740D01*
X-44900002Y17315740D02*
X-44933335Y17349074D01*
X-44933335Y17349074D02*
X-44933335Y17282407D01*
X-44933335Y17715740D02*
X-44966668Y17682407D01*
X-44966668Y17682407D02*
X-44933335Y17649074D01*
X-44933335Y17649074D02*
X-44900002Y17682407D01*
X-44900002Y17682407D02*
X-44933335Y17715740D01*
X-44933335Y17715740D02*
X-44933335Y17649074D01*
X-45166668Y17982407D02*
X-45566668Y17982407D01*
X-45366668Y17282407D02*
X-45366668Y17982407D01*
X-45800001Y17282407D02*
X-45800001Y17982407D01*
X-45800001Y17982407D02*
X-46033334Y17482407D01*
X-46033334Y17482407D02*
X-46266668Y17982407D01*
X-46266668Y17982407D02*
X-46266668Y17282407D01*
X-46566668Y17315740D02*
X-46666668Y17282407D01*
X-46666668Y17282407D02*
X-46833334Y17282407D01*
X-46833334Y17282407D02*
X-46900001Y17315740D01*
X-46900001Y17315740D02*
X-46933334Y17349074D01*
X-46933334Y17349074D02*
X-46966668Y17415740D01*
X-46966668Y17415740D02*
X-46966668Y17482407D01*
X-46966668Y17482407D02*
X-46933334Y17549074D01*
X-46933334Y17549074D02*
X-46900001Y17582407D01*
X-46900001Y17582407D02*
X-46833334Y17615740D01*
X-46833334Y17615740D02*
X-46700001Y17649074D01*
X-46700001Y17649074D02*
X-46633334Y17682407D01*
X-46633334Y17682407D02*
X-46600001Y17715740D01*
X-46600001Y17715740D02*
X-46566668Y17782407D01*
X-46566668Y17782407D02*
X-46566668Y17849074D01*
X-46566668Y17849074D02*
X-46600001Y17915740D01*
X-46600001Y17915740D02*
X-46633334Y17949074D01*
X-46633334Y17949074D02*
X-46700001Y17982407D01*
X-46700001Y17982407D02*
X-46866668Y17982407D01*
X-46866668Y17982407D02*
X-46966668Y17949074D01*
X-47900001Y17682407D02*
X-47833334Y17715740D01*
X-47833334Y17715740D02*
X-47800001Y17749074D01*
X-47800001Y17749074D02*
X-47766668Y17815740D01*
X-47766668Y17815740D02*
X-47766668Y17849074D01*
X-47766668Y17849074D02*
X-47800001Y17915740D01*
X-47800001Y17915740D02*
X-47833334Y17949074D01*
X-47833334Y17949074D02*
X-47900001Y17982407D01*
X-47900001Y17982407D02*
X-48033334Y17982407D01*
X-48033334Y17982407D02*
X-48100001Y17949074D01*
X-48100001Y17949074D02*
X-48133334Y17915740D01*
X-48133334Y17915740D02*
X-48166668Y17849074D01*
X-48166668Y17849074D02*
X-48166668Y17815740D01*
X-48166668Y17815740D02*
X-48133334Y17749074D01*
X-48133334Y17749074D02*
X-48100001Y17715740D01*
X-48100001Y17715740D02*
X-48033334Y17682407D01*
X-48033334Y17682407D02*
X-47900001Y17682407D01*
X-47900001Y17682407D02*
X-47833334Y17649074D01*
X-47833334Y17649074D02*
X-47800001Y17615740D01*
X-47800001Y17615740D02*
X-47766668Y17549074D01*
X-47766668Y17549074D02*
X-47766668Y17415740D01*
X-47766668Y17415740D02*
X-47800001Y17349074D01*
X-47800001Y17349074D02*
X-47833334Y17315740D01*
X-47833334Y17315740D02*
X-47900001Y17282407D01*
X-47900001Y17282407D02*
X-48033334Y17282407D01*
X-48033334Y17282407D02*
X-48100001Y17315740D01*
X-48100001Y17315740D02*
X-48133334Y17349074D01*
X-48133334Y17349074D02*
X-48166668Y17415740D01*
X-48166668Y17415740D02*
X-48166668Y17549074D01*
X-48166668Y17549074D02*
X-48133334Y17615740D01*
X-48133334Y17615740D02*
X-48100001Y17649074D01*
X-48100001Y17649074D02*
X-48033334Y17682407D01*
X-48466668Y17349074D02*
X-48500001Y17315740D01*
X-48500001Y17315740D02*
X-48466668Y17282407D01*
X-48466668Y17282407D02*
X-48433335Y17315740D01*
X-48433335Y17315740D02*
X-48466668Y17349074D01*
X-48466668Y17349074D02*
X-48466668Y17282407D01*
X-48466668Y17715740D02*
X-48500001Y17682407D01*
X-48500001Y17682407D02*
X-48466668Y17649074D01*
X-48466668Y17649074D02*
X-48433335Y17682407D01*
X-48433335Y17682407D02*
X-48466668Y17715740D01*
X-48466668Y17715740D02*
X-48466668Y17649074D01*
X-49166668Y17949074D02*
X-49100001Y17982407D01*
X-49100001Y17982407D02*
X-49000001Y17982407D01*
X-49000001Y17982407D02*
X-48900001Y17949074D01*
X-48900001Y17949074D02*
X-48833334Y17882407D01*
X-48833334Y17882407D02*
X-48800001Y17815740D01*
X-48800001Y17815740D02*
X-48766668Y17682407D01*
X-48766668Y17682407D02*
X-48766668Y17582407D01*
X-48766668Y17582407D02*
X-48800001Y17449074D01*
X-48800001Y17449074D02*
X-48833334Y17382407D01*
X-48833334Y17382407D02*
X-48900001Y17315740D01*
X-48900001Y17315740D02*
X-49000001Y17282407D01*
X-49000001Y17282407D02*
X-49066668Y17282407D01*
X-49066668Y17282407D02*
X-49166668Y17315740D01*
X-49166668Y17315740D02*
X-49200001Y17349074D01*
X-49200001Y17349074D02*
X-49200001Y17582407D01*
X-49200001Y17582407D02*
X-49066668Y17582407D01*
X-49500001Y17282407D02*
X-49500001Y17982407D01*
X-49500001Y17982407D02*
X-49900001Y17282407D01*
X-49900001Y17282407D02*
X-49900001Y17982407D01*
X-50233334Y17282407D02*
X-50233334Y17982407D01*
X-50233334Y17982407D02*
X-50400001Y17982407D01*
X-50400001Y17982407D02*
X-50500001Y17949074D01*
X-50500001Y17949074D02*
X-50566667Y17882407D01*
X-50566667Y17882407D02*
X-50600001Y17815740D01*
X-50600001Y17815740D02*
X-50633334Y17682407D01*
X-50633334Y17682407D02*
X-50633334Y17582407D01*
X-50633334Y17582407D02*
X-50600001Y17449074D01*
X-50600001Y17449074D02*
X-50566667Y17382407D01*
X-50566667Y17382407D02*
X-50500001Y17315740D01*
X-50500001Y17315740D02*
X-50400001Y17282407D01*
X-50400001Y17282407D02*
X-50233334Y17282407D01*
X-51500000Y17282407D02*
X-51633334Y17282407D01*
X-51633334Y17282407D02*
X-51700000Y17315740D01*
X-51700000Y17315740D02*
X-51733334Y17349074D01*
X-51733334Y17349074D02*
X-51800000Y17449074D01*
X-51800000Y17449074D02*
X-51833334Y17582407D01*
X-51833334Y17582407D02*
X-51833334Y17849074D01*
X-51833334Y17849074D02*
X-51800000Y17915740D01*
X-51800000Y17915740D02*
X-51766667Y17949074D01*
X-51766667Y17949074D02*
X-51700000Y17982407D01*
X-51700000Y17982407D02*
X-51566667Y17982407D01*
X-51566667Y17982407D02*
X-51500000Y17949074D01*
X-51500000Y17949074D02*
X-51466667Y17915740D01*
X-51466667Y17915740D02*
X-51433334Y17849074D01*
X-51433334Y17849074D02*
X-51433334Y17682407D01*
X-51433334Y17682407D02*
X-51466667Y17615740D01*
X-51466667Y17615740D02*
X-51500000Y17582407D01*
X-51500000Y17582407D02*
X-51566667Y17549074D01*
X-51566667Y17549074D02*
X-51700000Y17549074D01*
X-51700000Y17549074D02*
X-51766667Y17582407D01*
X-51766667Y17582407D02*
X-51800000Y17615740D01*
X-51800000Y17615740D02*
X-51833334Y17682407D01*
X-52133334Y17349074D02*
X-52166667Y17315740D01*
X-52166667Y17315740D02*
X-52133334Y17282407D01*
X-52133334Y17282407D02*
X-52100001Y17315740D01*
X-52100001Y17315740D02*
X-52133334Y17349074D01*
X-52133334Y17349074D02*
X-52133334Y17282407D01*
X-52133334Y17715740D02*
X-52166667Y17682407D01*
X-52166667Y17682407D02*
X-52133334Y17649074D01*
X-52133334Y17649074D02*
X-52100001Y17682407D01*
X-52100001Y17682407D02*
X-52133334Y17715740D01*
X-52133334Y17715740D02*
X-52133334Y17649074D01*
X-52366667Y17982407D02*
X-52766667Y17982407D01*
X-52566667Y17282407D02*
X-52566667Y17982407D01*
X-53400000Y17349074D02*
X-53366667Y17315740D01*
X-53366667Y17315740D02*
X-53266667Y17282407D01*
X-53266667Y17282407D02*
X-53200000Y17282407D01*
X-53200000Y17282407D02*
X-53100000Y17315740D01*
X-53100000Y17315740D02*
X-53033333Y17382407D01*
X-53033333Y17382407D02*
X-53000000Y17449074D01*
X-53000000Y17449074D02*
X-52966667Y17582407D01*
X-52966667Y17582407D02*
X-52966667Y17682407D01*
X-52966667Y17682407D02*
X-53000000Y17815740D01*
X-53000000Y17815740D02*
X-53033333Y17882407D01*
X-53033333Y17882407D02*
X-53100000Y17949074D01*
X-53100000Y17949074D02*
X-53200000Y17982407D01*
X-53200000Y17982407D02*
X-53266667Y17982407D01*
X-53266667Y17982407D02*
X-53366667Y17949074D01*
X-53366667Y17949074D02*
X-53400000Y17915740D01*
X-53700000Y17282407D02*
X-53700000Y17982407D01*
X-54100000Y17282407D02*
X-53800000Y17682407D01*
X-54100000Y17982407D02*
X-53700000Y17582407D01*
X-55300000Y17282407D02*
X-54900000Y17282407D01*
X-55100000Y17282407D02*
X-55100000Y17982407D01*
X-55100000Y17982407D02*
X-55033333Y17882407D01*
X-55033333Y17882407D02*
X-54966666Y17815740D01*
X-54966666Y17815740D02*
X-54900000Y17782407D01*
X-55733333Y17982407D02*
X-55800000Y17982407D01*
X-55800000Y17982407D02*
X-55866667Y17949074D01*
X-55866667Y17949074D02*
X-55900000Y17915740D01*
X-55900000Y17915740D02*
X-55933333Y17849074D01*
X-55933333Y17849074D02*
X-55966667Y17715740D01*
X-55966667Y17715740D02*
X-55966667Y17549074D01*
X-55966667Y17549074D02*
X-55933333Y17415740D01*
X-55933333Y17415740D02*
X-55900000Y17349074D01*
X-55900000Y17349074D02*
X-55866667Y17315740D01*
X-55866667Y17315740D02*
X-55800000Y17282407D01*
X-55800000Y17282407D02*
X-55733333Y17282407D01*
X-55733333Y17282407D02*
X-55666667Y17315740D01*
X-55666667Y17315740D02*
X-55633333Y17349074D01*
X-55633333Y17349074D02*
X-55600000Y17415740D01*
X-55600000Y17415740D02*
X-55566667Y17549074D01*
X-55566667Y17549074D02*
X-55566667Y17715740D01*
X-55566667Y17715740D02*
X-55600000Y17849074D01*
X-55600000Y17849074D02*
X-55633333Y17915740D01*
X-55633333Y17915740D02*
X-55666667Y17949074D01*
X-55666667Y17949074D02*
X-55733333Y17982407D01*
X-56266667Y17349074D02*
X-56300000Y17315740D01*
X-56300000Y17315740D02*
X-56266667Y17282407D01*
X-56266667Y17282407D02*
X-56233334Y17315740D01*
X-56233334Y17315740D02*
X-56266667Y17349074D01*
X-56266667Y17349074D02*
X-56266667Y17282407D01*
X-56266667Y17715740D02*
X-56300000Y17682407D01*
X-56300000Y17682407D02*
X-56266667Y17649074D01*
X-56266667Y17649074D02*
X-56233334Y17682407D01*
X-56233334Y17682407D02*
X-56266667Y17715740D01*
X-56266667Y17715740D02*
X-56266667Y17649074D01*
X-56966667Y17949074D02*
X-56900000Y17982407D01*
X-56900000Y17982407D02*
X-56800000Y17982407D01*
X-56800000Y17982407D02*
X-56700000Y17949074D01*
X-56700000Y17949074D02*
X-56633333Y17882407D01*
X-56633333Y17882407D02*
X-56600000Y17815740D01*
X-56600000Y17815740D02*
X-56566667Y17682407D01*
X-56566667Y17682407D02*
X-56566667Y17582407D01*
X-56566667Y17582407D02*
X-56600000Y17449074D01*
X-56600000Y17449074D02*
X-56633333Y17382407D01*
X-56633333Y17382407D02*
X-56700000Y17315740D01*
X-56700000Y17315740D02*
X-56800000Y17282407D01*
X-56800000Y17282407D02*
X-56866667Y17282407D01*
X-56866667Y17282407D02*
X-56966667Y17315740D01*
X-56966667Y17315740D02*
X-57000000Y17349074D01*
X-57000000Y17349074D02*
X-57000000Y17582407D01*
X-57000000Y17582407D02*
X-56866667Y17582407D01*
X-57300000Y17282407D02*
X-57300000Y17982407D01*
X-57300000Y17982407D02*
X-57700000Y17282407D01*
X-57700000Y17282407D02*
X-57700000Y17982407D01*
X-58033333Y17282407D02*
X-58033333Y17982407D01*
X-58033333Y17982407D02*
X-58200000Y17982407D01*
X-58200000Y17982407D02*
X-58300000Y17949074D01*
X-58300000Y17949074D02*
X-58366666Y17882407D01*
X-58366666Y17882407D02*
X-58400000Y17815740D01*
X-58400000Y17815740D02*
X-58433333Y17682407D01*
X-58433333Y17682407D02*
X-58433333Y17582407D01*
X-58433333Y17582407D02*
X-58400000Y17449074D01*
X-58400000Y17449074D02*
X-58366666Y17382407D01*
X-58366666Y17382407D02*
X-58300000Y17315740D01*
X-58300000Y17315740D02*
X-58200000Y17282407D01*
X-58200000Y17282407D02*
X-58033333Y17282407D01*
X-59633333Y17282407D02*
X-59233333Y17282407D01*
X-59433333Y17282407D02*
X-59433333Y17982407D01*
X-59433333Y17982407D02*
X-59366666Y17882407D01*
X-59366666Y17882407D02*
X-59299999Y17815740D01*
X-59299999Y17815740D02*
X-59233333Y17782407D01*
X-60300000Y17282407D02*
X-59900000Y17282407D01*
X-60100000Y17282407D02*
X-60100000Y17982407D01*
X-60100000Y17982407D02*
X-60033333Y17882407D01*
X-60033333Y17882407D02*
X-59966666Y17815740D01*
X-59966666Y17815740D02*
X-59900000Y17782407D01*
X-60600000Y17349074D02*
X-60633333Y17315740D01*
X-60633333Y17315740D02*
X-60600000Y17282407D01*
X-60600000Y17282407D02*
X-60566667Y17315740D01*
X-60566667Y17315740D02*
X-60600000Y17349074D01*
X-60600000Y17349074D02*
X-60600000Y17282407D01*
X-60600000Y17715740D02*
X-60633333Y17682407D01*
X-60633333Y17682407D02*
X-60600000Y17649074D01*
X-60600000Y17649074D02*
X-60566667Y17682407D01*
X-60566667Y17682407D02*
X-60600000Y17715740D01*
X-60600000Y17715740D02*
X-60600000Y17649074D01*
X-60833333Y17982407D02*
X-61233333Y17982407D01*
X-61033333Y17282407D02*
X-61033333Y17982407D01*
X-61399999Y17982407D02*
X-61866666Y17282407D01*
X-61866666Y17982407D02*
X-61399999Y17282407D01*
X-63033333Y17282407D02*
X-62633333Y17282407D01*
X-62833333Y17282407D02*
X-62833333Y17982407D01*
X-62833333Y17982407D02*
X-62766666Y17882407D01*
X-62766666Y17882407D02*
X-62699999Y17815740D01*
X-62699999Y17815740D02*
X-62633333Y17782407D01*
X-63300000Y17915740D02*
X-63333333Y17949074D01*
X-63333333Y17949074D02*
X-63400000Y17982407D01*
X-63400000Y17982407D02*
X-63566666Y17982407D01*
X-63566666Y17982407D02*
X-63633333Y17949074D01*
X-63633333Y17949074D02*
X-63666666Y17915740D01*
X-63666666Y17915740D02*
X-63700000Y17849074D01*
X-63700000Y17849074D02*
X-63700000Y17782407D01*
X-63700000Y17782407D02*
X-63666666Y17682407D01*
X-63666666Y17682407D02*
X-63266666Y17282407D01*
X-63266666Y17282407D02*
X-63700000Y17282407D01*
X-64000000Y17349074D02*
X-64033333Y17315740D01*
X-64033333Y17315740D02*
X-64000000Y17282407D01*
X-64000000Y17282407D02*
X-63966667Y17315740D01*
X-63966667Y17315740D02*
X-64000000Y17349074D01*
X-64000000Y17349074D02*
X-64000000Y17282407D01*
X-64000000Y17715740D02*
X-64033333Y17682407D01*
X-64033333Y17682407D02*
X-64000000Y17649074D01*
X-64000000Y17649074D02*
X-63966667Y17682407D01*
X-63966667Y17682407D02*
X-64000000Y17715740D01*
X-64000000Y17715740D02*
X-64000000Y17649074D01*
X-64700000Y17949074D02*
X-64633333Y17982407D01*
X-64633333Y17982407D02*
X-64533333Y17982407D01*
X-64533333Y17982407D02*
X-64433333Y17949074D01*
X-64433333Y17949074D02*
X-64366666Y17882407D01*
X-64366666Y17882407D02*
X-64333333Y17815740D01*
X-64333333Y17815740D02*
X-64300000Y17682407D01*
X-64300000Y17682407D02*
X-64300000Y17582407D01*
X-64300000Y17582407D02*
X-64333333Y17449074D01*
X-64333333Y17449074D02*
X-64366666Y17382407D01*
X-64366666Y17382407D02*
X-64433333Y17315740D01*
X-64433333Y17315740D02*
X-64533333Y17282407D01*
X-64533333Y17282407D02*
X-64600000Y17282407D01*
X-64600000Y17282407D02*
X-64700000Y17315740D01*
X-64700000Y17315740D02*
X-64733333Y17349074D01*
X-64733333Y17349074D02*
X-64733333Y17582407D01*
X-64733333Y17582407D02*
X-64600000Y17582407D01*
X-65033333Y17282407D02*
X-65033333Y17982407D01*
X-65033333Y17982407D02*
X-65433333Y17282407D01*
X-65433333Y17282407D02*
X-65433333Y17982407D01*
X-65766666Y17282407D02*
X-65766666Y17982407D01*
X-65766666Y17982407D02*
X-65933333Y17982407D01*
X-65933333Y17982407D02*
X-66033333Y17949074D01*
X-66033333Y17949074D02*
X-66099999Y17882407D01*
X-66099999Y17882407D02*
X-66133333Y17815740D01*
X-66133333Y17815740D02*
X-66166666Y17682407D01*
X-66166666Y17682407D02*
X-66166666Y17582407D01*
X-66166666Y17582407D02*
X-66133333Y17449074D01*
X-66133333Y17449074D02*
X-66099999Y17382407D01*
X-66099999Y17382407D02*
X-66033333Y17315740D01*
X-66033333Y17315740D02*
X-65933333Y17282407D01*
X-65933333Y17282407D02*
X-65766666Y17282407D01*
X-27033336Y24032407D02*
X-27033336Y24732407D01*
X-27033336Y24732407D02*
X-27300003Y24732407D01*
X-27300003Y24732407D02*
X-27366669Y24699074D01*
X-27366669Y24699074D02*
X-27400003Y24665740D01*
X-27400003Y24665740D02*
X-27433336Y24599074D01*
X-27433336Y24599074D02*
X-27433336Y24499074D01*
X-27433336Y24499074D02*
X-27400003Y24432407D01*
X-27400003Y24432407D02*
X-27366669Y24399074D01*
X-27366669Y24399074D02*
X-27300003Y24365740D01*
X-27300003Y24365740D02*
X-27033336Y24365740D01*
X-27733336Y24032407D02*
X-27733336Y24499074D01*
X-27733336Y24732407D02*
X-27700003Y24699074D01*
X-27700003Y24699074D02*
X-27733336Y24665740D01*
X-27733336Y24665740D02*
X-27766669Y24699074D01*
X-27766669Y24699074D02*
X-27733336Y24732407D01*
X-27733336Y24732407D02*
X-27733336Y24665740D01*
X-28066669Y24499074D02*
X-28066669Y24032407D01*
X-28066669Y24432407D02*
X-28100002Y24465740D01*
X-28100002Y24465740D02*
X-28166669Y24499074D01*
X-28166669Y24499074D02*
X-28266669Y24499074D01*
X-28266669Y24499074D02*
X-28333336Y24465740D01*
X-28333336Y24465740D02*
X-28366669Y24399074D01*
X-28366669Y24399074D02*
X-28366669Y24032407D01*
X-29566668Y24732407D02*
X-29233335Y24732407D01*
X-29233335Y24732407D02*
X-29200002Y24399074D01*
X-29200002Y24399074D02*
X-29233335Y24432407D01*
X-29233335Y24432407D02*
X-29300002Y24465740D01*
X-29300002Y24465740D02*
X-29466668Y24465740D01*
X-29466668Y24465740D02*
X-29533335Y24432407D01*
X-29533335Y24432407D02*
X-29566668Y24399074D01*
X-29566668Y24399074D02*
X-29600002Y24332407D01*
X-29600002Y24332407D02*
X-29600002Y24165740D01*
X-29600002Y24165740D02*
X-29566668Y24099074D01*
X-29566668Y24099074D02*
X-29533335Y24065740D01*
X-29533335Y24065740D02*
X-29466668Y24032407D01*
X-29466668Y24032407D02*
X-29300002Y24032407D01*
X-29300002Y24032407D02*
X-29233335Y24065740D01*
X-29233335Y24065740D02*
X-29200002Y24099074D01*
X-29900002Y24099074D02*
X-29933335Y24065740D01*
X-29933335Y24065740D02*
X-29900002Y24032407D01*
X-29900002Y24032407D02*
X-29866669Y24065740D01*
X-29866669Y24065740D02*
X-29900002Y24099074D01*
X-29900002Y24099074D02*
X-29900002Y24032407D01*
X-29900002Y24465740D02*
X-29933335Y24432407D01*
X-29933335Y24432407D02*
X-29900002Y24399074D01*
X-29900002Y24399074D02*
X-29866669Y24432407D01*
X-29866669Y24432407D02*
X-29900002Y24465740D01*
X-29900002Y24465740D02*
X-29900002Y24399074D01*
X-30766668Y24732407D02*
X-30766668Y24165740D01*
X-30766668Y24165740D02*
X-30800001Y24099074D01*
X-30800001Y24099074D02*
X-30833335Y24065740D01*
X-30833335Y24065740D02*
X-30900001Y24032407D01*
X-30900001Y24032407D02*
X-31033335Y24032407D01*
X-31033335Y24032407D02*
X-31100001Y24065740D01*
X-31100001Y24065740D02*
X-31133335Y24099074D01*
X-31133335Y24099074D02*
X-31166668Y24165740D01*
X-31166668Y24165740D02*
X-31166668Y24732407D01*
X-31466668Y24232407D02*
X-31800001Y24232407D01*
X-31400001Y24032407D02*
X-31633334Y24732407D01*
X-31633334Y24732407D02*
X-31866668Y24032407D01*
X-32500001Y24032407D02*
X-32266668Y24365740D01*
X-32100001Y24032407D02*
X-32100001Y24732407D01*
X-32100001Y24732407D02*
X-32366668Y24732407D01*
X-32366668Y24732407D02*
X-32433334Y24699074D01*
X-32433334Y24699074D02*
X-32466668Y24665740D01*
X-32466668Y24665740D02*
X-32500001Y24599074D01*
X-32500001Y24599074D02*
X-32500001Y24499074D01*
X-32500001Y24499074D02*
X-32466668Y24432407D01*
X-32466668Y24432407D02*
X-32433334Y24399074D01*
X-32433334Y24399074D02*
X-32366668Y24365740D01*
X-32366668Y24365740D02*
X-32100001Y24365740D01*
X-32700001Y24732407D02*
X-33100001Y24732407D01*
X-32900001Y24032407D02*
X-32900001Y24732407D01*
X-33166667Y23965740D02*
X-33700001Y23965740D01*
X-33766667Y24732407D02*
X-34166667Y24732407D01*
X-33966667Y24032407D02*
X-33966667Y24732407D01*
X-34333333Y24732407D02*
X-34800000Y24032407D01*
X-34800000Y24732407D02*
X-34333333Y24032407D01*
X-36133333Y24032407D02*
X-36133333Y24732407D01*
X-36133333Y24732407D02*
X-36400000Y24732407D01*
X-36400000Y24732407D02*
X-36466666Y24699074D01*
X-36466666Y24699074D02*
X-36500000Y24665740D01*
X-36500000Y24665740D02*
X-36533333Y24599074D01*
X-36533333Y24599074D02*
X-36533333Y24499074D01*
X-36533333Y24499074D02*
X-36500000Y24432407D01*
X-36500000Y24432407D02*
X-36466666Y24399074D01*
X-36466666Y24399074D02*
X-36400000Y24365740D01*
X-36400000Y24365740D02*
X-36133333Y24365740D01*
X-36833333Y24032407D02*
X-36833333Y24499074D01*
X-36833333Y24732407D02*
X-36800000Y24699074D01*
X-36800000Y24699074D02*
X-36833333Y24665740D01*
X-36833333Y24665740D02*
X-36866666Y24699074D01*
X-36866666Y24699074D02*
X-36833333Y24732407D01*
X-36833333Y24732407D02*
X-36833333Y24665740D01*
X-37166666Y24499074D02*
X-37166666Y24032407D01*
X-37166666Y24432407D02*
X-37199999Y24465740D01*
X-37199999Y24465740D02*
X-37266666Y24499074D01*
X-37266666Y24499074D02*
X-37366666Y24499074D01*
X-37366666Y24499074D02*
X-37433333Y24465740D01*
X-37433333Y24465740D02*
X-37466666Y24399074D01*
X-37466666Y24399074D02*
X-37466666Y24032407D01*
X-38633332Y24732407D02*
X-38499999Y24732407D01*
X-38499999Y24732407D02*
X-38433332Y24699074D01*
X-38433332Y24699074D02*
X-38399999Y24665740D01*
X-38399999Y24665740D02*
X-38333332Y24565740D01*
X-38333332Y24565740D02*
X-38299999Y24432407D01*
X-38299999Y24432407D02*
X-38299999Y24165740D01*
X-38299999Y24165740D02*
X-38333332Y24099074D01*
X-38333332Y24099074D02*
X-38366665Y24065740D01*
X-38366665Y24065740D02*
X-38433332Y24032407D01*
X-38433332Y24032407D02*
X-38566665Y24032407D01*
X-38566665Y24032407D02*
X-38633332Y24065740D01*
X-38633332Y24065740D02*
X-38666665Y24099074D01*
X-38666665Y24099074D02*
X-38699999Y24165740D01*
X-38699999Y24165740D02*
X-38699999Y24332407D01*
X-38699999Y24332407D02*
X-38666665Y24399074D01*
X-38666665Y24399074D02*
X-38633332Y24432407D01*
X-38633332Y24432407D02*
X-38566665Y24465740D01*
X-38566665Y24465740D02*
X-38433332Y24465740D01*
X-38433332Y24465740D02*
X-38366665Y24432407D01*
X-38366665Y24432407D02*
X-38333332Y24399074D01*
X-38333332Y24399074D02*
X-38299999Y24332407D01*
X-38999999Y24099074D02*
X-39033332Y24065740D01*
X-39033332Y24065740D02*
X-38999999Y24032407D01*
X-38999999Y24032407D02*
X-38966666Y24065740D01*
X-38966666Y24065740D02*
X-38999999Y24099074D01*
X-38999999Y24099074D02*
X-38999999Y24032407D01*
X-38999999Y24465740D02*
X-39033332Y24432407D01*
X-39033332Y24432407D02*
X-38999999Y24399074D01*
X-38999999Y24399074D02*
X-38966666Y24432407D01*
X-38966666Y24432407D02*
X-38999999Y24465740D01*
X-38999999Y24465740D02*
X-38999999Y24399074D01*
X-39766665Y24732407D02*
X-40166665Y24732407D01*
X-39966665Y24032407D02*
X-39966665Y24732407D01*
X-40399998Y24032407D02*
X-40399998Y24732407D01*
X-40399998Y24732407D02*
X-40566665Y24732407D01*
X-40566665Y24732407D02*
X-40666665Y24699074D01*
X-40666665Y24699074D02*
X-40733331Y24632407D01*
X-40733331Y24632407D02*
X-40766665Y24565740D01*
X-40766665Y24565740D02*
X-40799998Y24432407D01*
X-40799998Y24432407D02*
X-40799998Y24332407D01*
X-40799998Y24332407D02*
X-40766665Y24199074D01*
X-40766665Y24199074D02*
X-40733331Y24132407D01*
X-40733331Y24132407D02*
X-40666665Y24065740D01*
X-40666665Y24065740D02*
X-40566665Y24032407D01*
X-40566665Y24032407D02*
X-40399998Y24032407D01*
X-41233331Y24732407D02*
X-41366665Y24732407D01*
X-41366665Y24732407D02*
X-41433331Y24699074D01*
X-41433331Y24699074D02*
X-41499998Y24632407D01*
X-41499998Y24632407D02*
X-41533331Y24499074D01*
X-41533331Y24499074D02*
X-41533331Y24265740D01*
X-41533331Y24265740D02*
X-41499998Y24132407D01*
X-41499998Y24132407D02*
X-41433331Y24065740D01*
X-41433331Y24065740D02*
X-41366665Y24032407D01*
X-41366665Y24032407D02*
X-41233331Y24032407D01*
X-41233331Y24032407D02*
X-41166665Y24065740D01*
X-41166665Y24065740D02*
X-41099998Y24132407D01*
X-41099998Y24132407D02*
X-41066665Y24265740D01*
X-41066665Y24265740D02*
X-41066665Y24499074D01*
X-41066665Y24499074D02*
X-41099998Y24632407D01*
X-41099998Y24632407D02*
X-41166665Y24699074D01*
X-41166665Y24699074D02*
X-41233331Y24732407D01*
X-42333331Y24765740D02*
X-41733331Y23865740D01*
X-42533331Y24065740D02*
X-42633331Y24032407D01*
X-42633331Y24032407D02*
X-42799997Y24032407D01*
X-42799997Y24032407D02*
X-42866664Y24065740D01*
X-42866664Y24065740D02*
X-42899997Y24099074D01*
X-42899997Y24099074D02*
X-42933331Y24165740D01*
X-42933331Y24165740D02*
X-42933331Y24232407D01*
X-42933331Y24232407D02*
X-42899997Y24299074D01*
X-42899997Y24299074D02*
X-42866664Y24332407D01*
X-42866664Y24332407D02*
X-42799997Y24365740D01*
X-42799997Y24365740D02*
X-42666664Y24399074D01*
X-42666664Y24399074D02*
X-42599997Y24432407D01*
X-42599997Y24432407D02*
X-42566664Y24465740D01*
X-42566664Y24465740D02*
X-42533331Y24532407D01*
X-42533331Y24532407D02*
X-42533331Y24599074D01*
X-42533331Y24599074D02*
X-42566664Y24665740D01*
X-42566664Y24665740D02*
X-42599997Y24699074D01*
X-42599997Y24699074D02*
X-42666664Y24732407D01*
X-42666664Y24732407D02*
X-42833331Y24732407D01*
X-42833331Y24732407D02*
X-42933331Y24699074D01*
X-43166664Y24732407D02*
X-43333331Y24032407D01*
X-43333331Y24032407D02*
X-43466664Y24532407D01*
X-43466664Y24532407D02*
X-43599998Y24032407D01*
X-43599998Y24032407D02*
X-43766664Y24732407D01*
X-44166664Y24732407D02*
X-44299998Y24732407D01*
X-44299998Y24732407D02*
X-44366664Y24699074D01*
X-44366664Y24699074D02*
X-44433331Y24632407D01*
X-44433331Y24632407D02*
X-44466664Y24499074D01*
X-44466664Y24499074D02*
X-44466664Y24265740D01*
X-44466664Y24265740D02*
X-44433331Y24132407D01*
X-44433331Y24132407D02*
X-44366664Y24065740D01*
X-44366664Y24065740D02*
X-44299998Y24032407D01*
X-44299998Y24032407D02*
X-44166664Y24032407D01*
X-44166664Y24032407D02*
X-44099998Y24065740D01*
X-44099998Y24065740D02*
X-44033331Y24132407D01*
X-44033331Y24132407D02*
X-43999998Y24265740D01*
X-43999998Y24265740D02*
X-43999998Y24499074D01*
X-43999998Y24499074D02*
X-44033331Y24632407D01*
X-44033331Y24632407D02*
X-44099998Y24699074D01*
X-44099998Y24699074D02*
X-44166664Y24732407D01*
D11*
X-27850955Y28405258D02*
X-27165241Y28405258D01*
X-27508098Y28405258D02*
X-27508098Y29605258D01*
X-27508098Y29605258D02*
X-27393812Y29433829D01*
X-27393812Y29433829D02*
X-27279527Y29319543D01*
X-27279527Y29319543D02*
X-27165241Y29262400D01*
X-28593812Y29605258D02*
X-28708098Y29605258D01*
X-28708098Y29605258D02*
X-28822384Y29548115D01*
X-28822384Y29548115D02*
X-28879526Y29490972D01*
X-28879526Y29490972D02*
X-28936669Y29376686D01*
X-28936669Y29376686D02*
X-28993812Y29148115D01*
X-28993812Y29148115D02*
X-28993812Y28862400D01*
X-28993812Y28862400D02*
X-28936669Y28633829D01*
X-28936669Y28633829D02*
X-28879526Y28519543D01*
X-28879526Y28519543D02*
X-28822384Y28462400D01*
X-28822384Y28462400D02*
X-28708098Y28405258D01*
X-28708098Y28405258D02*
X-28593812Y28405258D01*
X-28593812Y28405258D02*
X-28479526Y28462400D01*
X-28479526Y28462400D02*
X-28422384Y28519543D01*
X-28422384Y28519543D02*
X-28365241Y28633829D01*
X-28365241Y28633829D02*
X-28308098Y28862400D01*
X-28308098Y28862400D02*
X-28308098Y29148115D01*
X-28308098Y29148115D02*
X-28365241Y29376686D01*
X-28365241Y29376686D02*
X-28422384Y29490972D01*
X-28422384Y29490972D02*
X-28479526Y29548115D01*
X-28479526Y29548115D02*
X-28593812Y29605258D01*
X-29508098Y28862400D02*
X-30422383Y28862400D01*
X-30993812Y28405258D02*
X-30993812Y29605258D01*
X-30993812Y29605258D02*
X-31450955Y29605258D01*
X-31450955Y29605258D02*
X-31565240Y29548115D01*
X-31565240Y29548115D02*
X-31622383Y29490972D01*
X-31622383Y29490972D02*
X-31679526Y29376686D01*
X-31679526Y29376686D02*
X-31679526Y29205258D01*
X-31679526Y29205258D02*
X-31622383Y29090972D01*
X-31622383Y29090972D02*
X-31565240Y29033829D01*
X-31565240Y29033829D02*
X-31450955Y28976686D01*
X-31450955Y28976686D02*
X-30993812Y28976686D01*
X-32193812Y28405258D02*
X-32193812Y29605258D01*
X-32765241Y28405258D02*
X-32765241Y29605258D01*
X-32765241Y29605258D02*
X-33450955Y28405258D01*
X-33450955Y28405258D02*
X-33450955Y29605258D01*
X-35622384Y28519543D02*
X-35565241Y28462400D01*
X-35565241Y28462400D02*
X-35393813Y28405258D01*
X-35393813Y28405258D02*
X-35279527Y28405258D01*
X-35279527Y28405258D02*
X-35108098Y28462400D01*
X-35108098Y28462400D02*
X-34993813Y28576686D01*
X-34993813Y28576686D02*
X-34936670Y28690972D01*
X-34936670Y28690972D02*
X-34879527Y28919543D01*
X-34879527Y28919543D02*
X-34879527Y29090972D01*
X-34879527Y29090972D02*
X-34936670Y29319543D01*
X-34936670Y29319543D02*
X-34993813Y29433829D01*
X-34993813Y29433829D02*
X-35108098Y29548115D01*
X-35108098Y29548115D02*
X-35279527Y29605258D01*
X-35279527Y29605258D02*
X-35393813Y29605258D01*
X-35393813Y29605258D02*
X-35565241Y29548115D01*
X-35565241Y29548115D02*
X-35622384Y29490972D01*
X-36365241Y29605258D02*
X-36593813Y29605258D01*
X-36593813Y29605258D02*
X-36708098Y29548115D01*
X-36708098Y29548115D02*
X-36822384Y29433829D01*
X-36822384Y29433829D02*
X-36879527Y29205258D01*
X-36879527Y29205258D02*
X-36879527Y28805258D01*
X-36879527Y28805258D02*
X-36822384Y28576686D01*
X-36822384Y28576686D02*
X-36708098Y28462400D01*
X-36708098Y28462400D02*
X-36593813Y28405258D01*
X-36593813Y28405258D02*
X-36365241Y28405258D01*
X-36365241Y28405258D02*
X-36250955Y28462400D01*
X-36250955Y28462400D02*
X-36136670Y28576686D01*
X-36136670Y28576686D02*
X-36079527Y28805258D01*
X-36079527Y28805258D02*
X-36079527Y29205258D01*
X-36079527Y29205258D02*
X-36136670Y29433829D01*
X-36136670Y29433829D02*
X-36250955Y29548115D01*
X-36250955Y29548115D02*
X-36365241Y29605258D01*
X-38079527Y28405258D02*
X-37679527Y28976686D01*
X-37393813Y28405258D02*
X-37393813Y29605258D01*
X-37393813Y29605258D02*
X-37850956Y29605258D01*
X-37850956Y29605258D02*
X-37965241Y29548115D01*
X-37965241Y29548115D02*
X-38022384Y29490972D01*
X-38022384Y29490972D02*
X-38079527Y29376686D01*
X-38079527Y29376686D02*
X-38079527Y29205258D01*
X-38079527Y29205258D02*
X-38022384Y29090972D01*
X-38022384Y29090972D02*
X-37965241Y29033829D01*
X-37965241Y29033829D02*
X-37850956Y28976686D01*
X-37850956Y28976686D02*
X-37393813Y28976686D01*
X-38422384Y29605258D02*
X-39108098Y29605258D01*
X-38765241Y28405258D02*
X-38765241Y29605258D01*
X-39508099Y29033829D02*
X-39908099Y29033829D01*
X-40079527Y28405258D02*
X-39508099Y28405258D01*
X-39508099Y28405258D02*
X-39508099Y29605258D01*
X-39508099Y29605258D02*
X-40079527Y29605258D01*
X-40479527Y29605258D02*
X-41279527Y28405258D01*
X-41279527Y29605258D02*
X-40479527Y28405258D01*
X-42650956Y28405258D02*
X-42650956Y29605258D01*
X-42650956Y29605258D02*
X-42936670Y29605258D01*
X-42936670Y29605258D02*
X-43108099Y29548115D01*
X-43108099Y29548115D02*
X-43222384Y29433829D01*
X-43222384Y29433829D02*
X-43279527Y29319543D01*
X-43279527Y29319543D02*
X-43336670Y29090972D01*
X-43336670Y29090972D02*
X-43336670Y28919543D01*
X-43336670Y28919543D02*
X-43279527Y28690972D01*
X-43279527Y28690972D02*
X-43222384Y28576686D01*
X-43222384Y28576686D02*
X-43108099Y28462400D01*
X-43108099Y28462400D02*
X-42936670Y28405258D01*
X-42936670Y28405258D02*
X-42650956Y28405258D01*
X-43850956Y29033829D02*
X-44250956Y29033829D01*
X-44422384Y28405258D02*
X-43850956Y28405258D01*
X-43850956Y28405258D02*
X-43850956Y29605258D01*
X-43850956Y29605258D02*
X-44422384Y29605258D01*
X-45336670Y29033829D02*
X-45508098Y28976686D01*
X-45508098Y28976686D02*
X-45565241Y28919543D01*
X-45565241Y28919543D02*
X-45622384Y28805258D01*
X-45622384Y28805258D02*
X-45622384Y28633829D01*
X-45622384Y28633829D02*
X-45565241Y28519543D01*
X-45565241Y28519543D02*
X-45508098Y28462400D01*
X-45508098Y28462400D02*
X-45393813Y28405258D01*
X-45393813Y28405258D02*
X-44936670Y28405258D01*
X-44936670Y28405258D02*
X-44936670Y29605258D01*
X-44936670Y29605258D02*
X-45336670Y29605258D01*
X-45336670Y29605258D02*
X-45450955Y29548115D01*
X-45450955Y29548115D02*
X-45508098Y29490972D01*
X-45508098Y29490972D02*
X-45565241Y29376686D01*
X-45565241Y29376686D02*
X-45565241Y29262400D01*
X-45565241Y29262400D02*
X-45508098Y29148115D01*
X-45508098Y29148115D02*
X-45450955Y29090972D01*
X-45450955Y29090972D02*
X-45336670Y29033829D01*
X-45336670Y29033829D02*
X-44936670Y29033829D01*
X-46136670Y29605258D02*
X-46136670Y28633829D01*
X-46136670Y28633829D02*
X-46193813Y28519543D01*
X-46193813Y28519543D02*
X-46250955Y28462400D01*
X-46250955Y28462400D02*
X-46365241Y28405258D01*
X-46365241Y28405258D02*
X-46593813Y28405258D01*
X-46593813Y28405258D02*
X-46708098Y28462400D01*
X-46708098Y28462400D02*
X-46765241Y28519543D01*
X-46765241Y28519543D02*
X-46822384Y28633829D01*
X-46822384Y28633829D02*
X-46822384Y29605258D01*
X-48022384Y29548115D02*
X-47908098Y29605258D01*
X-47908098Y29605258D02*
X-47736670Y29605258D01*
X-47736670Y29605258D02*
X-47565241Y29548115D01*
X-47565241Y29548115D02*
X-47450956Y29433829D01*
X-47450956Y29433829D02*
X-47393813Y29319543D01*
X-47393813Y29319543D02*
X-47336670Y29090972D01*
X-47336670Y29090972D02*
X-47336670Y28919543D01*
X-47336670Y28919543D02*
X-47393813Y28690972D01*
X-47393813Y28690972D02*
X-47450956Y28576686D01*
X-47450956Y28576686D02*
X-47565241Y28462400D01*
X-47565241Y28462400D02*
X-47736670Y28405258D01*
X-47736670Y28405258D02*
X-47850956Y28405258D01*
X-47850956Y28405258D02*
X-48022384Y28462400D01*
X-48022384Y28462400D02*
X-48079527Y28519543D01*
X-48079527Y28519543D02*
X-48079527Y28919543D01*
X-48079527Y28919543D02*
X-47850956Y28919543D01*
X-49850956Y27948115D02*
X-49793813Y28005258D01*
X-49793813Y28005258D02*
X-49679527Y28176686D01*
X-49679527Y28176686D02*
X-49622384Y28290972D01*
X-49622384Y28290972D02*
X-49565242Y28462400D01*
X-49565242Y28462400D02*
X-49508099Y28748115D01*
X-49508099Y28748115D02*
X-49508099Y28976686D01*
X-49508099Y28976686D02*
X-49565242Y29262400D01*
X-49565242Y29262400D02*
X-49622384Y29433829D01*
X-49622384Y29433829D02*
X-49679527Y29548115D01*
X-49679527Y29548115D02*
X-49793813Y29719543D01*
X-49793813Y29719543D02*
X-49850956Y29776686D01*
X-50650956Y29605258D02*
X-50650956Y28748115D01*
X-50650956Y28748115D02*
X-50593813Y28576686D01*
X-50593813Y28576686D02*
X-50479527Y28462400D01*
X-50479527Y28462400D02*
X-50308099Y28405258D01*
X-50308099Y28405258D02*
X-50193813Y28405258D01*
X-51850956Y28405258D02*
X-51165242Y28405258D01*
X-51508099Y28405258D02*
X-51508099Y29605258D01*
X-51508099Y29605258D02*
X-51393813Y29433829D01*
X-51393813Y29433829D02*
X-51279528Y29319543D01*
X-51279528Y29319543D02*
X-51165242Y29262400D01*
X-53222385Y29662400D02*
X-52193813Y28119543D01*
X-53965242Y29605258D02*
X-53965242Y28748115D01*
X-53965242Y28748115D02*
X-53908099Y28576686D01*
X-53908099Y28576686D02*
X-53793813Y28462400D01*
X-53793813Y28462400D02*
X-53622385Y28405258D01*
X-53622385Y28405258D02*
X-53508099Y28405258D01*
X-54422385Y29605258D02*
X-55165242Y29605258D01*
X-55165242Y29605258D02*
X-54765242Y29148115D01*
X-54765242Y29148115D02*
X-54936671Y29148115D01*
X-54936671Y29148115D02*
X-55050956Y29090972D01*
X-55050956Y29090972D02*
X-55108099Y29033829D01*
X-55108099Y29033829D02*
X-55165242Y28919543D01*
X-55165242Y28919543D02*
X-55165242Y28633829D01*
X-55165242Y28633829D02*
X-55108099Y28519543D01*
X-55108099Y28519543D02*
X-55050956Y28462400D01*
X-55050956Y28462400D02*
X-54936671Y28405258D01*
X-54936671Y28405258D02*
X-54593814Y28405258D01*
X-54593814Y28405258D02*
X-54479528Y28462400D01*
X-54479528Y28462400D02*
X-54422385Y28519543D01*
X-55565242Y27948115D02*
X-55622385Y28005258D01*
X-55622385Y28005258D02*
X-55736671Y28176686D01*
X-55736671Y28176686D02*
X-55793813Y28290972D01*
X-55793813Y28290972D02*
X-55850956Y28462400D01*
X-55850956Y28462400D02*
X-55908099Y28748115D01*
X-55908099Y28748115D02*
X-55908099Y28976686D01*
X-55908099Y28976686D02*
X-55850956Y29262400D01*
X-55850956Y29262400D02*
X-55793813Y29433829D01*
X-55793813Y29433829D02*
X-55736671Y29548115D01*
X-55736671Y29548115D02*
X-55622385Y29719543D01*
X-55622385Y29719543D02*
X-55565242Y29776686D01*
X-44398573Y21440972D02*
X-44455716Y21498115D01*
X-44455716Y21498115D02*
X-44570001Y21555258D01*
X-44570001Y21555258D02*
X-44855716Y21555258D01*
X-44855716Y21555258D02*
X-44970001Y21498115D01*
X-44970001Y21498115D02*
X-45027144Y21440972D01*
X-45027144Y21440972D02*
X-45084287Y21326686D01*
X-45084287Y21326686D02*
X-45084287Y21212400D01*
X-45084287Y21212400D02*
X-45027144Y21040972D01*
X-45027144Y21040972D02*
X-44341430Y20355258D01*
X-44341430Y20355258D02*
X-45084287Y20355258D01*
X-45827144Y21555258D02*
X-45941430Y21555258D01*
X-45941430Y21555258D02*
X-46055716Y21498115D01*
X-46055716Y21498115D02*
X-46112858Y21440972D01*
X-46112858Y21440972D02*
X-46170001Y21326686D01*
X-46170001Y21326686D02*
X-46227144Y21098115D01*
X-46227144Y21098115D02*
X-46227144Y20812400D01*
X-46227144Y20812400D02*
X-46170001Y20583829D01*
X-46170001Y20583829D02*
X-46112858Y20469543D01*
X-46112858Y20469543D02*
X-46055716Y20412400D01*
X-46055716Y20412400D02*
X-45941430Y20355258D01*
X-45941430Y20355258D02*
X-45827144Y20355258D01*
X-45827144Y20355258D02*
X-45712858Y20412400D01*
X-45712858Y20412400D02*
X-45655716Y20469543D01*
X-45655716Y20469543D02*
X-45598573Y20583829D01*
X-45598573Y20583829D02*
X-45541430Y20812400D01*
X-45541430Y20812400D02*
X-45541430Y21098115D01*
X-45541430Y21098115D02*
X-45598573Y21326686D01*
X-45598573Y21326686D02*
X-45655716Y21440972D01*
X-45655716Y21440972D02*
X-45712858Y21498115D01*
X-45712858Y21498115D02*
X-45827144Y21555258D01*
X-46741430Y20812400D02*
X-47655715Y20812400D01*
X-48227144Y20355258D02*
X-48227144Y21555258D01*
X-48227144Y21555258D02*
X-48684287Y21555258D01*
X-48684287Y21555258D02*
X-48798572Y21498115D01*
X-48798572Y21498115D02*
X-48855715Y21440972D01*
X-48855715Y21440972D02*
X-48912858Y21326686D01*
X-48912858Y21326686D02*
X-48912858Y21155258D01*
X-48912858Y21155258D02*
X-48855715Y21040972D01*
X-48855715Y21040972D02*
X-48798572Y20983829D01*
X-48798572Y20983829D02*
X-48684287Y20926686D01*
X-48684287Y20926686D02*
X-48227144Y20926686D01*
X-49427144Y20355258D02*
X-49427144Y21555258D01*
X-49998573Y20355258D02*
X-49998573Y21555258D01*
X-49998573Y21555258D02*
X-50684287Y20355258D01*
X-50684287Y20355258D02*
X-50684287Y21555258D01*
X-52112859Y20698115D02*
X-52684287Y20698115D01*
X-51998573Y20355258D02*
X-52398573Y21555258D01*
X-52398573Y21555258D02*
X-52798573Y20355258D01*
X-53884287Y20355258D02*
X-53484287Y20926686D01*
X-53198573Y20355258D02*
X-53198573Y21555258D01*
X-53198573Y21555258D02*
X-53655716Y21555258D01*
X-53655716Y21555258D02*
X-53770001Y21498115D01*
X-53770001Y21498115D02*
X-53827144Y21440972D01*
X-53827144Y21440972D02*
X-53884287Y21326686D01*
X-53884287Y21326686D02*
X-53884287Y21155258D01*
X-53884287Y21155258D02*
X-53827144Y21040972D01*
X-53827144Y21040972D02*
X-53770001Y20983829D01*
X-53770001Y20983829D02*
X-53655716Y20926686D01*
X-53655716Y20926686D02*
X-53198573Y20926686D01*
X-54398573Y20355258D02*
X-54398573Y21555258D01*
X-54398573Y21555258D02*
X-54798573Y20698115D01*
X-54798573Y20698115D02*
X-55198573Y21555258D01*
X-55198573Y21555258D02*
X-55198573Y20355258D01*
X-57027145Y21555258D02*
X-57027145Y20698115D01*
X-57027145Y20698115D02*
X-56970002Y20526686D01*
X-56970002Y20526686D02*
X-56855716Y20412400D01*
X-56855716Y20412400D02*
X-56684288Y20355258D01*
X-56684288Y20355258D02*
X-56570002Y20355258D01*
X-57427145Y21555258D02*
X-58112859Y21555258D01*
X-57770002Y20355258D02*
X-57770002Y21555258D01*
X-58455717Y20698115D02*
X-59027145Y20698115D01*
X-58341431Y20355258D02*
X-58741431Y21555258D01*
X-58741431Y21555258D02*
X-59141431Y20355258D01*
X-60170002Y21498115D02*
X-60055716Y21555258D01*
X-60055716Y21555258D02*
X-59884288Y21555258D01*
X-59884288Y21555258D02*
X-59712859Y21498115D01*
X-59712859Y21498115D02*
X-59598574Y21383829D01*
X-59598574Y21383829D02*
X-59541431Y21269543D01*
X-59541431Y21269543D02*
X-59484288Y21040972D01*
X-59484288Y21040972D02*
X-59484288Y20869543D01*
X-59484288Y20869543D02*
X-59541431Y20640972D01*
X-59541431Y20640972D02*
X-59598574Y20526686D01*
X-59598574Y20526686D02*
X-59712859Y20412400D01*
X-59712859Y20412400D02*
X-59884288Y20355258D01*
X-59884288Y20355258D02*
X-59998574Y20355258D01*
X-59998574Y20355258D02*
X-60170002Y20412400D01*
X-60170002Y20412400D02*
X-60227145Y20469543D01*
X-60227145Y20469543D02*
X-60227145Y20869543D01*
X-60227145Y20869543D02*
X-59998574Y20869543D01*
X-61998574Y19898115D02*
X-61941431Y19955258D01*
X-61941431Y19955258D02*
X-61827145Y20126686D01*
X-61827145Y20126686D02*
X-61770002Y20240972D01*
X-61770002Y20240972D02*
X-61712860Y20412400D01*
X-61712860Y20412400D02*
X-61655717Y20698115D01*
X-61655717Y20698115D02*
X-61655717Y20926686D01*
X-61655717Y20926686D02*
X-61712860Y21212400D01*
X-61712860Y21212400D02*
X-61770002Y21383829D01*
X-61770002Y21383829D02*
X-61827145Y21498115D01*
X-61827145Y21498115D02*
X-61941431Y21669543D01*
X-61941431Y21669543D02*
X-61998574Y21726686D01*
X-62798574Y21555258D02*
X-62798574Y20698115D01*
X-62798574Y20698115D02*
X-62741431Y20526686D01*
X-62741431Y20526686D02*
X-62627145Y20412400D01*
X-62627145Y20412400D02*
X-62455717Y20355258D01*
X-62455717Y20355258D02*
X-62341431Y20355258D01*
X-63312860Y21440972D02*
X-63370003Y21498115D01*
X-63370003Y21498115D02*
X-63484288Y21555258D01*
X-63484288Y21555258D02*
X-63770003Y21555258D01*
X-63770003Y21555258D02*
X-63884288Y21498115D01*
X-63884288Y21498115D02*
X-63941431Y21440972D01*
X-63941431Y21440972D02*
X-63998574Y21326686D01*
X-63998574Y21326686D02*
X-63998574Y21212400D01*
X-63998574Y21212400D02*
X-63941431Y21040972D01*
X-63941431Y21040972D02*
X-63255717Y20355258D01*
X-63255717Y20355258D02*
X-63998574Y20355258D01*
X-64398574Y19898115D02*
X-64455717Y19955258D01*
X-64455717Y19955258D02*
X-64570003Y20126686D01*
X-64570003Y20126686D02*
X-64627145Y20240972D01*
X-64627145Y20240972D02*
X-64684288Y20412400D01*
X-64684288Y20412400D02*
X-64741431Y20698115D01*
X-64741431Y20698115D02*
X-64741431Y20926686D01*
X-64741431Y20926686D02*
X-64684288Y21212400D01*
X-64684288Y21212400D02*
X-64627145Y21383829D01*
X-64627145Y21383829D02*
X-64570003Y21498115D01*
X-64570003Y21498115D02*
X-64455717Y21669543D01*
X-64455717Y21669543D02*
X-64398574Y21726686D01*
D10*
X-44633335Y14682407D02*
X-44233335Y14682407D01*
X-44433335Y14682407D02*
X-44433335Y15382407D01*
X-44433335Y15382407D02*
X-44366668Y15282407D01*
X-44366668Y15282407D02*
X-44300001Y15215740D01*
X-44300001Y15215740D02*
X-44233335Y15182407D01*
X-44966668Y14682407D02*
X-45100002Y14682407D01*
X-45100002Y14682407D02*
X-45166668Y14715740D01*
X-45166668Y14715740D02*
X-45200002Y14749074D01*
X-45200002Y14749074D02*
X-45266668Y14849074D01*
X-45266668Y14849074D02*
X-45300002Y14982407D01*
X-45300002Y14982407D02*
X-45300002Y15249074D01*
X-45300002Y15249074D02*
X-45266668Y15315740D01*
X-45266668Y15315740D02*
X-45233335Y15349074D01*
X-45233335Y15349074D02*
X-45166668Y15382407D01*
X-45166668Y15382407D02*
X-45033335Y15382407D01*
X-45033335Y15382407D02*
X-44966668Y15349074D01*
X-44966668Y15349074D02*
X-44933335Y15315740D01*
X-44933335Y15315740D02*
X-44900002Y15249074D01*
X-44900002Y15249074D02*
X-44900002Y15082407D01*
X-44900002Y15082407D02*
X-44933335Y15015740D01*
X-44933335Y15015740D02*
X-44966668Y14982407D01*
X-44966668Y14982407D02*
X-45033335Y14949074D01*
X-45033335Y14949074D02*
X-45166668Y14949074D01*
X-45166668Y14949074D02*
X-45233335Y14982407D01*
X-45233335Y14982407D02*
X-45266668Y15015740D01*
X-45266668Y15015740D02*
X-45300002Y15082407D01*
X-45600002Y14749074D02*
X-45633335Y14715740D01*
X-45633335Y14715740D02*
X-45600002Y14682407D01*
X-45600002Y14682407D02*
X-45566669Y14715740D01*
X-45566669Y14715740D02*
X-45600002Y14749074D01*
X-45600002Y14749074D02*
X-45600002Y14682407D01*
X-45600002Y15115740D02*
X-45633335Y15082407D01*
X-45633335Y15082407D02*
X-45600002Y15049074D01*
X-45600002Y15049074D02*
X-45566669Y15082407D01*
X-45566669Y15082407D02*
X-45600002Y15115740D01*
X-45600002Y15115740D02*
X-45600002Y15049074D01*
X-45833335Y15382407D02*
X-46066668Y14682407D01*
X-46066668Y14682407D02*
X-46300002Y15382407D01*
X-46433335Y15382407D02*
X-46833335Y15382407D01*
X-46633335Y14682407D02*
X-46633335Y15382407D01*
X-47366668Y14682407D02*
X-47366668Y15049074D01*
X-47366668Y15049074D02*
X-47333335Y15115740D01*
X-47333335Y15115740D02*
X-47266668Y15149074D01*
X-47266668Y15149074D02*
X-47133335Y15149074D01*
X-47133335Y15149074D02*
X-47066668Y15115740D01*
X-47366668Y14715740D02*
X-47300001Y14682407D01*
X-47300001Y14682407D02*
X-47133335Y14682407D01*
X-47133335Y14682407D02*
X-47066668Y14715740D01*
X-47066668Y14715740D02*
X-47033335Y14782407D01*
X-47033335Y14782407D02*
X-47033335Y14849074D01*
X-47033335Y14849074D02*
X-47066668Y14915740D01*
X-47066668Y14915740D02*
X-47133335Y14949074D01*
X-47133335Y14949074D02*
X-47300001Y14949074D01*
X-47300001Y14949074D02*
X-47366668Y14982407D01*
X-47700001Y14682407D02*
X-47700001Y15149074D01*
X-47700001Y15015740D02*
X-47733334Y15082407D01*
X-47733334Y15082407D02*
X-47766668Y15115740D01*
X-47766668Y15115740D02*
X-47833334Y15149074D01*
X-47833334Y15149074D02*
X-47900001Y15149074D01*
X-48433334Y15149074D02*
X-48433334Y14582407D01*
X-48433334Y14582407D02*
X-48400001Y14515740D01*
X-48400001Y14515740D02*
X-48366667Y14482407D01*
X-48366667Y14482407D02*
X-48300001Y14449074D01*
X-48300001Y14449074D02*
X-48200001Y14449074D01*
X-48200001Y14449074D02*
X-48133334Y14482407D01*
X-48433334Y14715740D02*
X-48366667Y14682407D01*
X-48366667Y14682407D02*
X-48233334Y14682407D01*
X-48233334Y14682407D02*
X-48166667Y14715740D01*
X-48166667Y14715740D02*
X-48133334Y14749074D01*
X-48133334Y14749074D02*
X-48100001Y14815740D01*
X-48100001Y14815740D02*
X-48100001Y15015740D01*
X-48100001Y15015740D02*
X-48133334Y15082407D01*
X-48133334Y15082407D02*
X-48166667Y15115740D01*
X-48166667Y15115740D02*
X-48233334Y15149074D01*
X-48233334Y15149074D02*
X-48366667Y15149074D01*
X-48366667Y15149074D02*
X-48433334Y15115740D01*
X-49033334Y14715740D02*
X-48966667Y14682407D01*
X-48966667Y14682407D02*
X-48833334Y14682407D01*
X-48833334Y14682407D02*
X-48766667Y14715740D01*
X-48766667Y14715740D02*
X-48733334Y14782407D01*
X-48733334Y14782407D02*
X-48733334Y15049074D01*
X-48733334Y15049074D02*
X-48766667Y15115740D01*
X-48766667Y15115740D02*
X-48833334Y15149074D01*
X-48833334Y15149074D02*
X-48966667Y15149074D01*
X-48966667Y15149074D02*
X-49033334Y15115740D01*
X-49033334Y15115740D02*
X-49066667Y15049074D01*
X-49066667Y15049074D02*
X-49066667Y14982407D01*
X-49066667Y14982407D02*
X-48733334Y14915740D01*
X-49266667Y15149074D02*
X-49533334Y15149074D01*
X-49366667Y15382407D02*
X-49366667Y14782407D01*
X-49366667Y14782407D02*
X-49400000Y14715740D01*
X-49400000Y14715740D02*
X-49466667Y14682407D01*
X-49466667Y14682407D02*
X-49533334Y14682407D01*
X-50266667Y15315740D02*
X-50300000Y15349074D01*
X-50300000Y15349074D02*
X-50366667Y15382407D01*
X-50366667Y15382407D02*
X-50533333Y15382407D01*
X-50533333Y15382407D02*
X-50600000Y15349074D01*
X-50600000Y15349074D02*
X-50633333Y15315740D01*
X-50633333Y15315740D02*
X-50666667Y15249074D01*
X-50666667Y15249074D02*
X-50666667Y15182407D01*
X-50666667Y15182407D02*
X-50633333Y15082407D01*
X-50633333Y15082407D02*
X-50233333Y14682407D01*
X-50233333Y14682407D02*
X-50666667Y14682407D01*
X-51100000Y15382407D02*
X-51166667Y15382407D01*
X-51166667Y15382407D02*
X-51233334Y15349074D01*
X-51233334Y15349074D02*
X-51266667Y15315740D01*
X-51266667Y15315740D02*
X-51300000Y15249074D01*
X-51300000Y15249074D02*
X-51333334Y15115740D01*
X-51333334Y15115740D02*
X-51333334Y14949074D01*
X-51333334Y14949074D02*
X-51300000Y14815740D01*
X-51300000Y14815740D02*
X-51266667Y14749074D01*
X-51266667Y14749074D02*
X-51233334Y14715740D01*
X-51233334Y14715740D02*
X-51166667Y14682407D01*
X-51166667Y14682407D02*
X-51100000Y14682407D01*
X-51100000Y14682407D02*
X-51033334Y14715740D01*
X-51033334Y14715740D02*
X-51000000Y14749074D01*
X-51000000Y14749074D02*
X-50966667Y14815740D01*
X-50966667Y14815740D02*
X-50933334Y14949074D01*
X-50933334Y14949074D02*
X-50933334Y15115740D01*
X-50933334Y15115740D02*
X-50966667Y15249074D01*
X-50966667Y15249074D02*
X-51000000Y15315740D01*
X-51000000Y15315740D02*
X-51033334Y15349074D01*
X-51033334Y15349074D02*
X-51100000Y15382407D01*
X-51633334Y14749074D02*
X-51666667Y14715740D01*
X-51666667Y14715740D02*
X-51633334Y14682407D01*
X-51633334Y14682407D02*
X-51600001Y14715740D01*
X-51600001Y14715740D02*
X-51633334Y14749074D01*
X-51633334Y14749074D02*
X-51633334Y14682407D01*
X-51633334Y15115740D02*
X-51666667Y15082407D01*
X-51666667Y15082407D02*
X-51633334Y15049074D01*
X-51633334Y15049074D02*
X-51600001Y15082407D01*
X-51600001Y15082407D02*
X-51633334Y15115740D01*
X-51633334Y15115740D02*
X-51633334Y15049074D01*
X-51866667Y15382407D02*
X-52100000Y14682407D01*
X-52100000Y14682407D02*
X-52333334Y15382407D01*
X-52466667Y15382407D02*
X-52866667Y15382407D01*
X-52666667Y14682407D02*
X-52666667Y15382407D01*
X-53100000Y14682407D02*
X-53100000Y15149074D01*
X-53100000Y15015740D02*
X-53133333Y15082407D01*
X-53133333Y15082407D02*
X-53166667Y15115740D01*
X-53166667Y15115740D02*
X-53233333Y15149074D01*
X-53233333Y15149074D02*
X-53300000Y15149074D01*
X-53800000Y14715740D02*
X-53733333Y14682407D01*
X-53733333Y14682407D02*
X-53600000Y14682407D01*
X-53600000Y14682407D02*
X-53533333Y14715740D01*
X-53533333Y14715740D02*
X-53500000Y14782407D01*
X-53500000Y14782407D02*
X-53500000Y15049074D01*
X-53500000Y15049074D02*
X-53533333Y15115740D01*
X-53533333Y15115740D02*
X-53600000Y15149074D01*
X-53600000Y15149074D02*
X-53733333Y15149074D01*
X-53733333Y15149074D02*
X-53800000Y15115740D01*
X-53800000Y15115740D02*
X-53833333Y15049074D01*
X-53833333Y15049074D02*
X-53833333Y14982407D01*
X-53833333Y14982407D02*
X-53500000Y14915740D01*
X-54033333Y15149074D02*
X-54300000Y15149074D01*
X-54133333Y14682407D02*
X-54133333Y15282407D01*
X-54133333Y15282407D02*
X-54166666Y15349074D01*
X-54166666Y15349074D02*
X-54233333Y15382407D01*
X-54233333Y15382407D02*
X-54300000Y15382407D01*
X-55266666Y14415740D02*
X-55233333Y14449074D01*
X-55233333Y14449074D02*
X-55166666Y14549074D01*
X-55166666Y14549074D02*
X-55133333Y14615740D01*
X-55133333Y14615740D02*
X-55099999Y14715740D01*
X-55099999Y14715740D02*
X-55066666Y14882407D01*
X-55066666Y14882407D02*
X-55066666Y15015740D01*
X-55066666Y15015740D02*
X-55099999Y15182407D01*
X-55099999Y15182407D02*
X-55133333Y15282407D01*
X-55133333Y15282407D02*
X-55166666Y15349074D01*
X-55166666Y15349074D02*
X-55233333Y15449074D01*
X-55233333Y15449074D02*
X-55266666Y15482407D01*
X-55433333Y15382407D02*
X-55833333Y15382407D01*
X-55633333Y14682407D02*
X-55633333Y15382407D01*
X-55999999Y15382407D02*
X-56466666Y14682407D01*
X-56466666Y15382407D02*
X-55999999Y14682407D01*
X-56733333Y14749074D02*
X-56766666Y14715740D01*
X-56766666Y14715740D02*
X-56733333Y14682407D01*
X-56733333Y14682407D02*
X-56700000Y14715740D01*
X-56700000Y14715740D02*
X-56733333Y14749074D01*
X-56733333Y14749074D02*
X-56733333Y14682407D01*
X-56733333Y15115740D02*
X-56766666Y15082407D01*
X-56766666Y15082407D02*
X-56733333Y15049074D01*
X-56733333Y15049074D02*
X-56700000Y15082407D01*
X-56700000Y15082407D02*
X-56733333Y15115740D01*
X-56733333Y15115740D02*
X-56733333Y15049074D01*
X-57433333Y14682407D02*
X-57033333Y14682407D01*
X-57233333Y14682407D02*
X-57233333Y15382407D01*
X-57233333Y15382407D02*
X-57166666Y15282407D01*
X-57166666Y15282407D02*
X-57099999Y15215740D01*
X-57099999Y15215740D02*
X-57033333Y15182407D01*
X-58100000Y14682407D02*
X-57700000Y14682407D01*
X-57900000Y14682407D02*
X-57900000Y15382407D01*
X-57900000Y15382407D02*
X-57833333Y15282407D01*
X-57833333Y15282407D02*
X-57766666Y15215740D01*
X-57766666Y15215740D02*
X-57700000Y15182407D01*
X-59333333Y14682407D02*
X-59100000Y15015740D01*
X-58933333Y14682407D02*
X-58933333Y15382407D01*
X-58933333Y15382407D02*
X-59200000Y15382407D01*
X-59200000Y15382407D02*
X-59266666Y15349074D01*
X-59266666Y15349074D02*
X-59300000Y15315740D01*
X-59300000Y15315740D02*
X-59333333Y15249074D01*
X-59333333Y15249074D02*
X-59333333Y15149074D01*
X-59333333Y15149074D02*
X-59300000Y15082407D01*
X-59300000Y15082407D02*
X-59266666Y15049074D01*
X-59266666Y15049074D02*
X-59200000Y15015740D01*
X-59200000Y15015740D02*
X-58933333Y15015740D01*
X-59566666Y15382407D02*
X-60033333Y14682407D01*
X-60033333Y15382407D02*
X-59566666Y14682407D01*
X-60300000Y14749074D02*
X-60333333Y14715740D01*
X-60333333Y14715740D02*
X-60300000Y14682407D01*
X-60300000Y14682407D02*
X-60266667Y14715740D01*
X-60266667Y14715740D02*
X-60300000Y14749074D01*
X-60300000Y14749074D02*
X-60300000Y14682407D01*
X-60300000Y15115740D02*
X-60333333Y15082407D01*
X-60333333Y15082407D02*
X-60300000Y15049074D01*
X-60300000Y15049074D02*
X-60266667Y15082407D01*
X-60266667Y15082407D02*
X-60300000Y15115740D01*
X-60300000Y15115740D02*
X-60300000Y15049074D01*
X-61000000Y14682407D02*
X-60600000Y14682407D01*
X-60800000Y14682407D02*
X-60800000Y15382407D01*
X-60800000Y15382407D02*
X-60733333Y15282407D01*
X-60733333Y15282407D02*
X-60666666Y15215740D01*
X-60666666Y15215740D02*
X-60600000Y15182407D01*
X-61233333Y15382407D02*
X-61700000Y15382407D01*
X-61700000Y15382407D02*
X-61400000Y14682407D01*
X-61900000Y14415740D02*
X-61933334Y14449074D01*
X-61933334Y14449074D02*
X-62000000Y14549074D01*
X-62000000Y14549074D02*
X-62033334Y14615740D01*
X-62033334Y14615740D02*
X-62066667Y14715740D01*
X-62066667Y14715740D02*
X-62100000Y14882407D01*
X-62100000Y14882407D02*
X-62100000Y15015740D01*
X-62100000Y15015740D02*
X-62066667Y15182407D01*
X-62066667Y15182407D02*
X-62033334Y15282407D01*
X-62033334Y15282407D02*
X-62000000Y15349074D01*
X-62000000Y15349074D02*
X-61933334Y15449074D01*
X-61933334Y15449074D02*
X-61900000Y15482407D01*
X-44633335Y15982407D02*
X-44233335Y15982407D01*
X-44433335Y15982407D02*
X-44433335Y16682407D01*
X-44433335Y16682407D02*
X-44366668Y16582407D01*
X-44366668Y16582407D02*
X-44300001Y16515740D01*
X-44300001Y16515740D02*
X-44233335Y16482407D01*
X-44866668Y16682407D02*
X-45300002Y16682407D01*
X-45300002Y16682407D02*
X-45066668Y16415740D01*
X-45066668Y16415740D02*
X-45166668Y16415740D01*
X-45166668Y16415740D02*
X-45233335Y16382407D01*
X-45233335Y16382407D02*
X-45266668Y16349074D01*
X-45266668Y16349074D02*
X-45300002Y16282407D01*
X-45300002Y16282407D02*
X-45300002Y16115740D01*
X-45300002Y16115740D02*
X-45266668Y16049074D01*
X-45266668Y16049074D02*
X-45233335Y16015740D01*
X-45233335Y16015740D02*
X-45166668Y15982407D01*
X-45166668Y15982407D02*
X-44966668Y15982407D01*
X-44966668Y15982407D02*
X-44900002Y16015740D01*
X-44900002Y16015740D02*
X-44866668Y16049074D01*
X-45600002Y16049074D02*
X-45633335Y16015740D01*
X-45633335Y16015740D02*
X-45600002Y15982407D01*
X-45600002Y15982407D02*
X-45566669Y16015740D01*
X-45566669Y16015740D02*
X-45600002Y16049074D01*
X-45600002Y16049074D02*
X-45600002Y15982407D01*
X-45600002Y16415740D02*
X-45633335Y16382407D01*
X-45633335Y16382407D02*
X-45600002Y16349074D01*
X-45600002Y16349074D02*
X-45566669Y16382407D01*
X-45566669Y16382407D02*
X-45600002Y16415740D01*
X-45600002Y16415740D02*
X-45600002Y16349074D01*
X-45833335Y16682407D02*
X-46233335Y16682407D01*
X-46033335Y15982407D02*
X-46033335Y16682407D01*
X-46466668Y15982407D02*
X-46466668Y16682407D01*
X-46466668Y16682407D02*
X-46633335Y16682407D01*
X-46633335Y16682407D02*
X-46733335Y16649074D01*
X-46733335Y16649074D02*
X-46800001Y16582407D01*
X-46800001Y16582407D02*
X-46833335Y16515740D01*
X-46833335Y16515740D02*
X-46866668Y16382407D01*
X-46866668Y16382407D02*
X-46866668Y16282407D01*
X-46866668Y16282407D02*
X-46833335Y16149074D01*
X-46833335Y16149074D02*
X-46800001Y16082407D01*
X-46800001Y16082407D02*
X-46733335Y16015740D01*
X-46733335Y16015740D02*
X-46633335Y15982407D01*
X-46633335Y15982407D02*
X-46466668Y15982407D01*
X-47300001Y16682407D02*
X-47433335Y16682407D01*
X-47433335Y16682407D02*
X-47500001Y16649074D01*
X-47500001Y16649074D02*
X-47566668Y16582407D01*
X-47566668Y16582407D02*
X-47600001Y16449074D01*
X-47600001Y16449074D02*
X-47600001Y16215740D01*
X-47600001Y16215740D02*
X-47566668Y16082407D01*
X-47566668Y16082407D02*
X-47500001Y16015740D01*
X-47500001Y16015740D02*
X-47433335Y15982407D01*
X-47433335Y15982407D02*
X-47300001Y15982407D01*
X-47300001Y15982407D02*
X-47233335Y16015740D01*
X-47233335Y16015740D02*
X-47166668Y16082407D01*
X-47166668Y16082407D02*
X-47133335Y16215740D01*
X-47133335Y16215740D02*
X-47133335Y16449074D01*
X-47133335Y16449074D02*
X-47166668Y16582407D01*
X-47166668Y16582407D02*
X-47233335Y16649074D01*
X-47233335Y16649074D02*
X-47300001Y16682407D01*
X-48800001Y15982407D02*
X-48400001Y15982407D01*
X-48600001Y15982407D02*
X-48600001Y16682407D01*
X-48600001Y16682407D02*
X-48533334Y16582407D01*
X-48533334Y16582407D02*
X-48466667Y16515740D01*
X-48466667Y16515740D02*
X-48400001Y16482407D01*
X-49400001Y16449074D02*
X-49400001Y15982407D01*
X-49233334Y16715740D02*
X-49066668Y16215740D01*
X-49066668Y16215740D02*
X-49500001Y16215740D01*
X-49766668Y16049074D02*
X-49800001Y16015740D01*
X-49800001Y16015740D02*
X-49766668Y15982407D01*
X-49766668Y15982407D02*
X-49733335Y16015740D01*
X-49733335Y16015740D02*
X-49766668Y16049074D01*
X-49766668Y16049074D02*
X-49766668Y15982407D01*
X-49766668Y16415740D02*
X-49800001Y16382407D01*
X-49800001Y16382407D02*
X-49766668Y16349074D01*
X-49766668Y16349074D02*
X-49733335Y16382407D01*
X-49733335Y16382407D02*
X-49766668Y16415740D01*
X-49766668Y16415740D02*
X-49766668Y16349074D01*
X-50466668Y16649074D02*
X-50400001Y16682407D01*
X-50400001Y16682407D02*
X-50300001Y16682407D01*
X-50300001Y16682407D02*
X-50200001Y16649074D01*
X-50200001Y16649074D02*
X-50133334Y16582407D01*
X-50133334Y16582407D02*
X-50100001Y16515740D01*
X-50100001Y16515740D02*
X-50066668Y16382407D01*
X-50066668Y16382407D02*
X-50066668Y16282407D01*
X-50066668Y16282407D02*
X-50100001Y16149074D01*
X-50100001Y16149074D02*
X-50133334Y16082407D01*
X-50133334Y16082407D02*
X-50200001Y16015740D01*
X-50200001Y16015740D02*
X-50300001Y15982407D01*
X-50300001Y15982407D02*
X-50366668Y15982407D01*
X-50366668Y15982407D02*
X-50466668Y16015740D01*
X-50466668Y16015740D02*
X-50500001Y16049074D01*
X-50500001Y16049074D02*
X-50500001Y16282407D01*
X-50500001Y16282407D02*
X-50366668Y16282407D01*
X-50800001Y15982407D02*
X-50800001Y16682407D01*
X-50800001Y16682407D02*
X-51200001Y15982407D01*
X-51200001Y15982407D02*
X-51200001Y16682407D01*
X-51533334Y15982407D02*
X-51533334Y16682407D01*
X-51533334Y16682407D02*
X-51700001Y16682407D01*
X-51700001Y16682407D02*
X-51800001Y16649074D01*
X-51800001Y16649074D02*
X-51866667Y16582407D01*
X-51866667Y16582407D02*
X-51900001Y16515740D01*
X-51900001Y16515740D02*
X-51933334Y16382407D01*
X-51933334Y16382407D02*
X-51933334Y16282407D01*
X-51933334Y16282407D02*
X-51900001Y16149074D01*
X-51900001Y16149074D02*
X-51866667Y16082407D01*
X-51866667Y16082407D02*
X-51800001Y16015740D01*
X-51800001Y16015740D02*
X-51700001Y15982407D01*
X-51700001Y15982407D02*
X-51533334Y15982407D01*
X-53133334Y15982407D02*
X-52733334Y15982407D01*
X-52933334Y15982407D02*
X-52933334Y16682407D01*
X-52933334Y16682407D02*
X-52866667Y16582407D01*
X-52866667Y16582407D02*
X-52800000Y16515740D01*
X-52800000Y16515740D02*
X-52733334Y16482407D01*
X-53766667Y16682407D02*
X-53433334Y16682407D01*
X-53433334Y16682407D02*
X-53400001Y16349074D01*
X-53400001Y16349074D02*
X-53433334Y16382407D01*
X-53433334Y16382407D02*
X-53500001Y16415740D01*
X-53500001Y16415740D02*
X-53666667Y16415740D01*
X-53666667Y16415740D02*
X-53733334Y16382407D01*
X-53733334Y16382407D02*
X-53766667Y16349074D01*
X-53766667Y16349074D02*
X-53800001Y16282407D01*
X-53800001Y16282407D02*
X-53800001Y16115740D01*
X-53800001Y16115740D02*
X-53766667Y16049074D01*
X-53766667Y16049074D02*
X-53733334Y16015740D01*
X-53733334Y16015740D02*
X-53666667Y15982407D01*
X-53666667Y15982407D02*
X-53500001Y15982407D01*
X-53500001Y15982407D02*
X-53433334Y16015740D01*
X-53433334Y16015740D02*
X-53400001Y16049074D01*
X-54100001Y16049074D02*
X-54133334Y16015740D01*
X-54133334Y16015740D02*
X-54100001Y15982407D01*
X-54100001Y15982407D02*
X-54066668Y16015740D01*
X-54066668Y16015740D02*
X-54100001Y16049074D01*
X-54100001Y16049074D02*
X-54100001Y15982407D01*
X-54100001Y16415740D02*
X-54133334Y16382407D01*
X-54133334Y16382407D02*
X-54100001Y16349074D01*
X-54100001Y16349074D02*
X-54066668Y16382407D01*
X-54066668Y16382407D02*
X-54100001Y16415740D01*
X-54100001Y16415740D02*
X-54100001Y16349074D01*
X-54433334Y16449074D02*
X-54433334Y15982407D01*
X-54433334Y16382407D02*
X-54466667Y16415740D01*
X-54466667Y16415740D02*
X-54533334Y16449074D01*
X-54533334Y16449074D02*
X-54633334Y16449074D01*
X-54633334Y16449074D02*
X-54700001Y16415740D01*
X-54700001Y16415740D02*
X-54733334Y16349074D01*
X-54733334Y16349074D02*
X-54733334Y15982407D01*
X-55466667Y15982407D02*
X-55233334Y16315740D01*
X-55066667Y15982407D02*
X-55066667Y16682407D01*
X-55066667Y16682407D02*
X-55333334Y16682407D01*
X-55333334Y16682407D02*
X-55400000Y16649074D01*
X-55400000Y16649074D02*
X-55433334Y16615740D01*
X-55433334Y16615740D02*
X-55466667Y16549074D01*
X-55466667Y16549074D02*
X-55466667Y16449074D01*
X-55466667Y16449074D02*
X-55433334Y16382407D01*
X-55433334Y16382407D02*
X-55400000Y16349074D01*
X-55400000Y16349074D02*
X-55333334Y16315740D01*
X-55333334Y16315740D02*
X-55066667Y16315740D01*
X-55733334Y16015740D02*
X-55833334Y15982407D01*
X-55833334Y15982407D02*
X-56000000Y15982407D01*
X-56000000Y15982407D02*
X-56066667Y16015740D01*
X-56066667Y16015740D02*
X-56100000Y16049074D01*
X-56100000Y16049074D02*
X-56133334Y16115740D01*
X-56133334Y16115740D02*
X-56133334Y16182407D01*
X-56133334Y16182407D02*
X-56100000Y16249074D01*
X-56100000Y16249074D02*
X-56066667Y16282407D01*
X-56066667Y16282407D02*
X-56000000Y16315740D01*
X-56000000Y16315740D02*
X-55866667Y16349074D01*
X-55866667Y16349074D02*
X-55800000Y16382407D01*
X-55800000Y16382407D02*
X-55766667Y16415740D01*
X-55766667Y16415740D02*
X-55733334Y16482407D01*
X-55733334Y16482407D02*
X-55733334Y16549074D01*
X-55733334Y16549074D02*
X-55766667Y16615740D01*
X-55766667Y16615740D02*
X-55800000Y16649074D01*
X-55800000Y16649074D02*
X-55866667Y16682407D01*
X-55866667Y16682407D02*
X-56033334Y16682407D01*
X-56033334Y16682407D02*
X-56133334Y16649074D01*
X-56333334Y16682407D02*
X-56733334Y16682407D01*
X-56533334Y15982407D02*
X-56533334Y16682407D01*
X-57866667Y15982407D02*
X-57466667Y15982407D01*
X-57666667Y15982407D02*
X-57666667Y16682407D01*
X-57666667Y16682407D02*
X-57600000Y16582407D01*
X-57600000Y16582407D02*
X-57533333Y16515740D01*
X-57533333Y16515740D02*
X-57466667Y16482407D01*
X-58466667Y16682407D02*
X-58333334Y16682407D01*
X-58333334Y16682407D02*
X-58266667Y16649074D01*
X-58266667Y16649074D02*
X-58233334Y16615740D01*
X-58233334Y16615740D02*
X-58166667Y16515740D01*
X-58166667Y16515740D02*
X-58133334Y16382407D01*
X-58133334Y16382407D02*
X-58133334Y16115740D01*
X-58133334Y16115740D02*
X-58166667Y16049074D01*
X-58166667Y16049074D02*
X-58200000Y16015740D01*
X-58200000Y16015740D02*
X-58266667Y15982407D01*
X-58266667Y15982407D02*
X-58400000Y15982407D01*
X-58400000Y15982407D02*
X-58466667Y16015740D01*
X-58466667Y16015740D02*
X-58500000Y16049074D01*
X-58500000Y16049074D02*
X-58533334Y16115740D01*
X-58533334Y16115740D02*
X-58533334Y16282407D01*
X-58533334Y16282407D02*
X-58500000Y16349074D01*
X-58500000Y16349074D02*
X-58466667Y16382407D01*
X-58466667Y16382407D02*
X-58400000Y16415740D01*
X-58400000Y16415740D02*
X-58266667Y16415740D01*
X-58266667Y16415740D02*
X-58200000Y16382407D01*
X-58200000Y16382407D02*
X-58166667Y16349074D01*
X-58166667Y16349074D02*
X-58133334Y16282407D01*
X-58833334Y16049074D02*
X-58866667Y16015740D01*
X-58866667Y16015740D02*
X-58833334Y15982407D01*
X-58833334Y15982407D02*
X-58800001Y16015740D01*
X-58800001Y16015740D02*
X-58833334Y16049074D01*
X-58833334Y16049074D02*
X-58833334Y15982407D01*
X-58833334Y16415740D02*
X-58866667Y16382407D01*
X-58866667Y16382407D02*
X-58833334Y16349074D01*
X-58833334Y16349074D02*
X-58800001Y16382407D01*
X-58800001Y16382407D02*
X-58833334Y16415740D01*
X-58833334Y16415740D02*
X-58833334Y16349074D01*
X-59533334Y16649074D02*
X-59466667Y16682407D01*
X-59466667Y16682407D02*
X-59366667Y16682407D01*
X-59366667Y16682407D02*
X-59266667Y16649074D01*
X-59266667Y16649074D02*
X-59200000Y16582407D01*
X-59200000Y16582407D02*
X-59166667Y16515740D01*
X-59166667Y16515740D02*
X-59133334Y16382407D01*
X-59133334Y16382407D02*
X-59133334Y16282407D01*
X-59133334Y16282407D02*
X-59166667Y16149074D01*
X-59166667Y16149074D02*
X-59200000Y16082407D01*
X-59200000Y16082407D02*
X-59266667Y16015740D01*
X-59266667Y16015740D02*
X-59366667Y15982407D01*
X-59366667Y15982407D02*
X-59433334Y15982407D01*
X-59433334Y15982407D02*
X-59533334Y16015740D01*
X-59533334Y16015740D02*
X-59566667Y16049074D01*
X-59566667Y16049074D02*
X-59566667Y16282407D01*
X-59566667Y16282407D02*
X-59433334Y16282407D01*
X-59866667Y15982407D02*
X-59866667Y16682407D01*
X-59866667Y16682407D02*
X-60266667Y15982407D01*
X-60266667Y15982407D02*
X-60266667Y16682407D01*
X-60600000Y15982407D02*
X-60600000Y16682407D01*
X-60600000Y16682407D02*
X-60766667Y16682407D01*
X-60766667Y16682407D02*
X-60866667Y16649074D01*
X-60866667Y16649074D02*
X-60933333Y16582407D01*
X-60933333Y16582407D02*
X-60966667Y16515740D01*
X-60966667Y16515740D02*
X-61000000Y16382407D01*
X-61000000Y16382407D02*
X-61000000Y16282407D01*
X-61000000Y16282407D02*
X-60966667Y16149074D01*
X-60966667Y16149074D02*
X-60933333Y16082407D01*
X-60933333Y16082407D02*
X-60866667Y16015740D01*
X-60866667Y16015740D02*
X-60766667Y15982407D01*
X-60766667Y15982407D02*
X-60600000Y15982407D01*
X-62200000Y15982407D02*
X-61800000Y15982407D01*
X-62000000Y15982407D02*
X-62000000Y16682407D01*
X-62000000Y16682407D02*
X-61933333Y16582407D01*
X-61933333Y16582407D02*
X-61866666Y16515740D01*
X-61866666Y16515740D02*
X-61800000Y16482407D01*
X-62433333Y16682407D02*
X-62900000Y16682407D01*
X-62900000Y16682407D02*
X-62600000Y15982407D01*
X-63166667Y16049074D02*
X-63200000Y16015740D01*
X-63200000Y16015740D02*
X-63166667Y15982407D01*
X-63166667Y15982407D02*
X-63133334Y16015740D01*
X-63133334Y16015740D02*
X-63166667Y16049074D01*
X-63166667Y16049074D02*
X-63166667Y15982407D01*
X-63166667Y16415740D02*
X-63200000Y16382407D01*
X-63200000Y16382407D02*
X-63166667Y16349074D01*
X-63166667Y16349074D02*
X-63133334Y16382407D01*
X-63133334Y16382407D02*
X-63166667Y16415740D01*
X-63166667Y16415740D02*
X-63166667Y16349074D01*
X-63900000Y15982407D02*
X-63666667Y16315740D01*
X-63500000Y15982407D02*
X-63500000Y16682407D01*
X-63500000Y16682407D02*
X-63766667Y16682407D01*
X-63766667Y16682407D02*
X-63833333Y16649074D01*
X-63833333Y16649074D02*
X-63866667Y16615740D01*
X-63866667Y16615740D02*
X-63900000Y16549074D01*
X-63900000Y16549074D02*
X-63900000Y16449074D01*
X-63900000Y16449074D02*
X-63866667Y16382407D01*
X-63866667Y16382407D02*
X-63833333Y16349074D01*
X-63833333Y16349074D02*
X-63766667Y16315740D01*
X-63766667Y16315740D02*
X-63500000Y16315740D01*
X-64133333Y16682407D02*
X-64600000Y15982407D01*
X-64600000Y16682407D02*
X-64133333Y15982407D01*
X-65766667Y15982407D02*
X-65366667Y15982407D01*
X-65566667Y15982407D02*
X-65566667Y16682407D01*
X-65566667Y16682407D02*
X-65500000Y16582407D01*
X-65500000Y16582407D02*
X-65433333Y16515740D01*
X-65433333Y16515740D02*
X-65366667Y16482407D01*
X-66166667Y16382407D02*
X-66100000Y16415740D01*
X-66100000Y16415740D02*
X-66066667Y16449074D01*
X-66066667Y16449074D02*
X-66033334Y16515740D01*
X-66033334Y16515740D02*
X-66033334Y16549074D01*
X-66033334Y16549074D02*
X-66066667Y16615740D01*
X-66066667Y16615740D02*
X-66100000Y16649074D01*
X-66100000Y16649074D02*
X-66166667Y16682407D01*
X-66166667Y16682407D02*
X-66300000Y16682407D01*
X-66300000Y16682407D02*
X-66366667Y16649074D01*
X-66366667Y16649074D02*
X-66400000Y16615740D01*
X-66400000Y16615740D02*
X-66433334Y16549074D01*
X-66433334Y16549074D02*
X-66433334Y16515740D01*
X-66433334Y16515740D02*
X-66400000Y16449074D01*
X-66400000Y16449074D02*
X-66366667Y16415740D01*
X-66366667Y16415740D02*
X-66300000Y16382407D01*
X-66300000Y16382407D02*
X-66166667Y16382407D01*
X-66166667Y16382407D02*
X-66100000Y16349074D01*
X-66100000Y16349074D02*
X-66066667Y16315740D01*
X-66066667Y16315740D02*
X-66033334Y16249074D01*
X-66033334Y16249074D02*
X-66033334Y16115740D01*
X-66033334Y16115740D02*
X-66066667Y16049074D01*
X-66066667Y16049074D02*
X-66100000Y16015740D01*
X-66100000Y16015740D02*
X-66166667Y15982407D01*
X-66166667Y15982407D02*
X-66300000Y15982407D01*
X-66300000Y15982407D02*
X-66366667Y16015740D01*
X-66366667Y16015740D02*
X-66400000Y16049074D01*
X-66400000Y16049074D02*
X-66433334Y16115740D01*
X-66433334Y16115740D02*
X-66433334Y16249074D01*
X-66433334Y16249074D02*
X-66400000Y16315740D01*
X-66400000Y16315740D02*
X-66366667Y16349074D01*
X-66366667Y16349074D02*
X-66300000Y16382407D01*
X-66733334Y16049074D02*
X-66766667Y16015740D01*
X-66766667Y16015740D02*
X-66733334Y15982407D01*
X-66733334Y15982407D02*
X-66700001Y16015740D01*
X-66700001Y16015740D02*
X-66733334Y16049074D01*
X-66733334Y16049074D02*
X-66733334Y15982407D01*
X-66733334Y16415740D02*
X-66766667Y16382407D01*
X-66766667Y16382407D02*
X-66733334Y16349074D01*
X-66733334Y16349074D02*
X-66700001Y16382407D01*
X-66700001Y16382407D02*
X-66733334Y16415740D01*
X-66733334Y16415740D02*
X-66733334Y16349074D01*
X-67433334Y16649074D02*
X-67366667Y16682407D01*
X-67366667Y16682407D02*
X-67266667Y16682407D01*
X-67266667Y16682407D02*
X-67166667Y16649074D01*
X-67166667Y16649074D02*
X-67100000Y16582407D01*
X-67100000Y16582407D02*
X-67066667Y16515740D01*
X-67066667Y16515740D02*
X-67033334Y16382407D01*
X-67033334Y16382407D02*
X-67033334Y16282407D01*
X-67033334Y16282407D02*
X-67066667Y16149074D01*
X-67066667Y16149074D02*
X-67100000Y16082407D01*
X-67100000Y16082407D02*
X-67166667Y16015740D01*
X-67166667Y16015740D02*
X-67266667Y15982407D01*
X-67266667Y15982407D02*
X-67333334Y15982407D01*
X-67333334Y15982407D02*
X-67433334Y16015740D01*
X-67433334Y16015740D02*
X-67466667Y16049074D01*
X-67466667Y16049074D02*
X-67466667Y16282407D01*
X-67466667Y16282407D02*
X-67333334Y16282407D01*
X-67766667Y15982407D02*
X-67766667Y16682407D01*
X-67766667Y16682407D02*
X-68166667Y15982407D01*
X-68166667Y15982407D02*
X-68166667Y16682407D01*
X-68500000Y15982407D02*
X-68500000Y16682407D01*
X-68500000Y16682407D02*
X-68666667Y16682407D01*
X-68666667Y16682407D02*
X-68766667Y16649074D01*
X-68766667Y16649074D02*
X-68833333Y16582407D01*
X-68833333Y16582407D02*
X-68866667Y16515740D01*
X-68866667Y16515740D02*
X-68900000Y16382407D01*
X-68900000Y16382407D02*
X-68900000Y16282407D01*
X-68900000Y16282407D02*
X-68866667Y16149074D01*
X-68866667Y16149074D02*
X-68833333Y16082407D01*
X-68833333Y16082407D02*
X-68766667Y16015740D01*
X-68766667Y16015740D02*
X-68666667Y15982407D01*
X-68666667Y15982407D02*
X-68500000Y15982407D01*
X-27033336Y26632407D02*
X-27033336Y27332407D01*
X-27033336Y27332407D02*
X-27300003Y27332407D01*
X-27300003Y27332407D02*
X-27366669Y27299074D01*
X-27366669Y27299074D02*
X-27400003Y27265740D01*
X-27400003Y27265740D02*
X-27433336Y27199074D01*
X-27433336Y27199074D02*
X-27433336Y27099074D01*
X-27433336Y27099074D02*
X-27400003Y27032407D01*
X-27400003Y27032407D02*
X-27366669Y26999074D01*
X-27366669Y26999074D02*
X-27300003Y26965740D01*
X-27300003Y26965740D02*
X-27033336Y26965740D01*
X-27733336Y26632407D02*
X-27733336Y27099074D01*
X-27733336Y27332407D02*
X-27700003Y27299074D01*
X-27700003Y27299074D02*
X-27733336Y27265740D01*
X-27733336Y27265740D02*
X-27766669Y27299074D01*
X-27766669Y27299074D02*
X-27733336Y27332407D01*
X-27733336Y27332407D02*
X-27733336Y27265740D01*
X-28066669Y27099074D02*
X-28066669Y26632407D01*
X-28066669Y27032407D02*
X-28100002Y27065740D01*
X-28100002Y27065740D02*
X-28166669Y27099074D01*
X-28166669Y27099074D02*
X-28266669Y27099074D01*
X-28266669Y27099074D02*
X-28333336Y27065740D01*
X-28333336Y27065740D02*
X-28366669Y26999074D01*
X-28366669Y26999074D02*
X-28366669Y26632407D01*
X-29600002Y26632407D02*
X-29200002Y26632407D01*
X-29400002Y26632407D02*
X-29400002Y27332407D01*
X-29400002Y27332407D02*
X-29333335Y27232407D01*
X-29333335Y27232407D02*
X-29266668Y27165740D01*
X-29266668Y27165740D02*
X-29200002Y27132407D01*
X-29900002Y26699074D02*
X-29933335Y26665740D01*
X-29933335Y26665740D02*
X-29900002Y26632407D01*
X-29900002Y26632407D02*
X-29866669Y26665740D01*
X-29866669Y26665740D02*
X-29900002Y26699074D01*
X-29900002Y26699074D02*
X-29900002Y26632407D01*
X-29900002Y27065740D02*
X-29933335Y27032407D01*
X-29933335Y27032407D02*
X-29900002Y26999074D01*
X-29900002Y26999074D02*
X-29866669Y27032407D01*
X-29866669Y27032407D02*
X-29900002Y27065740D01*
X-29900002Y27065740D02*
X-29900002Y26999074D01*
X-30666668Y27332407D02*
X-30900001Y26632407D01*
X-30900001Y26632407D02*
X-31133335Y27332407D01*
X-31266668Y27332407D02*
X-31666668Y27332407D01*
X-31466668Y26632407D02*
X-31466668Y27332407D01*
X-31900001Y26632407D02*
X-31900001Y27099074D01*
X-31900001Y26965740D02*
X-31933334Y27032407D01*
X-31933334Y27032407D02*
X-31966668Y27065740D01*
X-31966668Y27065740D02*
X-32033334Y27099074D01*
X-32033334Y27099074D02*
X-32100001Y27099074D01*
X-32600001Y26665740D02*
X-32533334Y26632407D01*
X-32533334Y26632407D02*
X-32400001Y26632407D01*
X-32400001Y26632407D02*
X-32333334Y26665740D01*
X-32333334Y26665740D02*
X-32300001Y26732407D01*
X-32300001Y26732407D02*
X-32300001Y26999074D01*
X-32300001Y26999074D02*
X-32333334Y27065740D01*
X-32333334Y27065740D02*
X-32400001Y27099074D01*
X-32400001Y27099074D02*
X-32533334Y27099074D01*
X-32533334Y27099074D02*
X-32600001Y27065740D01*
X-32600001Y27065740D02*
X-32633334Y26999074D01*
X-32633334Y26999074D02*
X-32633334Y26932407D01*
X-32633334Y26932407D02*
X-32300001Y26865740D01*
X-32833334Y27099074D02*
X-33100001Y27099074D01*
X-32933334Y26632407D02*
X-32933334Y27232407D01*
X-32933334Y27232407D02*
X-32966667Y27299074D01*
X-32966667Y27299074D02*
X-33033334Y27332407D01*
X-33033334Y27332407D02*
X-33100001Y27332407D01*
X-35466666Y26632407D02*
X-35466666Y27332407D01*
X-35466666Y27332407D02*
X-35733333Y27332407D01*
X-35733333Y27332407D02*
X-35799999Y27299074D01*
X-35799999Y27299074D02*
X-35833333Y27265740D01*
X-35833333Y27265740D02*
X-35866666Y27199074D01*
X-35866666Y27199074D02*
X-35866666Y27099074D01*
X-35866666Y27099074D02*
X-35833333Y27032407D01*
X-35833333Y27032407D02*
X-35799999Y26999074D01*
X-35799999Y26999074D02*
X-35733333Y26965740D01*
X-35733333Y26965740D02*
X-35466666Y26965740D01*
X-36166666Y26632407D02*
X-36166666Y27099074D01*
X-36166666Y27332407D02*
X-36133333Y27299074D01*
X-36133333Y27299074D02*
X-36166666Y27265740D01*
X-36166666Y27265740D02*
X-36199999Y27299074D01*
X-36199999Y27299074D02*
X-36166666Y27332407D01*
X-36166666Y27332407D02*
X-36166666Y27265740D01*
X-36499999Y27099074D02*
X-36499999Y26632407D01*
X-36499999Y27032407D02*
X-36533332Y27065740D01*
X-36533332Y27065740D02*
X-36599999Y27099074D01*
X-36599999Y27099074D02*
X-36699999Y27099074D01*
X-36699999Y27099074D02*
X-36766666Y27065740D01*
X-36766666Y27065740D02*
X-36799999Y26999074D01*
X-36799999Y26999074D02*
X-36799999Y26632407D01*
X-37633332Y27265740D02*
X-37666665Y27299074D01*
X-37666665Y27299074D02*
X-37733332Y27332407D01*
X-37733332Y27332407D02*
X-37899998Y27332407D01*
X-37899998Y27332407D02*
X-37966665Y27299074D01*
X-37966665Y27299074D02*
X-37999998Y27265740D01*
X-37999998Y27265740D02*
X-38033332Y27199074D01*
X-38033332Y27199074D02*
X-38033332Y27132407D01*
X-38033332Y27132407D02*
X-37999998Y27032407D01*
X-37999998Y27032407D02*
X-37599998Y26632407D01*
X-37599998Y26632407D02*
X-38033332Y26632407D01*
X-38333332Y26699074D02*
X-38366665Y26665740D01*
X-38366665Y26665740D02*
X-38333332Y26632407D01*
X-38333332Y26632407D02*
X-38299999Y26665740D01*
X-38299999Y26665740D02*
X-38333332Y26699074D01*
X-38333332Y26699074D02*
X-38333332Y26632407D01*
X-38333332Y27065740D02*
X-38366665Y27032407D01*
X-38366665Y27032407D02*
X-38333332Y26999074D01*
X-38333332Y26999074D02*
X-38299999Y27032407D01*
X-38299999Y27032407D02*
X-38333332Y27065740D01*
X-38333332Y27065740D02*
X-38333332Y26999074D01*
X-39099998Y27332407D02*
X-39499998Y27332407D01*
X-39299998Y26632407D02*
X-39299998Y27332407D01*
X-39733331Y26632407D02*
X-39733331Y27332407D01*
X-39733331Y27332407D02*
X-39966664Y26832407D01*
X-39966664Y26832407D02*
X-40199998Y27332407D01*
X-40199998Y27332407D02*
X-40199998Y26632407D01*
X-40499998Y26665740D02*
X-40599998Y26632407D01*
X-40599998Y26632407D02*
X-40766664Y26632407D01*
X-40766664Y26632407D02*
X-40833331Y26665740D01*
X-40833331Y26665740D02*
X-40866664Y26699074D01*
X-40866664Y26699074D02*
X-40899998Y26765740D01*
X-40899998Y26765740D02*
X-40899998Y26832407D01*
X-40899998Y26832407D02*
X-40866664Y26899074D01*
X-40866664Y26899074D02*
X-40833331Y26932407D01*
X-40833331Y26932407D02*
X-40766664Y26965740D01*
X-40766664Y26965740D02*
X-40633331Y26999074D01*
X-40633331Y26999074D02*
X-40566664Y27032407D01*
X-40566664Y27032407D02*
X-40533331Y27065740D01*
X-40533331Y27065740D02*
X-40499998Y27132407D01*
X-40499998Y27132407D02*
X-40499998Y27199074D01*
X-40499998Y27199074D02*
X-40533331Y27265740D01*
X-40533331Y27265740D02*
X-40566664Y27299074D01*
X-40566664Y27299074D02*
X-40633331Y27332407D01*
X-40633331Y27332407D02*
X-40799998Y27332407D01*
X-40799998Y27332407D02*
X-40899998Y27299074D01*
X-41699998Y27365740D02*
X-41099998Y26465740D01*
X-41899998Y26665740D02*
X-41999998Y26632407D01*
X-41999998Y26632407D02*
X-42166664Y26632407D01*
X-42166664Y26632407D02*
X-42233331Y26665740D01*
X-42233331Y26665740D02*
X-42266664Y26699074D01*
X-42266664Y26699074D02*
X-42299998Y26765740D01*
X-42299998Y26765740D02*
X-42299998Y26832407D01*
X-42299998Y26832407D02*
X-42266664Y26899074D01*
X-42266664Y26899074D02*
X-42233331Y26932407D01*
X-42233331Y26932407D02*
X-42166664Y26965740D01*
X-42166664Y26965740D02*
X-42033331Y26999074D01*
X-42033331Y26999074D02*
X-41966664Y27032407D01*
X-41966664Y27032407D02*
X-41933331Y27065740D01*
X-41933331Y27065740D02*
X-41899998Y27132407D01*
X-41899998Y27132407D02*
X-41899998Y27199074D01*
X-41899998Y27199074D02*
X-41933331Y27265740D01*
X-41933331Y27265740D02*
X-41966664Y27299074D01*
X-41966664Y27299074D02*
X-42033331Y27332407D01*
X-42033331Y27332407D02*
X-42199998Y27332407D01*
X-42199998Y27332407D02*
X-42299998Y27299074D01*
X-42533331Y27332407D02*
X-42699998Y26632407D01*
X-42699998Y26632407D02*
X-42833331Y27132407D01*
X-42833331Y27132407D02*
X-42966665Y26632407D01*
X-42966665Y26632407D02*
X-43133331Y27332407D01*
X-43399998Y26632407D02*
X-43399998Y27332407D01*
X-43399998Y27332407D02*
X-43566665Y27332407D01*
X-43566665Y27332407D02*
X-43666665Y27299074D01*
X-43666665Y27299074D02*
X-43733331Y27232407D01*
X-43733331Y27232407D02*
X-43766665Y27165740D01*
X-43766665Y27165740D02*
X-43799998Y27032407D01*
X-43799998Y27032407D02*
X-43799998Y26932407D01*
X-43799998Y26932407D02*
X-43766665Y26799074D01*
X-43766665Y26799074D02*
X-43733331Y26732407D01*
X-43733331Y26732407D02*
X-43666665Y26665740D01*
X-43666665Y26665740D02*
X-43566665Y26632407D01*
X-43566665Y26632407D02*
X-43399998Y26632407D01*
X-44099998Y26632407D02*
X-44099998Y27332407D01*
X-44566664Y27332407D02*
X-44699998Y27332407D01*
X-44699998Y27332407D02*
X-44766664Y27299074D01*
X-44766664Y27299074D02*
X-44833331Y27232407D01*
X-44833331Y27232407D02*
X-44866664Y27099074D01*
X-44866664Y27099074D02*
X-44866664Y26865740D01*
X-44866664Y26865740D02*
X-44833331Y26732407D01*
X-44833331Y26732407D02*
X-44766664Y26665740D01*
X-44766664Y26665740D02*
X-44699998Y26632407D01*
X-44699998Y26632407D02*
X-44566664Y26632407D01*
X-44566664Y26632407D02*
X-44499998Y26665740D01*
X-44499998Y26665740D02*
X-44433331Y26732407D01*
X-44433331Y26732407D02*
X-44399998Y26865740D01*
X-44399998Y26865740D02*
X-44399998Y27099074D01*
X-44399998Y27099074D02*
X-44433331Y27232407D01*
X-44433331Y27232407D02*
X-44499998Y27299074D01*
X-44499998Y27299074D02*
X-44566664Y27332407D01*
X-27033336Y21432407D02*
X-27033336Y22132407D01*
X-27033336Y22132407D02*
X-27300003Y22132407D01*
X-27300003Y22132407D02*
X-27366669Y22099074D01*
X-27366669Y22099074D02*
X-27400003Y22065740D01*
X-27400003Y22065740D02*
X-27433336Y21999074D01*
X-27433336Y21999074D02*
X-27433336Y21899074D01*
X-27433336Y21899074D02*
X-27400003Y21832407D01*
X-27400003Y21832407D02*
X-27366669Y21799074D01*
X-27366669Y21799074D02*
X-27300003Y21765740D01*
X-27300003Y21765740D02*
X-27033336Y21765740D01*
X-27733336Y21432407D02*
X-27733336Y21899074D01*
X-27733336Y22132407D02*
X-27700003Y22099074D01*
X-27700003Y22099074D02*
X-27733336Y22065740D01*
X-27733336Y22065740D02*
X-27766669Y22099074D01*
X-27766669Y22099074D02*
X-27733336Y22132407D01*
X-27733336Y22132407D02*
X-27733336Y22065740D01*
X-28066669Y21899074D02*
X-28066669Y21432407D01*
X-28066669Y21832407D02*
X-28100002Y21865740D01*
X-28100002Y21865740D02*
X-28166669Y21899074D01*
X-28166669Y21899074D02*
X-28266669Y21899074D01*
X-28266669Y21899074D02*
X-28333336Y21865740D01*
X-28333336Y21865740D02*
X-28366669Y21799074D01*
X-28366669Y21799074D02*
X-28366669Y21432407D01*
X-29266668Y21432407D02*
X-29400002Y21432407D01*
X-29400002Y21432407D02*
X-29466668Y21465740D01*
X-29466668Y21465740D02*
X-29500002Y21499074D01*
X-29500002Y21499074D02*
X-29566668Y21599074D01*
X-29566668Y21599074D02*
X-29600002Y21732407D01*
X-29600002Y21732407D02*
X-29600002Y21999074D01*
X-29600002Y21999074D02*
X-29566668Y22065740D01*
X-29566668Y22065740D02*
X-29533335Y22099074D01*
X-29533335Y22099074D02*
X-29466668Y22132407D01*
X-29466668Y22132407D02*
X-29333335Y22132407D01*
X-29333335Y22132407D02*
X-29266668Y22099074D01*
X-29266668Y22099074D02*
X-29233335Y22065740D01*
X-29233335Y22065740D02*
X-29200002Y21999074D01*
X-29200002Y21999074D02*
X-29200002Y21832407D01*
X-29200002Y21832407D02*
X-29233335Y21765740D01*
X-29233335Y21765740D02*
X-29266668Y21732407D01*
X-29266668Y21732407D02*
X-29333335Y21699074D01*
X-29333335Y21699074D02*
X-29466668Y21699074D01*
X-29466668Y21699074D02*
X-29533335Y21732407D01*
X-29533335Y21732407D02*
X-29566668Y21765740D01*
X-29566668Y21765740D02*
X-29600002Y21832407D01*
X-29900002Y21499074D02*
X-29933335Y21465740D01*
X-29933335Y21465740D02*
X-29900002Y21432407D01*
X-29900002Y21432407D02*
X-29866669Y21465740D01*
X-29866669Y21465740D02*
X-29900002Y21499074D01*
X-29900002Y21499074D02*
X-29900002Y21432407D01*
X-29900002Y21865740D02*
X-29933335Y21832407D01*
X-29933335Y21832407D02*
X-29900002Y21799074D01*
X-29900002Y21799074D02*
X-29866669Y21832407D01*
X-29866669Y21832407D02*
X-29900002Y21865740D01*
X-29900002Y21865740D02*
X-29900002Y21799074D01*
X-30666668Y22132407D02*
X-30900001Y21432407D01*
X-30900001Y21432407D02*
X-31133335Y22132407D01*
X-31266668Y22132407D02*
X-31666668Y22132407D01*
X-31466668Y21432407D02*
X-31466668Y22132407D01*
X-32200001Y21432407D02*
X-32200001Y21799074D01*
X-32200001Y21799074D02*
X-32166668Y21865740D01*
X-32166668Y21865740D02*
X-32100001Y21899074D01*
X-32100001Y21899074D02*
X-31966668Y21899074D01*
X-31966668Y21899074D02*
X-31900001Y21865740D01*
X-32200001Y21465740D02*
X-32133334Y21432407D01*
X-32133334Y21432407D02*
X-31966668Y21432407D01*
X-31966668Y21432407D02*
X-31900001Y21465740D01*
X-31900001Y21465740D02*
X-31866668Y21532407D01*
X-31866668Y21532407D02*
X-31866668Y21599074D01*
X-31866668Y21599074D02*
X-31900001Y21665740D01*
X-31900001Y21665740D02*
X-31966668Y21699074D01*
X-31966668Y21699074D02*
X-32133334Y21699074D01*
X-32133334Y21699074D02*
X-32200001Y21732407D01*
X-32533334Y21432407D02*
X-32533334Y21899074D01*
X-32533334Y21765740D02*
X-32566667Y21832407D01*
X-32566667Y21832407D02*
X-32600001Y21865740D01*
X-32600001Y21865740D02*
X-32666667Y21899074D01*
X-32666667Y21899074D02*
X-32733334Y21899074D01*
X-33266667Y21899074D02*
X-33266667Y21332407D01*
X-33266667Y21332407D02*
X-33233334Y21265740D01*
X-33233334Y21265740D02*
X-33200000Y21232407D01*
X-33200000Y21232407D02*
X-33133334Y21199074D01*
X-33133334Y21199074D02*
X-33033334Y21199074D01*
X-33033334Y21199074D02*
X-32966667Y21232407D01*
X-33266667Y21465740D02*
X-33200000Y21432407D01*
X-33200000Y21432407D02*
X-33066667Y21432407D01*
X-33066667Y21432407D02*
X-33000000Y21465740D01*
X-33000000Y21465740D02*
X-32966667Y21499074D01*
X-32966667Y21499074D02*
X-32933334Y21565740D01*
X-32933334Y21565740D02*
X-32933334Y21765740D01*
X-32933334Y21765740D02*
X-32966667Y21832407D01*
X-32966667Y21832407D02*
X-33000000Y21865740D01*
X-33000000Y21865740D02*
X-33066667Y21899074D01*
X-33066667Y21899074D02*
X-33200000Y21899074D01*
X-33200000Y21899074D02*
X-33266667Y21865740D01*
X-33866667Y21465740D02*
X-33800000Y21432407D01*
X-33800000Y21432407D02*
X-33666667Y21432407D01*
X-33666667Y21432407D02*
X-33600000Y21465740D01*
X-33600000Y21465740D02*
X-33566667Y21532407D01*
X-33566667Y21532407D02*
X-33566667Y21799074D01*
X-33566667Y21799074D02*
X-33600000Y21865740D01*
X-33600000Y21865740D02*
X-33666667Y21899074D01*
X-33666667Y21899074D02*
X-33800000Y21899074D01*
X-33800000Y21899074D02*
X-33866667Y21865740D01*
X-33866667Y21865740D02*
X-33900000Y21799074D01*
X-33900000Y21799074D02*
X-33900000Y21732407D01*
X-33900000Y21732407D02*
X-33566667Y21665740D01*
X-34100000Y21899074D02*
X-34366667Y21899074D01*
X-34200000Y22132407D02*
X-34200000Y21532407D01*
X-34200000Y21532407D02*
X-34233333Y21465740D01*
X-34233333Y21465740D02*
X-34300000Y21432407D01*
X-34300000Y21432407D02*
X-34366667Y21432407D01*
X-35666666Y21432407D02*
X-35666666Y22132407D01*
X-35666666Y22132407D02*
X-35933333Y22132407D01*
X-35933333Y22132407D02*
X-35999999Y22099074D01*
X-35999999Y22099074D02*
X-36033333Y22065740D01*
X-36033333Y22065740D02*
X-36066666Y21999074D01*
X-36066666Y21999074D02*
X-36066666Y21899074D01*
X-36066666Y21899074D02*
X-36033333Y21832407D01*
X-36033333Y21832407D02*
X-35999999Y21799074D01*
X-35999999Y21799074D02*
X-35933333Y21765740D01*
X-35933333Y21765740D02*
X-35666666Y21765740D01*
X-36366666Y21432407D02*
X-36366666Y21899074D01*
X-36366666Y22132407D02*
X-36333333Y22099074D01*
X-36333333Y22099074D02*
X-36366666Y22065740D01*
X-36366666Y22065740D02*
X-36399999Y22099074D01*
X-36399999Y22099074D02*
X-36366666Y22132407D01*
X-36366666Y22132407D02*
X-36366666Y22065740D01*
X-36699999Y21899074D02*
X-36699999Y21432407D01*
X-36699999Y21832407D02*
X-36733332Y21865740D01*
X-36733332Y21865740D02*
X-36799999Y21899074D01*
X-36799999Y21899074D02*
X-36899999Y21899074D01*
X-36899999Y21899074D02*
X-36966666Y21865740D01*
X-36966666Y21865740D02*
X-36999999Y21799074D01*
X-36999999Y21799074D02*
X-36999999Y21432407D01*
X-38233332Y21432407D02*
X-37833332Y21432407D01*
X-38033332Y21432407D02*
X-38033332Y22132407D01*
X-38033332Y22132407D02*
X-37966665Y22032407D01*
X-37966665Y22032407D02*
X-37899998Y21965740D01*
X-37899998Y21965740D02*
X-37833332Y21932407D01*
X-38666665Y22132407D02*
X-38733332Y22132407D01*
X-38733332Y22132407D02*
X-38799999Y22099074D01*
X-38799999Y22099074D02*
X-38833332Y22065740D01*
X-38833332Y22065740D02*
X-38866665Y21999074D01*
X-38866665Y21999074D02*
X-38899999Y21865740D01*
X-38899999Y21865740D02*
X-38899999Y21699074D01*
X-38899999Y21699074D02*
X-38866665Y21565740D01*
X-38866665Y21565740D02*
X-38833332Y21499074D01*
X-38833332Y21499074D02*
X-38799999Y21465740D01*
X-38799999Y21465740D02*
X-38733332Y21432407D01*
X-38733332Y21432407D02*
X-38666665Y21432407D01*
X-38666665Y21432407D02*
X-38599999Y21465740D01*
X-38599999Y21465740D02*
X-38566665Y21499074D01*
X-38566665Y21499074D02*
X-38533332Y21565740D01*
X-38533332Y21565740D02*
X-38499999Y21699074D01*
X-38499999Y21699074D02*
X-38499999Y21865740D01*
X-38499999Y21865740D02*
X-38533332Y21999074D01*
X-38533332Y21999074D02*
X-38566665Y22065740D01*
X-38566665Y22065740D02*
X-38599999Y22099074D01*
X-38599999Y22099074D02*
X-38666665Y22132407D01*
X-39199999Y21499074D02*
X-39233332Y21465740D01*
X-39233332Y21465740D02*
X-39199999Y21432407D01*
X-39199999Y21432407D02*
X-39166666Y21465740D01*
X-39166666Y21465740D02*
X-39199999Y21499074D01*
X-39199999Y21499074D02*
X-39199999Y21432407D01*
X-39199999Y21865740D02*
X-39233332Y21832407D01*
X-39233332Y21832407D02*
X-39199999Y21799074D01*
X-39199999Y21799074D02*
X-39166666Y21832407D01*
X-39166666Y21832407D02*
X-39199999Y21865740D01*
X-39199999Y21865740D02*
X-39199999Y21799074D01*
X-40066665Y21899074D02*
X-40066665Y21432407D01*
X-40066665Y21832407D02*
X-40099998Y21865740D01*
X-40099998Y21865740D02*
X-40166665Y21899074D01*
X-40166665Y21899074D02*
X-40266665Y21899074D01*
X-40266665Y21899074D02*
X-40333332Y21865740D01*
X-40333332Y21865740D02*
X-40366665Y21799074D01*
X-40366665Y21799074D02*
X-40366665Y21432407D01*
X-41099998Y21432407D02*
X-40866665Y21765740D01*
X-40699998Y21432407D02*
X-40699998Y22132407D01*
X-40699998Y22132407D02*
X-40966665Y22132407D01*
X-40966665Y22132407D02*
X-41033331Y22099074D01*
X-41033331Y22099074D02*
X-41066665Y22065740D01*
X-41066665Y22065740D02*
X-41099998Y21999074D01*
X-41099998Y21999074D02*
X-41099998Y21899074D01*
X-41099998Y21899074D02*
X-41066665Y21832407D01*
X-41066665Y21832407D02*
X-41033331Y21799074D01*
X-41033331Y21799074D02*
X-40966665Y21765740D01*
X-40966665Y21765740D02*
X-40699998Y21765740D01*
X-41366665Y21465740D02*
X-41466665Y21432407D01*
X-41466665Y21432407D02*
X-41633331Y21432407D01*
X-41633331Y21432407D02*
X-41699998Y21465740D01*
X-41699998Y21465740D02*
X-41733331Y21499074D01*
X-41733331Y21499074D02*
X-41766665Y21565740D01*
X-41766665Y21565740D02*
X-41766665Y21632407D01*
X-41766665Y21632407D02*
X-41733331Y21699074D01*
X-41733331Y21699074D02*
X-41699998Y21732407D01*
X-41699998Y21732407D02*
X-41633331Y21765740D01*
X-41633331Y21765740D02*
X-41499998Y21799074D01*
X-41499998Y21799074D02*
X-41433331Y21832407D01*
X-41433331Y21832407D02*
X-41399998Y21865740D01*
X-41399998Y21865740D02*
X-41366665Y21932407D01*
X-41366665Y21932407D02*
X-41366665Y21999074D01*
X-41366665Y21999074D02*
X-41399998Y22065740D01*
X-41399998Y22065740D02*
X-41433331Y22099074D01*
X-41433331Y22099074D02*
X-41499998Y22132407D01*
X-41499998Y22132407D02*
X-41666665Y22132407D01*
X-41666665Y22132407D02*
X-41766665Y22099074D01*
X-41966665Y22132407D02*
X-42366665Y22132407D01*
X-42166665Y21432407D02*
X-42166665Y22132407D01*
X-44633336Y18582407D02*
X-44233336Y18582407D01*
X-44433336Y18582407D02*
X-44433336Y19282407D01*
X-44433336Y19282407D02*
X-44366669Y19182407D01*
X-44366669Y19182407D02*
X-44300002Y19115740D01*
X-44300002Y19115740D02*
X-44233336Y19082407D01*
X-44933336Y18649074D02*
X-44966669Y18615740D01*
X-44966669Y18615740D02*
X-44933336Y18582407D01*
X-44933336Y18582407D02*
X-44900003Y18615740D01*
X-44900003Y18615740D02*
X-44933336Y18649074D01*
X-44933336Y18649074D02*
X-44933336Y18582407D01*
X-44933336Y19015740D02*
X-44966669Y18982407D01*
X-44966669Y18982407D02*
X-44933336Y18949074D01*
X-44933336Y18949074D02*
X-44900003Y18982407D01*
X-44900003Y18982407D02*
X-44933336Y19015740D01*
X-44933336Y19015740D02*
X-44933336Y18949074D01*
X-45166669Y19282407D02*
X-45400002Y18582407D01*
X-45400002Y18582407D02*
X-45633336Y19282407D01*
X-45766669Y19282407D02*
X-46166669Y19282407D01*
X-45966669Y18582407D02*
X-45966669Y19282407D01*
X-46400002Y18582407D02*
X-46400002Y19049074D01*
X-46400002Y18915740D02*
X-46433335Y18982407D01*
X-46433335Y18982407D02*
X-46466669Y19015740D01*
X-46466669Y19015740D02*
X-46533335Y19049074D01*
X-46533335Y19049074D02*
X-46600002Y19049074D01*
X-47100002Y18615740D02*
X-47033335Y18582407D01*
X-47033335Y18582407D02*
X-46900002Y18582407D01*
X-46900002Y18582407D02*
X-46833335Y18615740D01*
X-46833335Y18615740D02*
X-46800002Y18682407D01*
X-46800002Y18682407D02*
X-46800002Y18949074D01*
X-46800002Y18949074D02*
X-46833335Y19015740D01*
X-46833335Y19015740D02*
X-46900002Y19049074D01*
X-46900002Y19049074D02*
X-47033335Y19049074D01*
X-47033335Y19049074D02*
X-47100002Y19015740D01*
X-47100002Y19015740D02*
X-47133335Y18949074D01*
X-47133335Y18949074D02*
X-47133335Y18882407D01*
X-47133335Y18882407D02*
X-46800002Y18815740D01*
X-47333335Y19049074D02*
X-47600002Y19049074D01*
X-47433335Y18582407D02*
X-47433335Y19182407D01*
X-47433335Y19182407D02*
X-47466668Y19249074D01*
X-47466668Y19249074D02*
X-47533335Y19282407D01*
X-47533335Y19282407D02*
X-47600002Y19282407D01*
X-48333335Y19215740D02*
X-48366668Y19249074D01*
X-48366668Y19249074D02*
X-48433335Y19282407D01*
X-48433335Y19282407D02*
X-48600001Y19282407D01*
X-48600001Y19282407D02*
X-48666668Y19249074D01*
X-48666668Y19249074D02*
X-48700001Y19215740D01*
X-48700001Y19215740D02*
X-48733335Y19149074D01*
X-48733335Y19149074D02*
X-48733335Y19082407D01*
X-48733335Y19082407D02*
X-48700001Y18982407D01*
X-48700001Y18982407D02*
X-48300001Y18582407D01*
X-48300001Y18582407D02*
X-48733335Y18582407D01*
X-49033335Y18649074D02*
X-49066668Y18615740D01*
X-49066668Y18615740D02*
X-49033335Y18582407D01*
X-49033335Y18582407D02*
X-49000002Y18615740D01*
X-49000002Y18615740D02*
X-49033335Y18649074D01*
X-49033335Y18649074D02*
X-49033335Y18582407D01*
X-49033335Y19015740D02*
X-49066668Y18982407D01*
X-49066668Y18982407D02*
X-49033335Y18949074D01*
X-49033335Y18949074D02*
X-49000002Y18982407D01*
X-49000002Y18982407D02*
X-49033335Y19015740D01*
X-49033335Y19015740D02*
X-49033335Y18949074D01*
X-49266668Y19282407D02*
X-49500001Y18582407D01*
X-49500001Y18582407D02*
X-49733335Y19282407D01*
X-49866668Y19282407D02*
X-50266668Y19282407D01*
X-50066668Y18582407D02*
X-50066668Y19282407D01*
X-50500001Y18582407D02*
X-50500001Y19049074D01*
X-50500001Y18915740D02*
X-50533334Y18982407D01*
X-50533334Y18982407D02*
X-50566668Y19015740D01*
X-50566668Y19015740D02*
X-50633334Y19049074D01*
X-50633334Y19049074D02*
X-50700001Y19049074D01*
X-51200001Y18615740D02*
X-51133334Y18582407D01*
X-51133334Y18582407D02*
X-51000001Y18582407D01*
X-51000001Y18582407D02*
X-50933334Y18615740D01*
X-50933334Y18615740D02*
X-50900001Y18682407D01*
X-50900001Y18682407D02*
X-50900001Y18949074D01*
X-50900001Y18949074D02*
X-50933334Y19015740D01*
X-50933334Y19015740D02*
X-51000001Y19049074D01*
X-51000001Y19049074D02*
X-51133334Y19049074D01*
X-51133334Y19049074D02*
X-51200001Y19015740D01*
X-51200001Y19015740D02*
X-51233334Y18949074D01*
X-51233334Y18949074D02*
X-51233334Y18882407D01*
X-51233334Y18882407D02*
X-50900001Y18815740D01*
X-51433334Y19049074D02*
X-51700001Y19049074D01*
X-51533334Y18582407D02*
X-51533334Y19182407D01*
X-51533334Y19182407D02*
X-51566667Y19249074D01*
X-51566667Y19249074D02*
X-51633334Y19282407D01*
X-51633334Y19282407D02*
X-51700001Y19282407D01*
X-52400000Y19282407D02*
X-52833334Y19282407D01*
X-52833334Y19282407D02*
X-52600000Y19015740D01*
X-52600000Y19015740D02*
X-52700000Y19015740D01*
X-52700000Y19015740D02*
X-52766667Y18982407D01*
X-52766667Y18982407D02*
X-52800000Y18949074D01*
X-52800000Y18949074D02*
X-52833334Y18882407D01*
X-52833334Y18882407D02*
X-52833334Y18715740D01*
X-52833334Y18715740D02*
X-52800000Y18649074D01*
X-52800000Y18649074D02*
X-52766667Y18615740D01*
X-52766667Y18615740D02*
X-52700000Y18582407D01*
X-52700000Y18582407D02*
X-52500000Y18582407D01*
X-52500000Y18582407D02*
X-52433334Y18615740D01*
X-52433334Y18615740D02*
X-52400000Y18649074D01*
X-53133334Y18649074D02*
X-53166667Y18615740D01*
X-53166667Y18615740D02*
X-53133334Y18582407D01*
X-53133334Y18582407D02*
X-53100001Y18615740D01*
X-53100001Y18615740D02*
X-53133334Y18649074D01*
X-53133334Y18649074D02*
X-53133334Y18582407D01*
X-53133334Y19015740D02*
X-53166667Y18982407D01*
X-53166667Y18982407D02*
X-53133334Y18949074D01*
X-53133334Y18949074D02*
X-53100001Y18982407D01*
X-53100001Y18982407D02*
X-53133334Y19015740D01*
X-53133334Y19015740D02*
X-53133334Y18949074D01*
X-53466667Y19049074D02*
X-53466667Y18582407D01*
X-53466667Y18982407D02*
X-53500000Y19015740D01*
X-53500000Y19015740D02*
X-53566667Y19049074D01*
X-53566667Y19049074D02*
X-53666667Y19049074D01*
X-53666667Y19049074D02*
X-53733334Y19015740D01*
X-53733334Y19015740D02*
X-53766667Y18949074D01*
X-53766667Y18949074D02*
X-53766667Y18582407D01*
X-54000000Y19282407D02*
X-54400000Y19282407D01*
X-54200000Y18582407D02*
X-54200000Y19282407D01*
X-55033333Y18582407D02*
X-54800000Y18915740D01*
X-54633333Y18582407D02*
X-54633333Y19282407D01*
X-54633333Y19282407D02*
X-54900000Y19282407D01*
X-54900000Y19282407D02*
X-54966666Y19249074D01*
X-54966666Y19249074D02*
X-55000000Y19215740D01*
X-55000000Y19215740D02*
X-55033333Y19149074D01*
X-55033333Y19149074D02*
X-55033333Y19049074D01*
X-55033333Y19049074D02*
X-55000000Y18982407D01*
X-55000000Y18982407D02*
X-54966666Y18949074D01*
X-54966666Y18949074D02*
X-54900000Y18915740D01*
X-54900000Y18915740D02*
X-54633333Y18915740D01*
X-55300000Y18615740D02*
X-55400000Y18582407D01*
X-55400000Y18582407D02*
X-55566666Y18582407D01*
X-55566666Y18582407D02*
X-55633333Y18615740D01*
X-55633333Y18615740D02*
X-55666666Y18649074D01*
X-55666666Y18649074D02*
X-55700000Y18715740D01*
X-55700000Y18715740D02*
X-55700000Y18782407D01*
X-55700000Y18782407D02*
X-55666666Y18849074D01*
X-55666666Y18849074D02*
X-55633333Y18882407D01*
X-55633333Y18882407D02*
X-55566666Y18915740D01*
X-55566666Y18915740D02*
X-55433333Y18949074D01*
X-55433333Y18949074D02*
X-55366666Y18982407D01*
X-55366666Y18982407D02*
X-55333333Y19015740D01*
X-55333333Y19015740D02*
X-55300000Y19082407D01*
X-55300000Y19082407D02*
X-55300000Y19149074D01*
X-55300000Y19149074D02*
X-55333333Y19215740D01*
X-55333333Y19215740D02*
X-55366666Y19249074D01*
X-55366666Y19249074D02*
X-55433333Y19282407D01*
X-55433333Y19282407D02*
X-55600000Y19282407D01*
X-55600000Y19282407D02*
X-55700000Y19249074D01*
X-55900000Y19282407D02*
X-56300000Y19282407D01*
X-56100000Y18582407D02*
X-56100000Y19282407D01*
X-57366666Y19049074D02*
X-57366666Y18582407D01*
X-57199999Y19315740D02*
X-57033333Y18815740D01*
X-57033333Y18815740D02*
X-57466666Y18815740D01*
X-57733333Y18649074D02*
X-57766666Y18615740D01*
X-57766666Y18615740D02*
X-57733333Y18582407D01*
X-57733333Y18582407D02*
X-57700000Y18615740D01*
X-57700000Y18615740D02*
X-57733333Y18649074D01*
X-57733333Y18649074D02*
X-57733333Y18582407D01*
X-57733333Y19015740D02*
X-57766666Y18982407D01*
X-57766666Y18982407D02*
X-57733333Y18949074D01*
X-57733333Y18949074D02*
X-57700000Y18982407D01*
X-57700000Y18982407D02*
X-57733333Y19015740D01*
X-57733333Y19015740D02*
X-57733333Y18949074D01*
X-58433333Y19249074D02*
X-58366666Y19282407D01*
X-58366666Y19282407D02*
X-58266666Y19282407D01*
X-58266666Y19282407D02*
X-58166666Y19249074D01*
X-58166666Y19249074D02*
X-58099999Y19182407D01*
X-58099999Y19182407D02*
X-58066666Y19115740D01*
X-58066666Y19115740D02*
X-58033333Y18982407D01*
X-58033333Y18982407D02*
X-58033333Y18882407D01*
X-58033333Y18882407D02*
X-58066666Y18749074D01*
X-58066666Y18749074D02*
X-58099999Y18682407D01*
X-58099999Y18682407D02*
X-58166666Y18615740D01*
X-58166666Y18615740D02*
X-58266666Y18582407D01*
X-58266666Y18582407D02*
X-58333333Y18582407D01*
X-58333333Y18582407D02*
X-58433333Y18615740D01*
X-58433333Y18615740D02*
X-58466666Y18649074D01*
X-58466666Y18649074D02*
X-58466666Y18882407D01*
X-58466666Y18882407D02*
X-58333333Y18882407D01*
X-58766666Y18582407D02*
X-58766666Y19282407D01*
X-58766666Y19282407D02*
X-59166666Y18582407D01*
X-59166666Y18582407D02*
X-59166666Y19282407D01*
X-59499999Y18582407D02*
X-59499999Y19282407D01*
X-59499999Y19282407D02*
X-59666666Y19282407D01*
X-59666666Y19282407D02*
X-59766666Y19249074D01*
X-59766666Y19249074D02*
X-59833332Y19182407D01*
X-59833332Y19182407D02*
X-59866666Y19115740D01*
X-59866666Y19115740D02*
X-59899999Y18982407D01*
X-59899999Y18982407D02*
X-59899999Y18882407D01*
X-59899999Y18882407D02*
X-59866666Y18749074D01*
X-59866666Y18749074D02*
X-59833332Y18682407D01*
X-59833332Y18682407D02*
X-59766666Y18615740D01*
X-59766666Y18615740D02*
X-59666666Y18582407D01*
X-59666666Y18582407D02*
X-59499999Y18582407D01*
X-61066665Y19282407D02*
X-60733332Y19282407D01*
X-60733332Y19282407D02*
X-60699999Y18949074D01*
X-60699999Y18949074D02*
X-60733332Y18982407D01*
X-60733332Y18982407D02*
X-60799999Y19015740D01*
X-60799999Y19015740D02*
X-60966665Y19015740D01*
X-60966665Y19015740D02*
X-61033332Y18982407D01*
X-61033332Y18982407D02*
X-61066665Y18949074D01*
X-61066665Y18949074D02*
X-61099999Y18882407D01*
X-61099999Y18882407D02*
X-61099999Y18715740D01*
X-61099999Y18715740D02*
X-61066665Y18649074D01*
X-61066665Y18649074D02*
X-61033332Y18615740D01*
X-61033332Y18615740D02*
X-60966665Y18582407D01*
X-60966665Y18582407D02*
X-60799999Y18582407D01*
X-60799999Y18582407D02*
X-60733332Y18615740D01*
X-60733332Y18615740D02*
X-60699999Y18649074D01*
X-61399999Y18649074D02*
X-61433332Y18615740D01*
X-61433332Y18615740D02*
X-61399999Y18582407D01*
X-61399999Y18582407D02*
X-61366666Y18615740D01*
X-61366666Y18615740D02*
X-61399999Y18649074D01*
X-61399999Y18649074D02*
X-61399999Y18582407D01*
X-61399999Y19015740D02*
X-61433332Y18982407D01*
X-61433332Y18982407D02*
X-61399999Y18949074D01*
X-61399999Y18949074D02*
X-61366666Y18982407D01*
X-61366666Y18982407D02*
X-61399999Y19015740D01*
X-61399999Y19015740D02*
X-61399999Y18949074D01*
X-61633332Y19282407D02*
X-62033332Y19282407D01*
X-61833332Y18582407D02*
X-61833332Y19282407D01*
X-62266665Y18582407D02*
X-62266665Y19282407D01*
X-62266665Y19282407D02*
X-62433332Y19282407D01*
X-62433332Y19282407D02*
X-62533332Y19249074D01*
X-62533332Y19249074D02*
X-62599998Y19182407D01*
X-62599998Y19182407D02*
X-62633332Y19115740D01*
X-62633332Y19115740D02*
X-62666665Y18982407D01*
X-62666665Y18982407D02*
X-62666665Y18882407D01*
X-62666665Y18882407D02*
X-62633332Y18749074D01*
X-62633332Y18749074D02*
X-62599998Y18682407D01*
X-62599998Y18682407D02*
X-62533332Y18615740D01*
X-62533332Y18615740D02*
X-62433332Y18582407D01*
X-62433332Y18582407D02*
X-62266665Y18582407D01*
X-62966665Y18582407D02*
X-62966665Y19282407D01*
X-64133331Y19282407D02*
X-63999998Y19282407D01*
X-63999998Y19282407D02*
X-63933331Y19249074D01*
X-63933331Y19249074D02*
X-63899998Y19215740D01*
X-63899998Y19215740D02*
X-63833331Y19115740D01*
X-63833331Y19115740D02*
X-63799998Y18982407D01*
X-63799998Y18982407D02*
X-63799998Y18715740D01*
X-63799998Y18715740D02*
X-63833331Y18649074D01*
X-63833331Y18649074D02*
X-63866664Y18615740D01*
X-63866664Y18615740D02*
X-63933331Y18582407D01*
X-63933331Y18582407D02*
X-64066664Y18582407D01*
X-64066664Y18582407D02*
X-64133331Y18615740D01*
X-64133331Y18615740D02*
X-64166664Y18649074D01*
X-64166664Y18649074D02*
X-64199998Y18715740D01*
X-64199998Y18715740D02*
X-64199998Y18882407D01*
X-64199998Y18882407D02*
X-64166664Y18949074D01*
X-64166664Y18949074D02*
X-64133331Y18982407D01*
X-64133331Y18982407D02*
X-64066664Y19015740D01*
X-64066664Y19015740D02*
X-63933331Y19015740D01*
X-63933331Y19015740D02*
X-63866664Y18982407D01*
X-63866664Y18982407D02*
X-63833331Y18949074D01*
X-63833331Y18949074D02*
X-63799998Y18882407D01*
X-64499998Y18649074D02*
X-64533331Y18615740D01*
X-64533331Y18615740D02*
X-64499998Y18582407D01*
X-64499998Y18582407D02*
X-64466665Y18615740D01*
X-64466665Y18615740D02*
X-64499998Y18649074D01*
X-64499998Y18649074D02*
X-64499998Y18582407D01*
X-64499998Y19015740D02*
X-64533331Y18982407D01*
X-64533331Y18982407D02*
X-64499998Y18949074D01*
X-64499998Y18949074D02*
X-64466665Y18982407D01*
X-64466665Y18982407D02*
X-64499998Y19015740D01*
X-64499998Y19015740D02*
X-64499998Y18949074D01*
X-65199998Y19249074D02*
X-65133331Y19282407D01*
X-65133331Y19282407D02*
X-65033331Y19282407D01*
X-65033331Y19282407D02*
X-64933331Y19249074D01*
X-64933331Y19249074D02*
X-64866664Y19182407D01*
X-64866664Y19182407D02*
X-64833331Y19115740D01*
X-64833331Y19115740D02*
X-64799998Y18982407D01*
X-64799998Y18982407D02*
X-64799998Y18882407D01*
X-64799998Y18882407D02*
X-64833331Y18749074D01*
X-64833331Y18749074D02*
X-64866664Y18682407D01*
X-64866664Y18682407D02*
X-64933331Y18615740D01*
X-64933331Y18615740D02*
X-65033331Y18582407D01*
X-65033331Y18582407D02*
X-65099998Y18582407D01*
X-65099998Y18582407D02*
X-65199998Y18615740D01*
X-65199998Y18615740D02*
X-65233331Y18649074D01*
X-65233331Y18649074D02*
X-65233331Y18882407D01*
X-65233331Y18882407D02*
X-65099998Y18882407D01*
X-65533331Y18582407D02*
X-65533331Y19282407D01*
X-65533331Y19282407D02*
X-65933331Y18582407D01*
X-65933331Y18582407D02*
X-65933331Y19282407D01*
X-66266664Y18582407D02*
X-66266664Y19282407D01*
X-66266664Y19282407D02*
X-66433331Y19282407D01*
X-66433331Y19282407D02*
X-66533331Y19249074D01*
X-66533331Y19249074D02*
X-66599997Y19182407D01*
X-66599997Y19182407D02*
X-66633331Y19115740D01*
X-66633331Y19115740D02*
X-66666664Y18982407D01*
X-66666664Y18982407D02*
X-66666664Y18882407D01*
X-66666664Y18882407D02*
X-66633331Y18749074D01*
X-66633331Y18749074D02*
X-66599997Y18682407D01*
X-66599997Y18682407D02*
X-66533331Y18615740D01*
X-66533331Y18615740D02*
X-66433331Y18582407D01*
X-66433331Y18582407D02*
X-66266664Y18582407D01*
D12*
X-7407011Y11836672D02*
X-7407011Y13336672D01*
X-7407011Y13336672D02*
X-7978440Y13336672D01*
X-7978440Y13336672D02*
X-8121297Y13265243D01*
X-8121297Y13265243D02*
X-8192726Y13193815D01*
X-8192726Y13193815D02*
X-8264154Y13050958D01*
X-8264154Y13050958D02*
X-8264154Y12836672D01*
X-8264154Y12836672D02*
X-8192726Y12693815D01*
X-8192726Y12693815D02*
X-8121297Y12622386D01*
X-8121297Y12622386D02*
X-7978440Y12550958D01*
X-7978440Y12550958D02*
X-7407011Y12550958D01*
X-8907011Y11836672D02*
X-8907011Y12836672D01*
X-8907011Y12550958D02*
X-8978440Y12693815D01*
X-8978440Y12693815D02*
X-9049868Y12765243D01*
X-9049868Y12765243D02*
X-9192726Y12836672D01*
X-9192726Y12836672D02*
X-9335583Y12836672D01*
X-10049868Y11836672D02*
X-9907011Y11908100D01*
X-9907011Y11908100D02*
X-9835582Y11979529D01*
X-9835582Y11979529D02*
X-9764154Y12122386D01*
X-9764154Y12122386D02*
X-9764154Y12550958D01*
X-9764154Y12550958D02*
X-9835582Y12693815D01*
X-9835582Y12693815D02*
X-9907011Y12765243D01*
X-9907011Y12765243D02*
X-10049868Y12836672D01*
X-10049868Y12836672D02*
X-10264154Y12836672D01*
X-10264154Y12836672D02*
X-10407011Y12765243D01*
X-10407011Y12765243D02*
X-10478439Y12693815D01*
X-10478439Y12693815D02*
X-10549868Y12550958D01*
X-10549868Y12550958D02*
X-10549868Y12122386D01*
X-10549868Y12122386D02*
X-10478439Y11979529D01*
X-10478439Y11979529D02*
X-10407011Y11908100D01*
X-10407011Y11908100D02*
X-10264154Y11836672D01*
X-10264154Y11836672D02*
X-10049868Y11836672D01*
X-11192725Y12836672D02*
X-11192725Y11550958D01*
X-11192725Y11550958D02*
X-11121297Y11408100D01*
X-11121297Y11408100D02*
X-10978440Y11336672D01*
X-10978440Y11336672D02*
X-10907011Y11336672D01*
X-11192725Y13336672D02*
X-11121297Y13265243D01*
X-11121297Y13265243D02*
X-11192725Y13193815D01*
X-11192725Y13193815D02*
X-11264154Y13265243D01*
X-11264154Y13265243D02*
X-11192725Y13336672D01*
X-11192725Y13336672D02*
X-11192725Y13193815D01*
X-12478440Y11908100D02*
X-12335583Y11836672D01*
X-12335583Y11836672D02*
X-12049868Y11836672D01*
X-12049868Y11836672D02*
X-11907011Y11908100D01*
X-11907011Y11908100D02*
X-11835583Y12050958D01*
X-11835583Y12050958D02*
X-11835583Y12622386D01*
X-11835583Y12622386D02*
X-11907011Y12765243D01*
X-11907011Y12765243D02*
X-12049868Y12836672D01*
X-12049868Y12836672D02*
X-12335583Y12836672D01*
X-12335583Y12836672D02*
X-12478440Y12765243D01*
X-12478440Y12765243D02*
X-12549868Y12622386D01*
X-12549868Y12622386D02*
X-12549868Y12479529D01*
X-12549868Y12479529D02*
X-11835583Y12336672D01*
X-13835582Y11908100D02*
X-13692725Y11836672D01*
X-13692725Y11836672D02*
X-13407011Y11836672D01*
X-13407011Y11836672D02*
X-13264154Y11908100D01*
X-13264154Y11908100D02*
X-13192725Y11979529D01*
X-13192725Y11979529D02*
X-13121297Y12122386D01*
X-13121297Y12122386D02*
X-13121297Y12550958D01*
X-13121297Y12550958D02*
X-13192725Y12693815D01*
X-13192725Y12693815D02*
X-13264154Y12765243D01*
X-13264154Y12765243D02*
X-13407011Y12836672D01*
X-13407011Y12836672D02*
X-13692725Y12836672D01*
X-13692725Y12836672D02*
X-13835582Y12765243D01*
X-14264154Y12836672D02*
X-14835582Y12836672D01*
X-14478439Y13336672D02*
X-14478439Y12050958D01*
X-14478439Y12050958D02*
X-14549868Y11908100D01*
X-14549868Y11908100D02*
X-14692725Y11836672D01*
X-14692725Y11836672D02*
X-14835582Y11836672D01*
X-15335582Y11979529D02*
X-15407011Y11908100D01*
X-15407011Y11908100D02*
X-15335582Y11836672D01*
X-15335582Y11836672D02*
X-15264154Y11908100D01*
X-15264154Y11908100D02*
X-15335582Y11979529D01*
X-15335582Y11979529D02*
X-15335582Y11836672D01*
X-15335582Y12765243D02*
X-15407011Y12693815D01*
X-15407011Y12693815D02*
X-15335582Y12622386D01*
X-15335582Y12622386D02*
X-15264154Y12693815D01*
X-15264154Y12693815D02*
X-15335582Y12765243D01*
X-15335582Y12765243D02*
X-15335582Y12622386D01*
X-17192725Y12622386D02*
X-17692725Y12622386D01*
X-17907011Y11836672D02*
X-17192725Y11836672D01*
X-17192725Y11836672D02*
X-17192725Y13336672D01*
X-17192725Y13336672D02*
X-17907011Y13336672D01*
X-18478440Y11908100D02*
X-18692725Y11836672D01*
X-18692725Y11836672D02*
X-19049868Y11836672D01*
X-19049868Y11836672D02*
X-19192725Y11908100D01*
X-19192725Y11908100D02*
X-19264154Y11979529D01*
X-19264154Y11979529D02*
X-19335583Y12122386D01*
X-19335583Y12122386D02*
X-19335583Y12265243D01*
X-19335583Y12265243D02*
X-19264154Y12408100D01*
X-19264154Y12408100D02*
X-19192725Y12479529D01*
X-19192725Y12479529D02*
X-19049868Y12550958D01*
X-19049868Y12550958D02*
X-18764154Y12622386D01*
X-18764154Y12622386D02*
X-18621297Y12693815D01*
X-18621297Y12693815D02*
X-18549868Y12765243D01*
X-18549868Y12765243D02*
X-18478440Y12908100D01*
X-18478440Y12908100D02*
X-18478440Y13050958D01*
X-18478440Y13050958D02*
X-18549868Y13193815D01*
X-18549868Y13193815D02*
X-18621297Y13265243D01*
X-18621297Y13265243D02*
X-18764154Y13336672D01*
X-18764154Y13336672D02*
X-19121297Y13336672D01*
X-19121297Y13336672D02*
X-19335583Y13265243D01*
X-19978439Y11836672D02*
X-19978439Y13336672D01*
X-19978439Y13336672D02*
X-20549868Y13336672D01*
X-20549868Y13336672D02*
X-20692725Y13265243D01*
X-20692725Y13265243D02*
X-20764154Y13193815D01*
X-20764154Y13193815D02*
X-20835582Y13050958D01*
X-20835582Y13050958D02*
X-20835582Y12836672D01*
X-20835582Y12836672D02*
X-20764154Y12693815D01*
X-20764154Y12693815D02*
X-20692725Y12622386D01*
X-20692725Y12622386D02*
X-20549868Y12550958D01*
X-20549868Y12550958D02*
X-19978439Y12550958D01*
X-21335582Y13336672D02*
X-22264154Y13336672D01*
X-22264154Y13336672D02*
X-21764154Y12765243D01*
X-21764154Y12765243D02*
X-21978439Y12765243D01*
X-21978439Y12765243D02*
X-22121296Y12693815D01*
X-22121296Y12693815D02*
X-22192725Y12622386D01*
X-22192725Y12622386D02*
X-22264154Y12479529D01*
X-22264154Y12479529D02*
X-22264154Y12122386D01*
X-22264154Y12122386D02*
X-22192725Y11979529D01*
X-22192725Y11979529D02*
X-22121296Y11908100D01*
X-22121296Y11908100D02*
X-21978439Y11836672D01*
X-21978439Y11836672D02*
X-21549868Y11836672D01*
X-21549868Y11836672D02*
X-21407011Y11908100D01*
X-21407011Y11908100D02*
X-21335582Y11979529D01*
X-22835582Y13193815D02*
X-22907010Y13265243D01*
X-22907010Y13265243D02*
X-23049867Y13336672D01*
X-23049867Y13336672D02*
X-23407010Y13336672D01*
X-23407010Y13336672D02*
X-23549867Y13265243D01*
X-23549867Y13265243D02*
X-23621296Y13193815D01*
X-23621296Y13193815D02*
X-23692725Y13050958D01*
X-23692725Y13050958D02*
X-23692725Y12908100D01*
X-23692725Y12908100D02*
X-23621296Y12693815D01*
X-23621296Y12693815D02*
X-22764153Y11836672D01*
X-22764153Y11836672D02*
X-23692725Y11836672D01*
X-25192724Y11979529D02*
X-25121296Y11908100D01*
X-25121296Y11908100D02*
X-24907010Y11836672D01*
X-24907010Y11836672D02*
X-24764153Y11836672D01*
X-24764153Y11836672D02*
X-24549867Y11908100D01*
X-24549867Y11908100D02*
X-24407010Y12050958D01*
X-24407010Y12050958D02*
X-24335581Y12193815D01*
X-24335581Y12193815D02*
X-24264153Y12479529D01*
X-24264153Y12479529D02*
X-24264153Y12693815D01*
X-24264153Y12693815D02*
X-24335581Y12979529D01*
X-24335581Y12979529D02*
X-24407010Y13122386D01*
X-24407010Y13122386D02*
X-24549867Y13265243D01*
X-24549867Y13265243D02*
X-24764153Y13336672D01*
X-24764153Y13336672D02*
X-24907010Y13336672D01*
X-24907010Y13336672D02*
X-25121296Y13265243D01*
X-25121296Y13265243D02*
X-25192724Y13193815D01*
X-25692724Y13336672D02*
X-26621296Y13336672D01*
X-26621296Y13336672D02*
X-26121296Y12765243D01*
X-26121296Y12765243D02*
X-26335581Y12765243D01*
X-26335581Y12765243D02*
X-26478438Y12693815D01*
X-26478438Y12693815D02*
X-26549867Y12622386D01*
X-26549867Y12622386D02*
X-26621296Y12479529D01*
X-26621296Y12479529D02*
X-26621296Y12122386D01*
X-26621296Y12122386D02*
X-26549867Y11979529D01*
X-26549867Y11979529D02*
X-26478438Y11908100D01*
X-26478438Y11908100D02*
X-26335581Y11836672D01*
X-26335581Y11836672D02*
X-25907010Y11836672D01*
X-25907010Y11836672D02*
X-25764153Y11908100D01*
X-25764153Y11908100D02*
X-25692724Y11979529D01*
X-26907009Y11693815D02*
X-28049867Y11693815D01*
X-28264152Y13336672D02*
X-29264152Y11836672D01*
X-29264152Y13336672D02*
X-28264152Y11836672D01*
X-29835580Y11836672D02*
X-29835580Y12836672D01*
X-29835580Y13336672D02*
X-29764152Y13265243D01*
X-29764152Y13265243D02*
X-29835580Y13193815D01*
X-29835580Y13193815D02*
X-29907009Y13265243D01*
X-29907009Y13265243D02*
X-29835580Y13336672D01*
X-29835580Y13336672D02*
X-29835580Y13193815D01*
X-31192723Y11836672D02*
X-31192723Y12622386D01*
X-31192723Y12622386D02*
X-31121295Y12765243D01*
X-31121295Y12765243D02*
X-30978438Y12836672D01*
X-30978438Y12836672D02*
X-30692723Y12836672D01*
X-30692723Y12836672D02*
X-30549866Y12765243D01*
X-31192723Y11908100D02*
X-31049866Y11836672D01*
X-31049866Y11836672D02*
X-30692723Y11836672D01*
X-30692723Y11836672D02*
X-30549866Y11908100D01*
X-30549866Y11908100D02*
X-30478438Y12050958D01*
X-30478438Y12050958D02*
X-30478438Y12193815D01*
X-30478438Y12193815D02*
X-30549866Y12336672D01*
X-30549866Y12336672D02*
X-30692723Y12408100D01*
X-30692723Y12408100D02*
X-31049866Y12408100D01*
X-31049866Y12408100D02*
X-31192723Y12479529D01*
X-32121295Y11836672D02*
X-31978438Y11908100D01*
X-31978438Y11908100D02*
X-31907009Y11979529D01*
X-31907009Y11979529D02*
X-31835581Y12122386D01*
X-31835581Y12122386D02*
X-31835581Y12550958D01*
X-31835581Y12550958D02*
X-31907009Y12693815D01*
X-31907009Y12693815D02*
X-31978438Y12765243D01*
X-31978438Y12765243D02*
X-32121295Y12836672D01*
X-32121295Y12836672D02*
X-32335581Y12836672D01*
X-32335581Y12836672D02*
X-32478438Y12765243D01*
X-32478438Y12765243D02*
X-32549866Y12693815D01*
X-32549866Y12693815D02*
X-32621295Y12550958D01*
X-32621295Y12550958D02*
X-32621295Y12122386D01*
X-32621295Y12122386D02*
X-32549866Y11979529D01*
X-32549866Y11979529D02*
X-32478438Y11908100D01*
X-32478438Y11908100D02*
X-32335581Y11836672D01*
X-32335581Y11836672D02*
X-32121295Y11836672D01*
X-32907009Y11693815D02*
X-34049867Y11693815D01*
X-34264152Y12836672D02*
X-34549866Y11836672D01*
X-34549866Y11836672D02*
X-34835581Y12550958D01*
X-34835581Y12550958D02*
X-35121295Y11836672D01*
X-35121295Y11836672D02*
X-35407009Y12836672D01*
X-35978438Y11836672D02*
X-35978438Y12836672D01*
X-35978438Y13336672D02*
X-35907010Y13265243D01*
X-35907010Y13265243D02*
X-35978438Y13193815D01*
X-35978438Y13193815D02*
X-36049867Y13265243D01*
X-36049867Y13265243D02*
X-35978438Y13336672D01*
X-35978438Y13336672D02*
X-35978438Y13193815D01*
X-36692724Y11836672D02*
X-36692724Y12836672D01*
X-36692724Y12550958D02*
X-36764153Y12693815D01*
X-36764153Y12693815D02*
X-36835581Y12765243D01*
X-36835581Y12765243D02*
X-36978439Y12836672D01*
X-36978439Y12836672D02*
X-37121296Y12836672D01*
X-38192724Y11908100D02*
X-38049867Y11836672D01*
X-38049867Y11836672D02*
X-37764152Y11836672D01*
X-37764152Y11836672D02*
X-37621295Y11908100D01*
X-37621295Y11908100D02*
X-37549867Y12050958D01*
X-37549867Y12050958D02*
X-37549867Y12622386D01*
X-37549867Y12622386D02*
X-37621295Y12765243D01*
X-37621295Y12765243D02*
X-37764152Y12836672D01*
X-37764152Y12836672D02*
X-38049867Y12836672D01*
X-38049867Y12836672D02*
X-38192724Y12765243D01*
X-38192724Y12765243D02*
X-38264152Y12622386D01*
X-38264152Y12622386D02*
X-38264152Y12479529D01*
X-38264152Y12479529D02*
X-37549867Y12336672D01*
X-39121295Y11836672D02*
X-38978438Y11908100D01*
X-38978438Y11908100D02*
X-38907009Y12050958D01*
X-38907009Y12050958D02*
X-38907009Y13336672D01*
X-40264152Y11908100D02*
X-40121295Y11836672D01*
X-40121295Y11836672D02*
X-39835580Y11836672D01*
X-39835580Y11836672D02*
X-39692723Y11908100D01*
X-39692723Y11908100D02*
X-39621295Y12050958D01*
X-39621295Y12050958D02*
X-39621295Y12622386D01*
X-39621295Y12622386D02*
X-39692723Y12765243D01*
X-39692723Y12765243D02*
X-39835580Y12836672D01*
X-39835580Y12836672D02*
X-40121295Y12836672D01*
X-40121295Y12836672D02*
X-40264152Y12765243D01*
X-40264152Y12765243D02*
X-40335580Y12622386D01*
X-40335580Y12622386D02*
X-40335580Y12479529D01*
X-40335580Y12479529D02*
X-39621295Y12336672D01*
X-40907009Y11908100D02*
X-41049866Y11836672D01*
X-41049866Y11836672D02*
X-41335580Y11836672D01*
X-41335580Y11836672D02*
X-41478437Y11908100D01*
X-41478437Y11908100D02*
X-41549866Y12050958D01*
X-41549866Y12050958D02*
X-41549866Y12122386D01*
X-41549866Y12122386D02*
X-41478437Y12265243D01*
X-41478437Y12265243D02*
X-41335580Y12336672D01*
X-41335580Y12336672D02*
X-41121294Y12336672D01*
X-41121294Y12336672D02*
X-40978437Y12408100D01*
X-40978437Y12408100D02*
X-40907009Y12550958D01*
X-40907009Y12550958D02*
X-40907009Y12622386D01*
X-40907009Y12622386D02*
X-40978437Y12765243D01*
X-40978437Y12765243D02*
X-41121294Y12836672D01*
X-41121294Y12836672D02*
X-41335580Y12836672D01*
X-41335580Y12836672D02*
X-41478437Y12765243D01*
X-42121295Y11908100D02*
X-42264152Y11836672D01*
X-42264152Y11836672D02*
X-42549866Y11836672D01*
X-42549866Y11836672D02*
X-42692723Y11908100D01*
X-42692723Y11908100D02*
X-42764152Y12050958D01*
X-42764152Y12050958D02*
X-42764152Y12122386D01*
X-42764152Y12122386D02*
X-42692723Y12265243D01*
X-42692723Y12265243D02*
X-42549866Y12336672D01*
X-42549866Y12336672D02*
X-42335580Y12336672D01*
X-42335580Y12336672D02*
X-42192723Y12408100D01*
X-42192723Y12408100D02*
X-42121295Y12550958D01*
X-42121295Y12550958D02*
X-42121295Y12622386D01*
X-42121295Y12622386D02*
X-42192723Y12765243D01*
X-42192723Y12765243D02*
X-42335580Y12836672D01*
X-42335580Y12836672D02*
X-42549866Y12836672D01*
X-42549866Y12836672D02*
X-42692723Y12765243D01*
X-43049866Y11693815D02*
X-44192724Y11693815D01*
X-44549866Y11836672D02*
X-44549866Y13336672D01*
X-44549866Y13336672D02*
X-44907009Y13336672D01*
X-44907009Y13336672D02*
X-45121295Y13265243D01*
X-45121295Y13265243D02*
X-45264152Y13122386D01*
X-45264152Y13122386D02*
X-45335581Y12979529D01*
X-45335581Y12979529D02*
X-45407009Y12693815D01*
X-45407009Y12693815D02*
X-45407009Y12479529D01*
X-45407009Y12479529D02*
X-45335581Y12193815D01*
X-45335581Y12193815D02*
X-45264152Y12050958D01*
X-45264152Y12050958D02*
X-45121295Y11908100D01*
X-45121295Y11908100D02*
X-44907009Y11836672D01*
X-44907009Y11836672D02*
X-44549866Y11836672D01*
X-45978438Y12265243D02*
X-46692723Y12265243D01*
X-45835581Y11836672D02*
X-46335581Y13336672D01*
X-46335581Y13336672D02*
X-46835581Y11836672D01*
X-47335580Y11836672D02*
X-47335580Y13336672D01*
X-47335580Y13336672D02*
X-47907009Y13336672D01*
X-47907009Y13336672D02*
X-48049866Y13265243D01*
X-48049866Y13265243D02*
X-48121295Y13193815D01*
X-48121295Y13193815D02*
X-48192723Y13050958D01*
X-48192723Y13050958D02*
X-48192723Y12836672D01*
X-48192723Y12836672D02*
X-48121295Y12693815D01*
X-48121295Y12693815D02*
X-48049866Y12622386D01*
X-48049866Y12622386D02*
X-47907009Y12550958D01*
X-47907009Y12550958D02*
X-47335580Y12550958D01*
X-7192726Y10921756D02*
X-7692726Y9421756D01*
X-7692726Y9421756D02*
X-8192726Y10921756D01*
X-9264154Y9493184D02*
X-9121297Y9421756D01*
X-9121297Y9421756D02*
X-8835582Y9421756D01*
X-8835582Y9421756D02*
X-8692725Y9493184D01*
X-8692725Y9493184D02*
X-8621297Y9636042D01*
X-8621297Y9636042D02*
X-8621297Y10207470D01*
X-8621297Y10207470D02*
X-8692725Y10350327D01*
X-8692725Y10350327D02*
X-8835582Y10421756D01*
X-8835582Y10421756D02*
X-9121297Y10421756D01*
X-9121297Y10421756D02*
X-9264154Y10350327D01*
X-9264154Y10350327D02*
X-9335582Y10207470D01*
X-9335582Y10207470D02*
X-9335582Y10064613D01*
X-9335582Y10064613D02*
X-8621297Y9921756D01*
X-9978439Y9421756D02*
X-9978439Y10421756D01*
X-9978439Y10136042D02*
X-10049868Y10278899D01*
X-10049868Y10278899D02*
X-10121296Y10350327D01*
X-10121296Y10350327D02*
X-10264154Y10421756D01*
X-10264154Y10421756D02*
X-10407011Y10421756D01*
X-12049867Y9564613D02*
X-12121296Y9493184D01*
X-12121296Y9493184D02*
X-12049867Y9421756D01*
X-12049867Y9421756D02*
X-11978439Y9493184D01*
X-11978439Y9493184D02*
X-12049867Y9564613D01*
X-12049867Y9564613D02*
X-12049867Y9421756D01*
X-12049867Y10350327D02*
X-12121296Y10278899D01*
X-12121296Y10278899D02*
X-12049867Y10207470D01*
X-12049867Y10207470D02*
X-11978439Y10278899D01*
X-11978439Y10278899D02*
X-12049867Y10350327D01*
X-12049867Y10350327D02*
X-12049867Y10207470D01*
X-14192725Y10921756D02*
X-14335582Y10921756D01*
X-14335582Y10921756D02*
X-14478439Y10850327D01*
X-14478439Y10850327D02*
X-14549867Y10778899D01*
X-14549867Y10778899D02*
X-14621296Y10636042D01*
X-14621296Y10636042D02*
X-14692725Y10350327D01*
X-14692725Y10350327D02*
X-14692725Y9993184D01*
X-14692725Y9993184D02*
X-14621296Y9707470D01*
X-14621296Y9707470D02*
X-14549867Y9564613D01*
X-14549867Y9564613D02*
X-14478439Y9493184D01*
X-14478439Y9493184D02*
X-14335582Y9421756D01*
X-14335582Y9421756D02*
X-14192725Y9421756D01*
X-14192725Y9421756D02*
X-14049867Y9493184D01*
X-14049867Y9493184D02*
X-13978439Y9564613D01*
X-13978439Y9564613D02*
X-13907010Y9707470D01*
X-13907010Y9707470D02*
X-13835582Y9993184D01*
X-13835582Y9993184D02*
X-13835582Y10350327D01*
X-13835582Y10350327D02*
X-13907010Y10636042D01*
X-13907010Y10636042D02*
X-13978439Y10778899D01*
X-13978439Y10778899D02*
X-14049867Y10850327D01*
X-14049867Y10850327D02*
X-14192725Y10921756D01*
X-15335581Y9564613D02*
X-15407010Y9493184D01*
X-15407010Y9493184D02*
X-15335581Y9421756D01*
X-15335581Y9421756D02*
X-15264153Y9493184D01*
X-15264153Y9493184D02*
X-15335581Y9564613D01*
X-15335581Y9564613D02*
X-15335581Y9421756D01*
X-16835582Y9421756D02*
X-15978439Y9421756D01*
X-16407010Y9421756D02*
X-16407010Y10921756D01*
X-16407010Y10921756D02*
X-16264153Y10707470D01*
X-16264153Y10707470D02*
X-16121296Y10564613D01*
X-16121296Y10564613D02*
X-15978439Y10493184D01*
X-7407011Y7006840D02*
X-7407011Y8506840D01*
X-7407011Y8506840D02*
X-7764154Y8506840D01*
X-7764154Y8506840D02*
X-7978440Y8435411D01*
X-7978440Y8435411D02*
X-8121297Y8292554D01*
X-8121297Y8292554D02*
X-8192726Y8149697D01*
X-8192726Y8149697D02*
X-8264154Y7863983D01*
X-8264154Y7863983D02*
X-8264154Y7649697D01*
X-8264154Y7649697D02*
X-8192726Y7363983D01*
X-8192726Y7363983D02*
X-8121297Y7221126D01*
X-8121297Y7221126D02*
X-7978440Y7078268D01*
X-7978440Y7078268D02*
X-7764154Y7006840D01*
X-7764154Y7006840D02*
X-7407011Y7006840D01*
X-9549868Y7006840D02*
X-9549868Y7792554D01*
X-9549868Y7792554D02*
X-9478440Y7935411D01*
X-9478440Y7935411D02*
X-9335583Y8006840D01*
X-9335583Y8006840D02*
X-9049868Y8006840D01*
X-9049868Y8006840D02*
X-8907011Y7935411D01*
X-9549868Y7078268D02*
X-9407011Y7006840D01*
X-9407011Y7006840D02*
X-9049868Y7006840D01*
X-9049868Y7006840D02*
X-8907011Y7078268D01*
X-8907011Y7078268D02*
X-8835583Y7221126D01*
X-8835583Y7221126D02*
X-8835583Y7363983D01*
X-8835583Y7363983D02*
X-8907011Y7506840D01*
X-8907011Y7506840D02*
X-9049868Y7578268D01*
X-9049868Y7578268D02*
X-9407011Y7578268D01*
X-9407011Y7578268D02*
X-9549868Y7649697D01*
X-10049869Y8006840D02*
X-10621297Y8006840D01*
X-10264154Y8506840D02*
X-10264154Y7221126D01*
X-10264154Y7221126D02*
X-10335583Y7078268D01*
X-10335583Y7078268D02*
X-10478440Y7006840D01*
X-10478440Y7006840D02*
X-10621297Y7006840D01*
X-11692726Y7078268D02*
X-11549869Y7006840D01*
X-11549869Y7006840D02*
X-11264154Y7006840D01*
X-11264154Y7006840D02*
X-11121297Y7078268D01*
X-11121297Y7078268D02*
X-11049869Y7221126D01*
X-11049869Y7221126D02*
X-11049869Y7792554D01*
X-11049869Y7792554D02*
X-11121297Y7935411D01*
X-11121297Y7935411D02*
X-11264154Y8006840D01*
X-11264154Y8006840D02*
X-11549869Y8006840D01*
X-11549869Y8006840D02*
X-11692726Y7935411D01*
X-11692726Y7935411D02*
X-11764154Y7792554D01*
X-11764154Y7792554D02*
X-11764154Y7649697D01*
X-11764154Y7649697D02*
X-11049869Y7506840D01*
X-12407011Y7149697D02*
X-12478440Y7078268D01*
X-12478440Y7078268D02*
X-12407011Y7006840D01*
X-12407011Y7006840D02*
X-12335583Y7078268D01*
X-12335583Y7078268D02*
X-12407011Y7149697D01*
X-12407011Y7149697D02*
X-12407011Y7006840D01*
X-12407011Y7935411D02*
X-12478440Y7863983D01*
X-12478440Y7863983D02*
X-12407011Y7792554D01*
X-12407011Y7792554D02*
X-12335583Y7863983D01*
X-12335583Y7863983D02*
X-12407011Y7935411D01*
X-12407011Y7935411D02*
X-12407011Y7792554D01*
X-14192726Y8363983D02*
X-14264154Y8435411D01*
X-14264154Y8435411D02*
X-14407011Y8506840D01*
X-14407011Y8506840D02*
X-14764154Y8506840D01*
X-14764154Y8506840D02*
X-14907011Y8435411D01*
X-14907011Y8435411D02*
X-14978440Y8363983D01*
X-14978440Y8363983D02*
X-15049869Y8221126D01*
X-15049869Y8221126D02*
X-15049869Y8078268D01*
X-15049869Y8078268D02*
X-14978440Y7863983D01*
X-14978440Y7863983D02*
X-14121297Y7006840D01*
X-14121297Y7006840D02*
X-15049869Y7006840D01*
X-15978440Y8506840D02*
X-16121297Y8506840D01*
X-16121297Y8506840D02*
X-16264154Y8435411D01*
X-16264154Y8435411D02*
X-16335582Y8363983D01*
X-16335582Y8363983D02*
X-16407011Y8221126D01*
X-16407011Y8221126D02*
X-16478440Y7935411D01*
X-16478440Y7935411D02*
X-16478440Y7578268D01*
X-16478440Y7578268D02*
X-16407011Y7292554D01*
X-16407011Y7292554D02*
X-16335582Y7149697D01*
X-16335582Y7149697D02*
X-16264154Y7078268D01*
X-16264154Y7078268D02*
X-16121297Y7006840D01*
X-16121297Y7006840D02*
X-15978440Y7006840D01*
X-15978440Y7006840D02*
X-15835582Y7078268D01*
X-15835582Y7078268D02*
X-15764154Y7149697D01*
X-15764154Y7149697D02*
X-15692725Y7292554D01*
X-15692725Y7292554D02*
X-15621297Y7578268D01*
X-15621297Y7578268D02*
X-15621297Y7935411D01*
X-15621297Y7935411D02*
X-15692725Y8221126D01*
X-15692725Y8221126D02*
X-15764154Y8363983D01*
X-15764154Y8363983D02*
X-15835582Y8435411D01*
X-15835582Y8435411D02*
X-15978440Y8506840D01*
X-17049868Y8363983D02*
X-17121296Y8435411D01*
X-17121296Y8435411D02*
X-17264153Y8506840D01*
X-17264153Y8506840D02*
X-17621296Y8506840D01*
X-17621296Y8506840D02*
X-17764153Y8435411D01*
X-17764153Y8435411D02*
X-17835582Y8363983D01*
X-17835582Y8363983D02*
X-17907011Y8221126D01*
X-17907011Y8221126D02*
X-17907011Y8078268D01*
X-17907011Y8078268D02*
X-17835582Y7863983D01*
X-17835582Y7863983D02*
X-16978439Y7006840D01*
X-16978439Y7006840D02*
X-17907011Y7006840D01*
X-19192724Y8506840D02*
X-18907010Y8506840D01*
X-18907010Y8506840D02*
X-18764153Y8435411D01*
X-18764153Y8435411D02*
X-18692724Y8363983D01*
X-18692724Y8363983D02*
X-18549867Y8149697D01*
X-18549867Y8149697D02*
X-18478439Y7863983D01*
X-18478439Y7863983D02*
X-18478439Y7292554D01*
X-18478439Y7292554D02*
X-18549867Y7149697D01*
X-18549867Y7149697D02*
X-18621296Y7078268D01*
X-18621296Y7078268D02*
X-18764153Y7006840D01*
X-18764153Y7006840D02*
X-19049867Y7006840D01*
X-19049867Y7006840D02*
X-19192724Y7078268D01*
X-19192724Y7078268D02*
X-19264153Y7149697D01*
X-19264153Y7149697D02*
X-19335582Y7292554D01*
X-19335582Y7292554D02*
X-19335582Y7649697D01*
X-19335582Y7649697D02*
X-19264153Y7792554D01*
X-19264153Y7792554D02*
X-19192724Y7863983D01*
X-19192724Y7863983D02*
X-19049867Y7935411D01*
X-19049867Y7935411D02*
X-18764153Y7935411D01*
X-18764153Y7935411D02*
X-18621296Y7863983D01*
X-18621296Y7863983D02*
X-18549867Y7792554D01*
X-18549867Y7792554D02*
X-18478439Y7649697D01*
X-19978438Y7578268D02*
X-21121295Y7578268D01*
X-22121296Y8506840D02*
X-22264153Y8506840D01*
X-22264153Y8506840D02*
X-22407010Y8435411D01*
X-22407010Y8435411D02*
X-22478438Y8363983D01*
X-22478438Y8363983D02*
X-22549867Y8221126D01*
X-22549867Y8221126D02*
X-22621296Y7935411D01*
X-22621296Y7935411D02*
X-22621296Y7578268D01*
X-22621296Y7578268D02*
X-22549867Y7292554D01*
X-22549867Y7292554D02*
X-22478438Y7149697D01*
X-22478438Y7149697D02*
X-22407010Y7078268D01*
X-22407010Y7078268D02*
X-22264153Y7006840D01*
X-22264153Y7006840D02*
X-22121296Y7006840D01*
X-22121296Y7006840D02*
X-21978438Y7078268D01*
X-21978438Y7078268D02*
X-21907010Y7149697D01*
X-21907010Y7149697D02*
X-21835581Y7292554D01*
X-21835581Y7292554D02*
X-21764153Y7578268D01*
X-21764153Y7578268D02*
X-21764153Y7935411D01*
X-21764153Y7935411D02*
X-21835581Y8221126D01*
X-21835581Y8221126D02*
X-21907010Y8363983D01*
X-21907010Y8363983D02*
X-21978438Y8435411D01*
X-21978438Y8435411D02*
X-22121296Y8506840D01*
X-24049867Y7006840D02*
X-23192724Y7006840D01*
X-23621295Y7006840D02*
X-23621295Y8506840D01*
X-23621295Y8506840D02*
X-23478438Y8292554D01*
X-23478438Y8292554D02*
X-23335581Y8149697D01*
X-23335581Y8149697D02*
X-23192724Y8078268D01*
X-24692723Y7578268D02*
X-25835580Y7578268D01*
X-26835581Y8506840D02*
X-26978438Y8506840D01*
X-26978438Y8506840D02*
X-27121295Y8435411D01*
X-27121295Y8435411D02*
X-27192723Y8363983D01*
X-27192723Y8363983D02*
X-27264152Y8221126D01*
X-27264152Y8221126D02*
X-27335581Y7935411D01*
X-27335581Y7935411D02*
X-27335581Y7578268D01*
X-27335581Y7578268D02*
X-27264152Y7292554D01*
X-27264152Y7292554D02*
X-27192723Y7149697D01*
X-27192723Y7149697D02*
X-27121295Y7078268D01*
X-27121295Y7078268D02*
X-26978438Y7006840D01*
X-26978438Y7006840D02*
X-26835581Y7006840D01*
X-26835581Y7006840D02*
X-26692723Y7078268D01*
X-26692723Y7078268D02*
X-26621295Y7149697D01*
X-26621295Y7149697D02*
X-26549866Y7292554D01*
X-26549866Y7292554D02*
X-26478438Y7578268D01*
X-26478438Y7578268D02*
X-26478438Y7935411D01*
X-26478438Y7935411D02*
X-26549866Y8221126D01*
X-26549866Y8221126D02*
X-26621295Y8363983D01*
X-26621295Y8363983D02*
X-26692723Y8435411D01*
X-26692723Y8435411D02*
X-26835581Y8506840D01*
X-28621294Y8006840D02*
X-28621294Y7006840D01*
X-28264152Y8578268D02*
X-27907009Y7506840D01*
X-27907009Y7506840D02*
X-28835580Y7506840D01*
D13*
%TO.C,G\u002A\u002A\u002A*%
G36*
X-66245647Y30866485D02*
G01*
X-66245647Y30764852D01*
X-66347280Y30764852D01*
X-66448912Y30764852D01*
X-66448912Y30866485D01*
X-66448912Y30968117D01*
X-66347280Y30968117D01*
X-66245647Y30968117D01*
X-66245647Y30866485D01*
G37*
G36*
X-64489437Y30866485D02*
G01*
X-64489437Y30764852D01*
X-64684571Y30764852D01*
X-64879706Y30764852D01*
X-64879706Y30671350D01*
X-64879706Y30577848D01*
X-64782139Y30577848D01*
X-64684571Y30577848D01*
X-64684571Y30476216D01*
X-64684571Y30374583D01*
X-64782139Y30374583D01*
X-64879706Y30374583D01*
X-64879706Y30281082D01*
X-64879706Y30187580D01*
X-64782139Y30187580D01*
X-64684571Y30187580D01*
X-64684571Y30090012D01*
X-64684571Y29992445D01*
X-64493502Y29992445D01*
X-64302433Y29992445D01*
X-64302433Y30085947D01*
X-64302433Y30179449D01*
X-64400000Y30179449D01*
X-64497568Y30179449D01*
X-64497568Y30187580D01*
X-64294303Y30187580D01*
X-64200801Y30187580D01*
X-64107299Y30187580D01*
X-64107299Y30281082D01*
X-64107299Y30374583D01*
X-64200801Y30374583D01*
X-64294303Y30374583D01*
X-64294303Y30281082D01*
X-64294303Y30187580D01*
X-64497568Y30187580D01*
X-64497568Y30281082D01*
X-64497568Y30382714D01*
X-64400000Y30382714D01*
X-64302433Y30382714D01*
X-64099168Y30382714D01*
X-63908099Y30382714D01*
X-63717030Y30382714D01*
X-63717030Y30476216D01*
X-63717030Y30569718D01*
X-63908099Y30569718D01*
X-64099168Y30569718D01*
X-64099168Y30476216D01*
X-64099168Y30382714D01*
X-64302433Y30382714D01*
X-64302433Y30476216D01*
X-64302433Y30675416D01*
X-64302433Y30968117D01*
X-64200801Y30968117D01*
X-64099168Y30968117D01*
X-64099168Y30870550D01*
X-64099168Y30772983D01*
X-63908099Y30772983D01*
X-63717030Y30772983D01*
X-63717030Y30870550D01*
X-63717030Y30968117D01*
X-63615397Y30968117D01*
X-63513765Y30968117D01*
X-63513765Y30870550D01*
X-63513765Y30772983D01*
X-63420263Y30772983D01*
X-63326761Y30772983D01*
X-63326761Y30870550D01*
X-63326761Y30968117D01*
X-63029994Y30968117D01*
X-62733227Y30968117D01*
X-62733227Y30866485D01*
X-62733227Y30764852D01*
X-62928361Y30764852D01*
X-63123496Y30764852D01*
X-63123496Y30671350D01*
X-63123496Y30577848D01*
X-63025929Y30577848D01*
X-62928361Y30577848D01*
X-62928361Y30476216D01*
X-62928361Y30374583D01*
X-63025929Y30374583D01*
X-63123496Y30374583D01*
X-63123496Y30179449D01*
X-63123496Y29984315D01*
X-63221063Y29984315D01*
X-63318630Y29984315D01*
X-63318630Y29886747D01*
X-63318630Y29789180D01*
X-63513765Y29789180D01*
X-63708899Y29789180D01*
X-63708899Y29695678D01*
X-63708899Y29602176D01*
X-63513765Y29602176D01*
X-63318630Y29602176D01*
X-63318630Y29504609D01*
X-63318630Y29407042D01*
X-63225128Y29407042D01*
X-63131627Y29407042D01*
X-63131627Y29602176D01*
X-63131627Y29797311D01*
X-63029994Y29797311D01*
X-62928361Y29797311D01*
X-62928361Y29699744D01*
X-62928361Y29602176D01*
X-62830794Y29602176D01*
X-62733227Y29602176D01*
X-62733227Y29504609D01*
X-62733227Y29407042D01*
X-62639725Y29407042D01*
X-62546223Y29407042D01*
X-62342958Y29407042D01*
X-62054322Y29407042D01*
X-61765685Y29407042D01*
X-61765685Y29602176D01*
X-61562420Y29602176D01*
X-61468918Y29602176D01*
X-61375417Y29602176D01*
X-61375417Y29695678D01*
X-61375417Y29789180D01*
X-61468918Y29789180D01*
X-61562420Y29789180D01*
X-61562420Y29695678D01*
X-61562420Y29602176D01*
X-61765685Y29602176D01*
X-61765685Y29695678D01*
X-61765685Y29797311D01*
X-61367286Y29797311D01*
X-61273784Y29797311D01*
X-61180282Y29797311D01*
X-61180282Y29890813D01*
X-61180282Y29984315D01*
X-61273784Y29984315D01*
X-61367286Y29984315D01*
X-61367286Y29890813D01*
X-61367286Y29797311D01*
X-61765685Y29797311D01*
X-61765685Y29890813D01*
X-61765685Y29984315D01*
X-62054322Y29984315D01*
X-62342958Y29984315D01*
X-62342958Y29695678D01*
X-62342958Y29407042D01*
X-62546223Y29407042D01*
X-62546223Y29695678D01*
X-62546223Y29984315D01*
X-62643790Y29984315D01*
X-62741358Y29984315D01*
X-62741358Y30187580D01*
X-62538093Y30187580D01*
X-62444591Y30187580D01*
X-62351089Y30187580D01*
X-62351089Y30281082D01*
X-62351089Y30374583D01*
X-62444591Y30374583D01*
X-62538093Y30374583D01*
X-62538093Y30281082D01*
X-62538093Y30187580D01*
X-62741358Y30187580D01*
X-62741358Y30281082D01*
X-62741358Y30577848D01*
X-62546223Y30577848D01*
X-62351089Y30577848D01*
X-62351089Y30675416D01*
X-62351089Y30772983D01*
X-62151889Y30772983D01*
X-61952689Y30772983D01*
X-61952689Y30671350D01*
X-61952689Y30569718D01*
X-62147824Y30569718D01*
X-62342958Y30569718D01*
X-62342958Y30476216D01*
X-62342958Y30382714D01*
X-62147824Y30382714D01*
X-61952689Y30382714D01*
X-61952689Y30285147D01*
X-61952689Y30187580D01*
X-61859187Y30187580D01*
X-61765685Y30187580D01*
X-61765685Y30285147D01*
X-61765685Y30382714D01*
X-61668118Y30382714D01*
X-61570551Y30382714D01*
X-61570551Y30476216D01*
X-61570551Y30569718D01*
X-61668118Y30569718D01*
X-61765685Y30569718D01*
X-61765685Y30768918D01*
X-61765685Y30968117D01*
X-61664053Y30968117D01*
X-61562420Y30968117D01*
X-61562420Y30870550D01*
X-61562420Y30772983D01*
X-61464853Y30772983D01*
X-61367286Y30772983D01*
X-61367286Y30675416D01*
X-61367286Y30577848D01*
X-61269719Y30577848D01*
X-61172152Y30577848D01*
X-61172152Y30476216D01*
X-61172152Y30374583D01*
X-61367286Y30374583D01*
X-61562420Y30374583D01*
X-61562420Y30183514D01*
X-61562420Y29992445D01*
X-61468918Y29992445D01*
X-61375417Y29992445D01*
X-61375417Y30090012D01*
X-61375417Y30187580D01*
X-61273784Y30187580D01*
X-61172152Y30187580D01*
X-61172152Y30090012D01*
X-61172152Y29992445D01*
X-61078650Y29992445D01*
X-60985148Y29992445D01*
X-60985148Y30090012D01*
X-60985148Y30187580D01*
X-60883515Y30187580D01*
X-60781883Y30187580D01*
X-60781883Y30085947D01*
X-60781883Y29984315D01*
X-60879450Y29984315D01*
X-60977017Y29984315D01*
X-60977017Y29886747D01*
X-60977017Y29789180D01*
X-61074584Y29789180D01*
X-61172152Y29789180D01*
X-61172152Y29691613D01*
X-61172152Y29594046D01*
X-61269719Y29594046D01*
X-61367286Y29594046D01*
X-61367286Y29398911D01*
X-61367286Y29203777D01*
X-61562420Y29203777D01*
X-61757555Y29203777D01*
X-61757555Y29110275D01*
X-61757555Y29016773D01*
X-61371351Y29016773D01*
X-60985148Y29016773D01*
X-60985148Y29114340D01*
X-60985148Y29211907D01*
X-60883515Y29211907D01*
X-60781883Y29211907D01*
X-60781883Y29012708D01*
X-60781883Y28813508D01*
X-61367286Y28813508D01*
X-61952689Y28813508D01*
X-61952689Y28622439D01*
X-61952689Y28431370D01*
X-61757555Y28431370D01*
X-61562420Y28431370D01*
X-61562420Y28333802D01*
X-61562420Y28236235D01*
X-61464853Y28236235D01*
X-61367286Y28236235D01*
X-61367286Y28037035D01*
X-61367286Y27837836D01*
X-61464853Y27837836D01*
X-61562420Y27837836D01*
X-61562420Y27740268D01*
X-61562420Y27642701D01*
X-61664053Y27642701D01*
X-61765685Y27642701D01*
X-61765685Y27744334D01*
X-61765685Y27845966D01*
X-61668118Y27845966D01*
X-61570551Y27845966D01*
X-61570551Y27939468D01*
X-61570551Y28032970D01*
X-61859187Y28032970D01*
X-62147824Y28032970D01*
X-62147824Y27939468D01*
X-62147824Y27845966D01*
X-62050256Y27845966D01*
X-61952689Y27845966D01*
X-61952689Y27646767D01*
X-61952689Y27447567D01*
X-62245391Y27447567D01*
X-62538093Y27447567D01*
X-62538093Y27354065D01*
X-62538093Y27260563D01*
X-62440525Y27260563D01*
X-62342958Y27260563D01*
X-62342958Y27065429D01*
X-62342958Y26870294D01*
X-62249456Y26870294D01*
X-62155954Y26870294D01*
X-62155954Y26967861D01*
X-62155954Y27065429D01*
X-62058387Y27065429D01*
X-61960820Y27065429D01*
X-61367286Y27065429D01*
X-61273784Y27065429D01*
X-61180282Y27065429D01*
X-61180282Y27158930D01*
X-61180282Y27252432D01*
X-61273784Y27252432D01*
X-61367286Y27252432D01*
X-61367286Y27158930D01*
X-61367286Y27065429D01*
X-61960820Y27065429D01*
X-61960820Y27158930D01*
X-61960820Y27162996D01*
X-61960820Y27260563D01*
X-61863253Y27260563D01*
X-61765685Y27260563D01*
X-61765685Y27358130D01*
X-61765685Y27455697D01*
X-61570551Y27455697D01*
X-61375417Y27455697D01*
X-61375417Y27553265D01*
X-61375417Y27650832D01*
X-61273784Y27650832D01*
X-61172152Y27650832D01*
X-61172152Y27553265D01*
X-61172152Y27455697D01*
X-61078650Y27455697D01*
X-60985148Y27455697D01*
X-60985148Y27553265D01*
X-60985148Y27650832D01*
X-60883515Y27650832D01*
X-60781883Y27650832D01*
X-60781883Y27451632D01*
X-60781883Y27252432D01*
X-60879450Y27252432D01*
X-60977017Y27252432D01*
X-60977017Y27158930D01*
X-60977017Y27065429D01*
X-60879450Y27065429D01*
X-60781883Y27065429D01*
X-60781883Y26963796D01*
X-60781883Y26862163D01*
X-60879450Y26862163D01*
X-60977017Y26862163D01*
X-60977017Y26768662D01*
X-60977017Y26675160D01*
X-60879450Y26675160D01*
X-60781883Y26675160D01*
X-60781883Y26573527D01*
X-60781883Y26471895D01*
X-60981082Y26471895D01*
X-61180282Y26471895D01*
X-61180282Y26667029D01*
X-61180282Y26862163D01*
X-61277849Y26862163D01*
X-61375417Y26862163D01*
X-61375417Y26870294D01*
X-61172152Y26870294D01*
X-61078650Y26870294D01*
X-60985148Y26870294D01*
X-60985148Y26963796D01*
X-60985148Y27057298D01*
X-61078650Y27057298D01*
X-61172152Y27057298D01*
X-61172152Y26963796D01*
X-61172152Y26870294D01*
X-61375417Y26870294D01*
X-61375417Y26959731D01*
X-61375417Y26963796D01*
X-61375417Y27057298D01*
X-61468918Y27057298D01*
X-61562420Y27057298D01*
X-61562420Y26866229D01*
X-61562420Y26675160D01*
X-61464853Y26675160D01*
X-61367286Y26675160D01*
X-61367286Y26573527D01*
X-61367286Y26471895D01*
X-61562420Y26471895D01*
X-61757555Y26471895D01*
X-61757555Y26378393D01*
X-61757555Y26284891D01*
X-61269719Y26284891D01*
X-60781883Y26284891D01*
X-60781883Y25988124D01*
X-60781883Y25691357D01*
X-60879450Y25691357D01*
X-60977017Y25691357D01*
X-60977017Y25593790D01*
X-60977017Y25496222D01*
X-61074584Y25496222D01*
X-61172152Y25496222D01*
X-61172152Y25398655D01*
X-61172152Y25301088D01*
X-61664053Y25301088D01*
X-62155954Y25301088D01*
X-62155954Y25496222D01*
X-62155954Y25504353D01*
X-61757555Y25504353D01*
X-61664053Y25504353D01*
X-61570551Y25504353D01*
X-61367286Y25504353D01*
X-61273784Y25504353D01*
X-61180282Y25504353D01*
X-61180282Y25597855D01*
X-61180282Y25691357D01*
X-61273784Y25691357D01*
X-61367286Y25691357D01*
X-61367286Y25597855D01*
X-61367286Y25504353D01*
X-61570551Y25504353D01*
X-61570551Y25597855D01*
X-61570551Y25691357D01*
X-61664053Y25691357D01*
X-61757555Y25691357D01*
X-61757555Y25597855D01*
X-61757555Y25504353D01*
X-62155954Y25504353D01*
X-62155954Y25597855D01*
X-62155954Y25691357D01*
X-62249456Y25691357D01*
X-62342958Y25691357D01*
X-62342958Y25301088D01*
X-62342958Y24910819D01*
X-62440525Y24910819D01*
X-62538093Y24910819D01*
X-62538093Y24817317D01*
X-62538093Y24723815D01*
X-62440525Y24723815D01*
X-62342958Y24723815D01*
X-62342958Y24622183D01*
X-62342958Y24520550D01*
X-62444591Y24520550D01*
X-62546223Y24520550D01*
X-62546223Y24618117D01*
X-62546223Y24715685D01*
X-62643790Y24715685D01*
X-62741358Y24715685D01*
X-62741358Y24813252D01*
X-62741358Y24910819D01*
X-62834860Y24910819D01*
X-62928361Y24910819D01*
X-62928361Y24719750D01*
X-62928361Y24528681D01*
X-62830794Y24528681D01*
X-62733227Y24528681D01*
X-62733227Y24333546D01*
X-62733227Y24138412D01*
X-62635660Y24138412D01*
X-62538093Y24138412D01*
X-62538093Y23939212D01*
X-62538093Y23740012D01*
X-62639725Y23740012D01*
X-62741358Y23740012D01*
X-62741358Y23935147D01*
X-62741358Y24130281D01*
X-62834860Y24130281D01*
X-62928361Y24130281D01*
X-62928361Y24032714D01*
X-62928361Y23935147D01*
X-63025929Y23935147D01*
X-63123496Y23935147D01*
X-63123496Y23837580D01*
X-63123496Y23740012D01*
X-63615397Y23740012D01*
X-64107299Y23740012D01*
X-64107299Y23837580D01*
X-64107299Y23935147D01*
X-64200801Y23935147D01*
X-64294303Y23935147D01*
X-64294303Y23837580D01*
X-64294303Y23740012D01*
X-64395935Y23740012D01*
X-64497568Y23740012D01*
X-64497568Y23841645D01*
X-64497568Y23943277D01*
X-64400000Y23943277D01*
X-64302433Y23943277D01*
X-64099168Y23943277D01*
X-64005666Y23943277D01*
X-63912164Y23943277D01*
X-63912164Y24036779D01*
X-63912164Y24130281D01*
X-64005666Y24130281D01*
X-64099168Y24130281D01*
X-64099168Y24036779D01*
X-64099168Y23943277D01*
X-64302433Y23943277D01*
X-64302433Y24036779D01*
X-64302433Y24138412D01*
X-63708899Y24138412D01*
X-63517830Y24138412D01*
X-63326761Y24138412D01*
X-63123496Y24138412D01*
X-63029994Y24138412D01*
X-62936492Y24138412D01*
X-62936492Y24231914D01*
X-62936492Y24325416D01*
X-63029994Y24325416D01*
X-63123496Y24325416D01*
X-63123496Y24231914D01*
X-63123496Y24138412D01*
X-63326761Y24138412D01*
X-63326761Y24231914D01*
X-63326761Y24329481D01*
X-63326761Y24520550D01*
X-63420263Y24520550D01*
X-63513765Y24520550D01*
X-63513765Y24422983D01*
X-63513765Y24325416D01*
X-63611332Y24325416D01*
X-63708899Y24325416D01*
X-63708899Y24231914D01*
X-63708899Y24138412D01*
X-64302433Y24138412D01*
X-64302433Y24231914D01*
X-64302433Y24329481D01*
X-64302433Y24333546D01*
X-64099168Y24333546D01*
X-64005666Y24333546D01*
X-63912164Y24333546D01*
X-63912164Y24427048D01*
X-63912164Y24520550D01*
X-64005666Y24520550D01*
X-64099168Y24520550D01*
X-64099168Y24427048D01*
X-64099168Y24333546D01*
X-64302433Y24333546D01*
X-64302433Y24427048D01*
X-64302433Y24528681D01*
X-63318630Y24528681D01*
X-63225128Y24528681D01*
X-63131627Y24528681D01*
X-63131627Y24622183D01*
X-63131627Y24715685D01*
X-63225128Y24715685D01*
X-63318630Y24715685D01*
X-63318630Y24622183D01*
X-63318630Y24528681D01*
X-64302433Y24528681D01*
X-64302433Y24622183D01*
X-64302433Y24715685D01*
X-64400000Y24715685D01*
X-64497568Y24715685D01*
X-64497568Y24914884D01*
X-64497568Y25114084D01*
X-64395935Y25114084D01*
X-64294303Y25114084D01*
X-64294303Y24918950D01*
X-64294303Y24723815D01*
X-64005666Y24723815D01*
X-63717030Y24723815D01*
X-63513765Y24723815D01*
X-63420263Y24723815D01*
X-63326761Y24723815D01*
X-63326761Y24914884D01*
X-63326761Y25105953D01*
X-63420263Y25105953D01*
X-63513765Y25105953D01*
X-63513765Y24914884D01*
X-63513765Y24723815D01*
X-63717030Y24723815D01*
X-63717030Y24914884D01*
X-63717030Y25012452D01*
X-63717030Y25114084D01*
X-63717030Y25301088D01*
X-63810532Y25301088D01*
X-63904034Y25301088D01*
X-63904034Y25105953D01*
X-63904034Y24910819D01*
X-64005666Y24910819D01*
X-64107299Y24910819D01*
X-64107299Y25105953D01*
X-64107299Y25301088D01*
X-64302433Y25301088D01*
X-64497568Y25301088D01*
X-64497568Y25309219D01*
X-63708899Y25309219D01*
X-63615397Y25309219D01*
X-63521895Y25309219D01*
X-63521895Y25496222D01*
X-63318630Y25496222D01*
X-63318630Y25305153D01*
X-63318630Y25114084D01*
X-63221063Y25114084D01*
X-63123496Y25114084D01*
X-63123496Y25016517D01*
X-63123496Y24918950D01*
X-63029994Y24918950D01*
X-62936492Y24918950D01*
X-62936492Y25016517D01*
X-62936492Y25114084D01*
X-62834860Y25114084D01*
X-62733227Y25114084D01*
X-62733227Y25016517D01*
X-62733227Y24918950D01*
X-62639725Y24918950D01*
X-62546223Y24918950D01*
X-62546223Y25207586D01*
X-62546223Y25496222D01*
X-62643790Y25496222D01*
X-62741358Y25496222D01*
X-62741358Y25593790D01*
X-62741358Y25691357D01*
X-62834860Y25691357D01*
X-62928361Y25691357D01*
X-62928361Y25496222D01*
X-62928361Y25301088D01*
X-63029994Y25301088D01*
X-63131627Y25301088D01*
X-63131627Y25398655D01*
X-63131627Y25496222D01*
X-63225128Y25496222D01*
X-63318630Y25496222D01*
X-63521895Y25496222D01*
X-63521895Y25500288D01*
X-63521895Y25691357D01*
X-63615397Y25691357D01*
X-63708899Y25691357D01*
X-63708899Y25500288D01*
X-63708899Y25309219D01*
X-64497568Y25309219D01*
X-64497568Y25402720D01*
X-64497568Y25500288D01*
X-64497568Y25504353D01*
X-64204866Y25504353D01*
X-63912164Y25504353D01*
X-63912164Y25597855D01*
X-63912164Y25691357D01*
X-64009732Y25691357D01*
X-64107299Y25691357D01*
X-64107299Y25699487D01*
X-63904034Y25699487D01*
X-63810532Y25699487D01*
X-63717030Y25699487D01*
X-62733227Y25699487D01*
X-62639725Y25699487D01*
X-62546223Y25699487D01*
X-62546223Y25792989D01*
X-62546223Y25886491D01*
X-62639725Y25886491D01*
X-62733227Y25886491D01*
X-62733227Y25792989D01*
X-62733227Y25699487D01*
X-63717030Y25699487D01*
X-63717030Y25792989D01*
X-63717030Y25886491D01*
X-63810532Y25886491D01*
X-63904034Y25886491D01*
X-63904034Y25792989D01*
X-63904034Y25699487D01*
X-64107299Y25699487D01*
X-64107299Y25792989D01*
X-64107299Y25894622D01*
X-64009732Y25894622D01*
X-63912164Y25894622D01*
X-63513765Y25894622D01*
X-63225128Y25894622D01*
X-62936492Y25894622D01*
X-62936492Y25988124D01*
X-62936492Y26081626D01*
X-63131627Y26081626D01*
X-63326761Y26081626D01*
X-63326761Y26179193D01*
X-63326761Y26276760D01*
X-63420263Y26276760D01*
X-63513765Y26276760D01*
X-63513765Y26085691D01*
X-63513765Y25894622D01*
X-63912164Y25894622D01*
X-63912164Y25992189D01*
X-63912164Y26085691D01*
X-63912164Y26089756D01*
X-63814597Y26089756D01*
X-63717030Y26089756D01*
X-63717030Y26183258D01*
X-63717030Y26276760D01*
X-64009732Y26276760D01*
X-64302433Y26276760D01*
X-64302433Y26284891D01*
X-64302433Y26378393D01*
X-64302433Y26480025D01*
X-64204866Y26480025D01*
X-64107299Y26480025D01*
X-64107299Y26675160D01*
X-64107299Y26870294D01*
X-64009732Y26870294D01*
X-63912164Y26870294D01*
X-63912164Y26963796D01*
X-63912164Y27057298D01*
X-64009732Y27057298D01*
X-64107299Y27057298D01*
X-64107299Y27154865D01*
X-64107299Y27252432D01*
X-64200801Y27252432D01*
X-64294303Y27252432D01*
X-64294303Y27154865D01*
X-64294303Y27057298D01*
X-64395935Y27057298D01*
X-64497568Y27057298D01*
X-64497568Y27154865D01*
X-64497568Y27252432D01*
X-64688637Y27252432D01*
X-64879706Y27252432D01*
X-64879706Y27158930D01*
X-64879706Y27065429D01*
X-64782139Y27065429D01*
X-64684571Y27065429D01*
X-64684571Y26967861D01*
X-64684571Y26870294D01*
X-64489437Y26870294D01*
X-64294303Y26870294D01*
X-64294303Y26768662D01*
X-64294303Y26667029D01*
X-64391870Y26667029D01*
X-64489437Y26667029D01*
X-64489437Y26374327D01*
X-64489437Y26081626D01*
X-64587004Y26081626D01*
X-64684571Y26081626D01*
X-64684571Y25988124D01*
X-64684571Y25894622D01*
X-64489437Y25894622D01*
X-64294303Y25894622D01*
X-64294303Y25792989D01*
X-64294303Y25691357D01*
X-64489437Y25691357D01*
X-64684571Y25691357D01*
X-64684571Y25593790D01*
X-64684571Y25496222D01*
X-64782139Y25496222D01*
X-64879706Y25496222D01*
X-64879706Y25402720D01*
X-64879706Y25309219D01*
X-64782139Y25309219D01*
X-64684571Y25309219D01*
X-64684571Y25110019D01*
X-64684571Y24910819D01*
X-64786204Y24910819D01*
X-64887837Y24910819D01*
X-64887837Y25008386D01*
X-64887837Y25105953D01*
X-64981338Y25105953D01*
X-65074840Y25105953D01*
X-65074840Y25008386D01*
X-65074840Y24910819D01*
X-65176473Y24910819D01*
X-65278105Y24910819D01*
X-65278105Y25008386D01*
X-65278105Y25105953D01*
X-65371607Y25105953D01*
X-65465109Y25105953D01*
X-65465109Y25008386D01*
X-65465109Y24910819D01*
X-65562676Y24910819D01*
X-65660244Y24910819D01*
X-65660244Y24813252D01*
X-65660244Y24715685D01*
X-65757811Y24715685D01*
X-65855378Y24715685D01*
X-65855378Y24524615D01*
X-65855378Y24333546D01*
X-65761876Y24333546D01*
X-65668374Y24333546D01*
X-65668374Y24431114D01*
X-65668374Y24528681D01*
X-65469175Y24528681D01*
X-65269975Y24528681D01*
X-65269975Y24235979D01*
X-65269975Y23943277D01*
X-65176473Y23943277D01*
X-65082971Y23943277D01*
X-65082971Y24040845D01*
X-65082971Y24138412D01*
X-64981338Y24138412D01*
X-64879706Y24138412D01*
X-64879706Y24040845D01*
X-64879706Y23943277D01*
X-64782139Y23943277D01*
X-64684571Y23943277D01*
X-64684571Y23841645D01*
X-64684571Y23740012D01*
X-64786204Y23740012D01*
X-64887837Y23740012D01*
X-64887837Y23837580D01*
X-64887837Y23935147D01*
X-64981338Y23935147D01*
X-65074840Y23935147D01*
X-65074840Y23837580D01*
X-65074840Y23740012D01*
X-65176473Y23740012D01*
X-65278105Y23740012D01*
X-65278105Y23837580D01*
X-65278105Y23935147D01*
X-65371607Y23935147D01*
X-65465109Y23935147D01*
X-65465109Y23837580D01*
X-65465109Y23740012D01*
X-65566742Y23740012D01*
X-65668374Y23740012D01*
X-65668374Y23935147D01*
X-65668374Y24130281D01*
X-65761876Y24130281D01*
X-65855378Y24130281D01*
X-65855378Y24032714D01*
X-65855378Y23935147D01*
X-65952945Y23935147D01*
X-66050513Y23935147D01*
X-66050513Y23837580D01*
X-66050513Y23740012D01*
X-66152145Y23740012D01*
X-66253778Y23740012D01*
X-66253778Y23841645D01*
X-66253778Y23943277D01*
X-66156210Y23943277D01*
X-66058643Y23943277D01*
X-66058643Y24036779D01*
X-66058643Y24130281D01*
X-66253778Y24130281D01*
X-66448912Y24130281D01*
X-66448912Y24138412D01*
X-66050513Y24138412D01*
X-65957011Y24138412D01*
X-65863509Y24138412D01*
X-65863509Y24231914D01*
X-65863509Y24325416D01*
X-65957011Y24325416D01*
X-66050513Y24325416D01*
X-66050513Y24231914D01*
X-66050513Y24138412D01*
X-66448912Y24138412D01*
X-66448912Y24231914D01*
X-66448912Y24719750D01*
X-66448912Y24723815D01*
X-66245647Y24723815D01*
X-66054578Y24723815D01*
X-65863509Y24723815D01*
X-65863509Y24817317D01*
X-65863509Y24910819D01*
X-65961076Y24910819D01*
X-66058643Y24910819D01*
X-66058643Y25012452D01*
X-66058643Y25114084D01*
X-65957011Y25114084D01*
X-65855378Y25114084D01*
X-65855378Y25016517D01*
X-65855378Y24918950D01*
X-65761876Y24918950D01*
X-65668374Y24918950D01*
X-65668374Y25016517D01*
X-65668374Y25114084D01*
X-65570807Y25114084D01*
X-65473240Y25114084D01*
X-65473240Y25305153D01*
X-65473240Y25496222D01*
X-65761876Y25496222D01*
X-66050513Y25496222D01*
X-66050513Y25398655D01*
X-66050513Y25301088D01*
X-66148080Y25301088D01*
X-66245647Y25301088D01*
X-66245647Y25012452D01*
X-66245647Y24723815D01*
X-66448912Y24723815D01*
X-66448912Y25012452D01*
X-66448912Y25309219D01*
X-66351345Y25309219D01*
X-66253778Y25309219D01*
X-66253778Y25402720D01*
X-66253778Y25496222D01*
X-66351345Y25496222D01*
X-66448912Y25496222D01*
X-66448912Y25691357D01*
X-66448912Y25699487D01*
X-66245647Y25699487D01*
X-66152145Y25699487D01*
X-66058643Y25699487D01*
X-66058643Y25792989D01*
X-66058643Y25886491D01*
X-66152145Y25886491D01*
X-66245647Y25886491D01*
X-66245647Y25792989D01*
X-66245647Y25699487D01*
X-66448912Y25699487D01*
X-66448912Y25792989D01*
X-66448912Y25886491D01*
X-66542414Y25886491D01*
X-66635916Y25886491D01*
X-66635916Y25788924D01*
X-66635916Y25691357D01*
X-66737548Y25691357D01*
X-66839181Y25691357D01*
X-66839181Y25788924D01*
X-66839181Y25886491D01*
X-66932683Y25886491D01*
X-67026185Y25886491D01*
X-67026185Y25695422D01*
X-67026185Y25504353D01*
X-66831050Y25504353D01*
X-66635916Y25504353D01*
X-66635916Y25402720D01*
X-66635916Y25301088D01*
X-67127817Y25301088D01*
X-67619719Y25301088D01*
X-67619719Y25398655D01*
X-67619719Y25496222D01*
X-67713221Y25496222D01*
X-67806723Y25496222D01*
X-67806723Y25398655D01*
X-67806723Y25301088D01*
X-67908355Y25301088D01*
X-68009988Y25301088D01*
X-68009988Y25402720D01*
X-68009988Y25504353D01*
X-67912420Y25504353D01*
X-67814853Y25504353D01*
X-67611588Y25504353D01*
X-67518086Y25504353D01*
X-67424584Y25504353D01*
X-67424584Y25695422D01*
X-67424584Y25886491D01*
X-67518086Y25886491D01*
X-67611588Y25886491D01*
X-67611588Y25695422D01*
X-67611588Y25504353D01*
X-67814853Y25504353D01*
X-67814853Y25597855D01*
X-67814853Y25691357D01*
X-67912420Y25691357D01*
X-68009988Y25691357D01*
X-68009988Y25695422D01*
X-68009988Y25894622D01*
X-67806723Y25894622D01*
X-67713221Y25894622D01*
X-67619719Y25894622D01*
X-67416454Y25894622D01*
X-67225385Y25894622D01*
X-67034315Y25894622D01*
X-66831050Y25894622D01*
X-66737548Y25894622D01*
X-66644047Y25894622D01*
X-66440781Y25894622D01*
X-66347280Y25894622D01*
X-66253778Y25894622D01*
X-66253778Y25988124D01*
X-66253778Y26081626D01*
X-65660244Y26081626D01*
X-65660244Y25988124D01*
X-65660244Y25894622D01*
X-65562676Y25894622D01*
X-65465109Y25894622D01*
X-65465109Y25797055D01*
X-65465109Y25699487D01*
X-65367542Y25699487D01*
X-65269975Y25699487D01*
X-65269975Y25601920D01*
X-65269975Y25504353D01*
X-65176473Y25504353D01*
X-65082971Y25504353D01*
X-65082971Y25601920D01*
X-65082971Y25699487D01*
X-64887837Y25699487D01*
X-64692702Y25699487D01*
X-64692702Y25792989D01*
X-64692702Y25886491D01*
X-64790269Y25886491D01*
X-64887837Y25886491D01*
X-64887837Y26081626D01*
X-64887837Y26276760D01*
X-65078906Y26276760D01*
X-65269975Y26276760D01*
X-65269975Y26183258D01*
X-65269975Y26089756D01*
X-65172408Y26089756D01*
X-65074840Y26089756D01*
X-65074840Y25988124D01*
X-65074840Y25886491D01*
X-65176473Y25886491D01*
X-65278105Y25886491D01*
X-65278105Y25984058D01*
X-65278105Y26081626D01*
X-65469175Y26081626D01*
X-65660244Y26081626D01*
X-66253778Y26081626D01*
X-66347280Y26081626D01*
X-66440781Y26081626D01*
X-66440781Y25988124D01*
X-66440781Y25894622D01*
X-66644047Y25894622D01*
X-66644047Y25988124D01*
X-66644047Y26081626D01*
X-66737548Y26081626D01*
X-66831050Y26081626D01*
X-66831050Y25988124D01*
X-66831050Y25894622D01*
X-67034315Y25894622D01*
X-67034315Y25988124D01*
X-67034315Y26081626D01*
X-67225385Y26081626D01*
X-67416454Y26081626D01*
X-67416454Y25988124D01*
X-67416454Y25894622D01*
X-67619719Y25894622D01*
X-67619719Y25988124D01*
X-67619719Y25992189D01*
X-67619719Y26089756D01*
X-67522152Y26089756D01*
X-67424584Y26089756D01*
X-67026185Y26089756D01*
X-66932683Y26089756D01*
X-66839181Y26089756D01*
X-66839181Y26183258D01*
X-66839181Y26276760D01*
X-66932683Y26276760D01*
X-67026185Y26276760D01*
X-67026185Y26183258D01*
X-67026185Y26089756D01*
X-67424584Y26089756D01*
X-67424584Y26183258D01*
X-67424584Y26187324D01*
X-67424584Y26284891D01*
X-67229450Y26284891D01*
X-67034315Y26284891D01*
X-67034315Y26480025D01*
X-67034315Y26675160D01*
X-66639981Y26675160D01*
X-66245647Y26675160D01*
X-66245647Y26573527D01*
X-66245647Y26471895D01*
X-66538349Y26471895D01*
X-66831050Y26471895D01*
X-66831050Y26378393D01*
X-66831050Y26284891D01*
X-66538349Y26284891D01*
X-66245647Y26284891D01*
X-66245647Y26187324D01*
X-66245647Y26089756D01*
X-66054578Y26089756D01*
X-65863509Y26089756D01*
X-65863509Y26280825D01*
X-65863509Y26284891D01*
X-65660244Y26284891D01*
X-65566742Y26284891D01*
X-65473240Y26284891D01*
X-65473240Y26378393D01*
X-65473240Y26471895D01*
X-65566742Y26471895D01*
X-65660244Y26471895D01*
X-65660244Y26378393D01*
X-65660244Y26284891D01*
X-65863509Y26284891D01*
X-65863509Y26378393D01*
X-65863509Y26471895D01*
X-65961076Y26471895D01*
X-66058643Y26471895D01*
X-66058643Y26480025D01*
X-65855378Y26480025D01*
X-65761876Y26480025D01*
X-65668374Y26480025D01*
X-65668374Y26577592D01*
X-65668374Y26675160D01*
X-65566742Y26675160D01*
X-65465109Y26675160D01*
X-65465109Y26577592D01*
X-65465109Y26480025D01*
X-65371607Y26480025D01*
X-65278105Y26480025D01*
X-65074840Y26480025D01*
X-64883771Y26480025D01*
X-64692702Y26480025D01*
X-64692702Y26671094D01*
X-64692702Y26862163D01*
X-64786204Y26862163D01*
X-64879706Y26862163D01*
X-64879706Y26764596D01*
X-64879706Y26667029D01*
X-64977273Y26667029D01*
X-65074840Y26667029D01*
X-65074840Y26573527D01*
X-65074840Y26480025D01*
X-65278105Y26480025D01*
X-65278105Y26573527D01*
X-65278105Y26577592D01*
X-65278105Y26675160D01*
X-65180538Y26675160D01*
X-65082971Y26675160D01*
X-65082971Y26768662D01*
X-65082971Y26862163D01*
X-65469175Y26862163D01*
X-65855378Y26862163D01*
X-65855378Y26671094D01*
X-65855378Y26480025D01*
X-66058643Y26480025D01*
X-66058643Y26671094D01*
X-66058643Y26870294D01*
X-65961076Y26870294D01*
X-65863509Y26870294D01*
X-65863509Y26963796D01*
X-65863509Y27057298D01*
X-66054578Y27057298D01*
X-66245647Y27057298D01*
X-66245647Y26959731D01*
X-66245647Y26862163D01*
X-66347280Y26862163D01*
X-66448912Y26862163D01*
X-66448912Y26959731D01*
X-66448912Y27057298D01*
X-66542414Y27057298D01*
X-66635916Y27057298D01*
X-66635916Y26959731D01*
X-66635916Y26862163D01*
X-66737548Y26862163D01*
X-66839181Y26862163D01*
X-66839181Y26963796D01*
X-66839181Y27065429D01*
X-66741614Y27065429D01*
X-66644047Y27065429D01*
X-65855378Y27065429D01*
X-65761876Y27065429D01*
X-65668374Y27065429D01*
X-65465109Y27065429D01*
X-65274040Y27065429D01*
X-65082971Y27065429D01*
X-65082971Y27260563D01*
X-64099168Y27260563D01*
X-64005666Y27260563D01*
X-63912164Y27260563D01*
X-63912164Y27354065D01*
X-63912164Y27447567D01*
X-63708899Y27447567D01*
X-63708899Y26866229D01*
X-63708899Y26284891D01*
X-63615397Y26284891D01*
X-63521895Y26284891D01*
X-63521895Y26382458D01*
X-63521895Y26480025D01*
X-63420263Y26480025D01*
X-63318630Y26480025D01*
X-63318630Y26382458D01*
X-63318630Y26284891D01*
X-63025929Y26284891D01*
X-62733227Y26284891D01*
X-62733227Y26187324D01*
X-62733227Y26089756D01*
X-62635660Y26089756D01*
X-62538093Y26089756D01*
X-62538093Y25992189D01*
X-62538093Y25894622D01*
X-62444591Y25894622D01*
X-62351089Y25894622D01*
X-62147824Y25894622D01*
X-62054322Y25894622D01*
X-61960820Y25894622D01*
X-61960820Y25988124D01*
X-61960820Y26081626D01*
X-61757555Y26081626D01*
X-61757555Y25988124D01*
X-61757555Y25894622D01*
X-61659988Y25894622D01*
X-61562420Y25894622D01*
X-61562420Y25797055D01*
X-61562420Y25699487D01*
X-61468918Y25699487D01*
X-61375417Y25699487D01*
X-61375417Y25797055D01*
X-61375417Y25894622D01*
X-61180282Y25894622D01*
X-60985148Y25894622D01*
X-60985148Y25988124D01*
X-60985148Y26081626D01*
X-61371351Y26081626D01*
X-61757555Y26081626D01*
X-61960820Y26081626D01*
X-62054322Y26081626D01*
X-62147824Y26081626D01*
X-62147824Y25988124D01*
X-62147824Y25894622D01*
X-62351089Y25894622D01*
X-62351089Y25988124D01*
X-62351089Y26089756D01*
X-61952689Y26089756D01*
X-61859187Y26089756D01*
X-61765685Y26089756D01*
X-61765685Y26183258D01*
X-61765685Y26276760D01*
X-61859187Y26276760D01*
X-61952689Y26276760D01*
X-61952689Y26183258D01*
X-61952689Y26089756D01*
X-62351089Y26089756D01*
X-62351089Y26183258D01*
X-62351089Y26284891D01*
X-62155954Y26284891D01*
X-61960820Y26284891D01*
X-61960820Y26378393D01*
X-61960820Y26471895D01*
X-62155954Y26471895D01*
X-62351089Y26471895D01*
X-62351089Y26667029D01*
X-62351089Y26675160D01*
X-62147824Y26675160D01*
X-62054322Y26675160D01*
X-61960820Y26675160D01*
X-61960820Y26768662D01*
X-61960820Y26862163D01*
X-62054322Y26862163D01*
X-62147824Y26862163D01*
X-62147824Y26768662D01*
X-62147824Y26675160D01*
X-62351089Y26675160D01*
X-62351089Y26768662D01*
X-62351089Y26862163D01*
X-62643790Y26862163D01*
X-62936492Y26862163D01*
X-62936492Y26959731D01*
X-62936492Y27057298D01*
X-63229194Y27057298D01*
X-63521895Y27057298D01*
X-63521895Y27065429D01*
X-62733227Y27065429D01*
X-62639725Y27065429D01*
X-62546223Y27065429D01*
X-62546223Y27158930D01*
X-62546223Y27252432D01*
X-62639725Y27252432D01*
X-62733227Y27252432D01*
X-62733227Y27158930D01*
X-62733227Y27065429D01*
X-63521895Y27065429D01*
X-63521895Y27158930D01*
X-63521895Y27260563D01*
X-63424328Y27260563D01*
X-63326761Y27260563D01*
X-63326761Y27358130D01*
X-63326761Y27455697D01*
X-63225128Y27455697D01*
X-63123496Y27455697D01*
X-63123496Y27358130D01*
X-63123496Y27260563D01*
X-63029994Y27260563D01*
X-62936492Y27260563D01*
X-62936492Y27451632D01*
X-62936492Y27642701D01*
X-63225128Y27642701D01*
X-63513765Y27642701D01*
X-63513765Y27545134D01*
X-63513765Y27447567D01*
X-63611332Y27447567D01*
X-63708899Y27447567D01*
X-63912164Y27447567D01*
X-64005666Y27447567D01*
X-64099168Y27447567D01*
X-64099168Y27354065D01*
X-64099168Y27260563D01*
X-65082971Y27260563D01*
X-65082971Y27354065D01*
X-65082971Y27455697D01*
X-64879706Y27455697D01*
X-64591070Y27455697D01*
X-64302433Y27455697D01*
X-64302433Y27549199D01*
X-64302433Y27642701D01*
X-64497568Y27642701D01*
X-64692702Y27642701D01*
X-64692702Y27740268D01*
X-64692702Y27837836D01*
X-64786204Y27837836D01*
X-64879706Y27837836D01*
X-64879706Y27646767D01*
X-64879706Y27455697D01*
X-65082971Y27455697D01*
X-65082971Y27642701D01*
X-65176473Y27642701D01*
X-65269975Y27642701D01*
X-65269975Y27447567D01*
X-65269975Y27252432D01*
X-65367542Y27252432D01*
X-65465109Y27252432D01*
X-65465109Y27158930D01*
X-65465109Y27065429D01*
X-65668374Y27065429D01*
X-65668374Y27158930D01*
X-65668374Y27549199D01*
X-65668374Y27646767D01*
X-65668374Y28032970D01*
X-65761876Y28032970D01*
X-65855378Y28032970D01*
X-65855378Y27549199D01*
X-65855378Y27065429D01*
X-66644047Y27065429D01*
X-66644047Y27158930D01*
X-66644047Y27252432D01*
X-66839181Y27252432D01*
X-67034315Y27252432D01*
X-67034315Y27354065D01*
X-67034315Y27455697D01*
X-66737548Y27455697D01*
X-66440781Y27455697D01*
X-66440781Y27358130D01*
X-66440781Y27260563D01*
X-66249712Y27260563D01*
X-66058643Y27260563D01*
X-66058643Y27354065D01*
X-66058643Y27447567D01*
X-66156210Y27447567D01*
X-66253778Y27447567D01*
X-66253778Y27545134D01*
X-66253778Y27549199D01*
X-66253778Y27642701D01*
X-66351345Y27642701D01*
X-66448912Y27642701D01*
X-66448912Y27650832D01*
X-66245647Y27650832D01*
X-66152145Y27650832D01*
X-66058643Y27650832D01*
X-66058643Y27841901D01*
X-66058643Y28032970D01*
X-66152145Y28032970D01*
X-66245647Y28032970D01*
X-66245647Y27841901D01*
X-66245647Y27650832D01*
X-66448912Y27650832D01*
X-66448912Y27841901D01*
X-66448912Y27935403D01*
X-66448912Y28041101D01*
X-66050513Y28041101D01*
X-65957011Y28041101D01*
X-65863509Y28041101D01*
X-65465109Y28041101D01*
X-65371607Y28041101D01*
X-65278105Y28041101D01*
X-65278105Y28138668D01*
X-65278105Y28236235D01*
X-65180538Y28236235D01*
X-65082971Y28236235D01*
X-65082971Y28329737D01*
X-65082971Y28423239D01*
X-65180538Y28423239D01*
X-65278105Y28423239D01*
X-65278105Y28618373D01*
X-64879706Y28618373D01*
X-64879706Y28329737D01*
X-64879706Y28041101D01*
X-64782139Y28041101D01*
X-64684571Y28041101D01*
X-64684571Y27943534D01*
X-64684571Y27845966D01*
X-64591070Y27845966D01*
X-64497568Y27845966D01*
X-64497568Y28041101D01*
X-64497568Y28228105D01*
X-64294303Y28228105D01*
X-64294303Y28134603D01*
X-64294303Y28041101D01*
X-64099168Y28041101D01*
X-63904034Y28041101D01*
X-63904034Y27939468D01*
X-63904034Y27837836D01*
X-64001601Y27837836D01*
X-64099168Y27837836D01*
X-64099168Y27744334D01*
X-64099168Y27650832D01*
X-63810532Y27650832D01*
X-63521895Y27650832D01*
X-63521895Y27841901D01*
X-63521895Y27845966D01*
X-63521895Y28032970D01*
X-63318630Y28032970D01*
X-63318630Y27939468D01*
X-63318630Y27845966D01*
X-63123496Y27845966D01*
X-62928361Y27845966D01*
X-62928361Y27748399D01*
X-62928361Y27650832D01*
X-62834860Y27650832D01*
X-62741358Y27650832D01*
X-62538093Y27650832D01*
X-62444591Y27650832D01*
X-62351089Y27650832D01*
X-62351089Y27744334D01*
X-62351089Y27837836D01*
X-62444591Y27837836D01*
X-62538093Y27837836D01*
X-62538093Y27744334D01*
X-62538093Y27650832D01*
X-62741358Y27650832D01*
X-62741358Y27744334D01*
X-62741358Y27748399D01*
X-62741358Y27845966D01*
X-62643790Y27845966D01*
X-62546223Y27845966D01*
X-62546223Y27939468D01*
X-62546223Y28032970D01*
X-62643790Y28032970D01*
X-62741358Y28032970D01*
X-62741358Y28228105D01*
X-62741358Y28236235D01*
X-62342958Y28236235D01*
X-62151889Y28236235D01*
X-61960820Y28236235D01*
X-61960820Y28329737D01*
X-61960820Y28423239D01*
X-62151889Y28423239D01*
X-62342958Y28423239D01*
X-62342958Y28329737D01*
X-62342958Y28236235D01*
X-62741358Y28236235D01*
X-62741358Y28329737D01*
X-62741358Y28423239D01*
X-62834860Y28423239D01*
X-62928361Y28423239D01*
X-62928361Y28325672D01*
X-62928361Y28228105D01*
X-63025929Y28228105D01*
X-63123496Y28228105D01*
X-63123496Y28130537D01*
X-63123496Y28032970D01*
X-63221063Y28032970D01*
X-63318630Y28032970D01*
X-63521895Y28032970D01*
X-63619463Y28032970D01*
X-63717030Y28032970D01*
X-63717030Y28134603D01*
X-63717030Y28236235D01*
X-63615397Y28236235D01*
X-63513765Y28236235D01*
X-63513765Y28138668D01*
X-63513765Y28041101D01*
X-63420263Y28041101D01*
X-63326761Y28041101D01*
X-63326761Y28138668D01*
X-63326761Y28236235D01*
X-63229194Y28236235D01*
X-63131627Y28236235D01*
X-63131627Y28329737D01*
X-63131627Y28423239D01*
X-63615397Y28423239D01*
X-64099168Y28423239D01*
X-64099168Y28325672D01*
X-64099168Y28228105D01*
X-64196735Y28228105D01*
X-64294303Y28228105D01*
X-64497568Y28228105D01*
X-64497568Y28236235D01*
X-64400000Y28236235D01*
X-64302433Y28236235D01*
X-64302433Y28329737D01*
X-64302433Y28423239D01*
X-64400000Y28423239D01*
X-64497568Y28423239D01*
X-64497568Y28520806D01*
X-64497568Y28618373D01*
X-64688637Y28618373D01*
X-64879706Y28618373D01*
X-65278105Y28618373D01*
X-65278105Y28813508D01*
X-65371607Y28813508D01*
X-65465109Y28813508D01*
X-65465109Y28427304D01*
X-65465109Y28041101D01*
X-65863509Y28041101D01*
X-65863509Y28134603D01*
X-65863509Y28228105D01*
X-65957011Y28228105D01*
X-66050513Y28228105D01*
X-66050513Y28134603D01*
X-66050513Y28041101D01*
X-66448912Y28041101D01*
X-66448912Y28134603D01*
X-66448912Y28228105D01*
X-66542414Y28228105D01*
X-66635916Y28228105D01*
X-66635916Y28130537D01*
X-66635916Y28032970D01*
X-66733483Y28032970D01*
X-66831050Y28032970D01*
X-66831050Y27939468D01*
X-66831050Y27845966D01*
X-66733483Y27845966D01*
X-66635916Y27845966D01*
X-66635916Y27744334D01*
X-66635916Y27642701D01*
X-66835116Y27642701D01*
X-67034315Y27642701D01*
X-67034315Y27740268D01*
X-67034315Y27837836D01*
X-67131883Y27837836D01*
X-67229450Y27837836D01*
X-67229450Y28037035D01*
X-67229450Y28236235D01*
X-67131883Y28236235D01*
X-67034315Y28236235D01*
X-66831050Y28236235D01*
X-66737548Y28236235D01*
X-66644047Y28236235D01*
X-66644047Y28329737D01*
X-66644047Y28423239D01*
X-66737548Y28423239D01*
X-66831050Y28423239D01*
X-66831050Y28329737D01*
X-66831050Y28236235D01*
X-67034315Y28236235D01*
X-67034315Y28329737D01*
X-67034315Y28333802D01*
X-67034315Y28431370D01*
X-66936748Y28431370D01*
X-66839181Y28431370D01*
X-66839181Y28528937D01*
X-66839181Y28618373D01*
X-66635916Y28618373D01*
X-66635916Y28524872D01*
X-66635916Y28431370D01*
X-66538349Y28431370D01*
X-66440781Y28431370D01*
X-66440781Y28333802D01*
X-66440781Y28236235D01*
X-66347280Y28236235D01*
X-66253778Y28236235D01*
X-66253778Y28427304D01*
X-66253778Y28618373D01*
X-66444847Y28618373D01*
X-66635916Y28618373D01*
X-66839181Y28618373D01*
X-66839181Y28626504D01*
X-66741614Y28626504D01*
X-66644047Y28626504D01*
X-66644047Y28720006D01*
X-66644047Y28813508D01*
X-66835116Y28813508D01*
X-67026185Y28813508D01*
X-67026185Y28715941D01*
X-67026185Y28618373D01*
X-67221319Y28618373D01*
X-67416454Y28618373D01*
X-67416454Y28520806D01*
X-67416454Y28423239D01*
X-67514021Y28423239D01*
X-67611588Y28423239D01*
X-67611588Y28329737D01*
X-67611588Y28236235D01*
X-67514021Y28236235D01*
X-67416454Y28236235D01*
X-67416454Y27943534D01*
X-67416454Y27650832D01*
X-67318886Y27650832D01*
X-67221319Y27650832D01*
X-67221319Y27549199D01*
X-67221319Y27447567D01*
X-67514021Y27447567D01*
X-67806723Y27447567D01*
X-67806723Y27354065D01*
X-67806723Y27260563D01*
X-67514021Y27260563D01*
X-67221319Y27260563D01*
X-67221319Y27158930D01*
X-67221319Y27057298D01*
X-67318886Y27057298D01*
X-67416454Y27057298D01*
X-67416454Y26963796D01*
X-67416454Y26870294D01*
X-67318886Y26870294D01*
X-67221319Y26870294D01*
X-67221319Y26768662D01*
X-67221319Y26667029D01*
X-67318886Y26667029D01*
X-67416454Y26667029D01*
X-67416454Y26569462D01*
X-67416454Y26471895D01*
X-67611588Y26471895D01*
X-67806723Y26471895D01*
X-67806723Y26183258D01*
X-67806723Y25894622D01*
X-68009988Y25894622D01*
X-68009988Y26085691D01*
X-68009988Y26183258D01*
X-68009988Y26480025D01*
X-67912420Y26480025D01*
X-67814853Y26480025D01*
X-67814853Y26573527D01*
X-67814853Y26667029D01*
X-67912420Y26667029D01*
X-68009988Y26667029D01*
X-68009988Y26675160D01*
X-67806723Y26675160D01*
X-67713221Y26675160D01*
X-67619719Y26675160D01*
X-67619719Y26768662D01*
X-67619719Y26862163D01*
X-67713221Y26862163D01*
X-67806723Y26862163D01*
X-67806723Y26768662D01*
X-67806723Y26675160D01*
X-68009988Y26675160D01*
X-68009988Y26768662D01*
X-68009988Y26870294D01*
X-67912420Y26870294D01*
X-67814853Y26870294D01*
X-67814853Y27061363D01*
X-67814853Y27252432D01*
X-67912420Y27252432D01*
X-68009988Y27252432D01*
X-68009988Y27646767D01*
X-68009988Y28041101D01*
X-67908355Y28041101D01*
X-67806723Y28041101D01*
X-67806723Y27943534D01*
X-67806723Y27845966D01*
X-67713221Y27845966D01*
X-67619719Y27845966D01*
X-67619719Y28037035D01*
X-67619719Y28228105D01*
X-67814853Y28228105D01*
X-68009988Y28228105D01*
X-68009988Y28329737D01*
X-68009988Y28431370D01*
X-67912420Y28431370D01*
X-67814853Y28431370D01*
X-67814853Y28524872D01*
X-67814853Y28618373D01*
X-67912420Y28618373D01*
X-68009988Y28618373D01*
X-68009988Y29012708D01*
X-68009988Y29407042D01*
X-67908355Y29407042D01*
X-67806723Y29407042D01*
X-67806723Y29114340D01*
X-67806723Y28821639D01*
X-67615653Y28821639D01*
X-67424584Y28821639D01*
X-66440781Y28821639D01*
X-66347280Y28821639D01*
X-66253778Y28821639D01*
X-66253778Y28915140D01*
X-66253778Y29008642D01*
X-66347280Y29008642D01*
X-66440781Y29008642D01*
X-66440781Y28915140D01*
X-66440781Y28821639D01*
X-67424584Y28821639D01*
X-67424584Y28915140D01*
X-67424584Y29008642D01*
X-67522152Y29008642D01*
X-67619719Y29008642D01*
X-67619719Y29016773D01*
X-67221319Y29016773D01*
X-66835116Y29016773D01*
X-66448912Y29016773D01*
X-66448912Y29110275D01*
X-66448912Y29203777D01*
X-66245647Y29203777D01*
X-66245647Y29110275D01*
X-66245647Y29016773D01*
X-66148080Y29016773D01*
X-66050513Y29016773D01*
X-66050513Y28724071D01*
X-66050513Y28431370D01*
X-65952945Y28431370D01*
X-65855378Y28431370D01*
X-65855378Y28333802D01*
X-65855378Y28236235D01*
X-65761876Y28236235D01*
X-65668374Y28236235D01*
X-65668374Y28427304D01*
X-65668374Y28618373D01*
X-65765942Y28618373D01*
X-65863509Y28618373D01*
X-65863509Y28911075D01*
X-65863509Y29203777D01*
X-66054578Y29203777D01*
X-66245647Y29203777D01*
X-66448912Y29203777D01*
X-66835116Y29203777D01*
X-67221319Y29203777D01*
X-67221319Y29110275D01*
X-67221319Y29016773D01*
X-67619719Y29016773D01*
X-67619719Y29110275D01*
X-67619719Y29211907D01*
X-67424584Y29211907D01*
X-67229450Y29211907D01*
X-66440781Y29211907D01*
X-66347280Y29211907D01*
X-66253778Y29211907D01*
X-66253778Y29305409D01*
X-66253778Y29398911D01*
X-65855378Y29398911D01*
X-65855378Y29305409D01*
X-65855378Y29211907D01*
X-65757811Y29211907D01*
X-65660244Y29211907D01*
X-65660244Y29016773D01*
X-65660244Y28821639D01*
X-65566742Y28821639D01*
X-65473240Y28821639D01*
X-65473240Y28919206D01*
X-65473240Y29016773D01*
X-65371607Y29016773D01*
X-65269975Y29016773D01*
X-65269975Y28919206D01*
X-65269975Y28821639D01*
X-64879706Y28821639D01*
X-64489437Y28821639D01*
X-64489437Y28724071D01*
X-64489437Y28626504D01*
X-64391870Y28626504D01*
X-64294303Y28626504D01*
X-64294303Y28528937D01*
X-64294303Y28431370D01*
X-64200801Y28431370D01*
X-64107299Y28431370D01*
X-64107299Y28528937D01*
X-64107299Y28626504D01*
X-63814597Y28626504D01*
X-63521895Y28626504D01*
X-63521895Y28720006D01*
X-63521895Y28813508D01*
X-63619463Y28813508D01*
X-63717030Y28813508D01*
X-63717030Y28821639D01*
X-63318630Y28821639D01*
X-63225128Y28821639D01*
X-63131627Y28821639D01*
X-63131627Y28919206D01*
X-63131627Y29016773D01*
X-63034059Y29016773D01*
X-62936492Y29016773D01*
X-62936492Y29203777D01*
X-62733227Y29203777D01*
X-62733227Y29110275D01*
X-62733227Y29016773D01*
X-62635660Y29016773D01*
X-62538093Y29016773D01*
X-62538093Y28724071D01*
X-62538093Y28431370D01*
X-62444591Y28431370D01*
X-62351089Y28431370D01*
X-62351089Y28724071D01*
X-62351089Y29016773D01*
X-62253522Y29016773D01*
X-62155954Y29016773D01*
X-62155954Y29110275D01*
X-62155954Y29203777D01*
X-62444591Y29203777D01*
X-62733227Y29203777D01*
X-62936492Y29203777D01*
X-62936492Y29207842D01*
X-62936492Y29398911D01*
X-63029994Y29398911D01*
X-63123496Y29398911D01*
X-63123496Y29301344D01*
X-63123496Y29203777D01*
X-63221063Y29203777D01*
X-63318630Y29203777D01*
X-63318630Y29012708D01*
X-63318630Y28821639D01*
X-63717030Y28821639D01*
X-63717030Y28911075D01*
X-63717030Y29008642D01*
X-63810532Y29008642D01*
X-63904034Y29008642D01*
X-63904034Y28911075D01*
X-63904034Y28813508D01*
X-64005666Y28813508D01*
X-64107299Y28813508D01*
X-64107299Y28915140D01*
X-64107299Y29012708D01*
X-64107299Y29016773D01*
X-64009732Y29016773D01*
X-63912164Y29016773D01*
X-63912164Y29110275D01*
X-63912164Y29203777D01*
X-64009732Y29203777D01*
X-64107299Y29203777D01*
X-64107299Y29211907D01*
X-63904034Y29211907D01*
X-63810532Y29211907D01*
X-63717030Y29211907D01*
X-63717030Y29305409D01*
X-63717030Y29398911D01*
X-63810532Y29398911D01*
X-63904034Y29398911D01*
X-63904034Y29305409D01*
X-63904034Y29211907D01*
X-64107299Y29211907D01*
X-64107299Y29301344D01*
X-64107299Y29305409D01*
X-64107299Y29398911D01*
X-64298368Y29398911D01*
X-64489437Y29398911D01*
X-64489437Y29301344D01*
X-64489437Y29203777D01*
X-64587004Y29203777D01*
X-64684571Y29203777D01*
X-64684571Y29106210D01*
X-64684571Y29008642D01*
X-64786204Y29008642D01*
X-64887837Y29008642D01*
X-64887837Y29301344D01*
X-64887837Y29594046D01*
X-65176473Y29594046D01*
X-65465109Y29594046D01*
X-65465109Y29496478D01*
X-65465109Y29398911D01*
X-65660244Y29398911D01*
X-65855378Y29398911D01*
X-66253778Y29398911D01*
X-66347280Y29398911D01*
X-66440781Y29398911D01*
X-66440781Y29305409D01*
X-66440781Y29211907D01*
X-67229450Y29211907D01*
X-67229450Y29305409D01*
X-67229450Y29309475D01*
X-67229450Y29407042D01*
X-66839181Y29407042D01*
X-66448912Y29407042D01*
X-66448912Y29504609D01*
X-66448912Y29602176D01*
X-66347280Y29602176D01*
X-66245647Y29602176D01*
X-66245647Y29504609D01*
X-66245647Y29407042D01*
X-66054578Y29407042D01*
X-65863509Y29407042D01*
X-65863509Y29504609D01*
X-65863509Y29602176D01*
X-65668374Y29602176D01*
X-65473240Y29602176D01*
X-64489437Y29602176D01*
X-64298368Y29602176D01*
X-64107299Y29602176D01*
X-64107299Y29699744D01*
X-64107299Y29797311D01*
X-64009732Y29797311D01*
X-63912164Y29797311D01*
X-63912164Y29988380D01*
X-63912164Y29992445D01*
X-63708899Y29992445D01*
X-63615397Y29992445D01*
X-63521895Y29992445D01*
X-63521895Y30085947D01*
X-63521895Y30179449D01*
X-63615397Y30179449D01*
X-63708899Y30179449D01*
X-63708899Y30085947D01*
X-63708899Y29992445D01*
X-63912164Y29992445D01*
X-63912164Y30085947D01*
X-63912164Y30179449D01*
X-64005666Y30179449D01*
X-64099168Y30179449D01*
X-64099168Y30081882D01*
X-64099168Y29984315D01*
X-64196735Y29984315D01*
X-64294303Y29984315D01*
X-64294303Y29886747D01*
X-64294303Y29789180D01*
X-64391870Y29789180D01*
X-64489437Y29789180D01*
X-64489437Y29695678D01*
X-64489437Y29602176D01*
X-65473240Y29602176D01*
X-65473240Y29695678D01*
X-65473240Y29789180D01*
X-65668374Y29789180D01*
X-65863509Y29789180D01*
X-65863509Y29797311D01*
X-65074840Y29797311D01*
X-64883771Y29797311D01*
X-64692702Y29797311D01*
X-64692702Y29890813D01*
X-64692702Y29984315D01*
X-64883771Y29984315D01*
X-65074840Y29984315D01*
X-65074840Y29890813D01*
X-65074840Y29797311D01*
X-65863509Y29797311D01*
X-65863509Y29886747D01*
X-65863509Y29890813D01*
X-65863509Y29984315D01*
X-65957011Y29984315D01*
X-66050513Y29984315D01*
X-66050513Y29886747D01*
X-66050513Y29789180D01*
X-66249712Y29789180D01*
X-66448912Y29789180D01*
X-66448912Y29992445D01*
X-65465109Y29992445D01*
X-65371607Y29992445D01*
X-65278105Y29992445D01*
X-65278105Y30085947D01*
X-65278105Y30179449D01*
X-65371607Y30179449D01*
X-65465109Y30179449D01*
X-65465109Y30085947D01*
X-65465109Y29992445D01*
X-66448912Y29992445D01*
X-66448912Y30085947D01*
X-66448912Y30183514D01*
X-66448912Y30187580D01*
X-65660244Y30187580D01*
X-65566742Y30187580D01*
X-65473240Y30187580D01*
X-65473240Y30281082D01*
X-65473240Y30374583D01*
X-65566742Y30374583D01*
X-65660244Y30374583D01*
X-65660244Y30281082D01*
X-65660244Y30187580D01*
X-66448912Y30187580D01*
X-66448912Y30281082D01*
X-66448912Y30577848D01*
X-66347280Y30577848D01*
X-66245647Y30577848D01*
X-66245647Y30480281D01*
X-66245647Y30382714D01*
X-66152145Y30382714D01*
X-66058643Y30382714D01*
X-66058643Y30480281D01*
X-66058643Y30577848D01*
X-65957011Y30577848D01*
X-65855378Y30577848D01*
X-65855378Y30480281D01*
X-65855378Y30382714D01*
X-65761876Y30382714D01*
X-65668374Y30382714D01*
X-65465109Y30382714D01*
X-65371607Y30382714D01*
X-65278105Y30382714D01*
X-65278105Y30476216D01*
X-65278105Y30569718D01*
X-65371607Y30569718D01*
X-65465109Y30569718D01*
X-65465109Y30476216D01*
X-65465109Y30382714D01*
X-65668374Y30382714D01*
X-65668374Y30476216D01*
X-65668374Y30480281D01*
X-65668374Y30577848D01*
X-65570807Y30577848D01*
X-65473240Y30577848D01*
X-65473240Y30772983D01*
X-65473240Y30968117D01*
X-64981338Y30968117D01*
X-64489437Y30968117D01*
X-64489437Y30866485D01*
G37*
G36*
X-60781883Y30671350D02*
G01*
X-60781883Y30374583D01*
X-60883515Y30374583D01*
X-60985148Y30374583D01*
X-60985148Y30569718D01*
X-60985148Y30764852D01*
X-61082715Y30764852D01*
X-61180282Y30764852D01*
X-61180282Y30866485D01*
X-61180282Y30968117D01*
X-60981082Y30968117D01*
X-60781883Y30968117D01*
X-60781883Y30671350D01*
G37*
G36*
X-66644047Y30277016D02*
G01*
X-66644047Y29594046D01*
X-67327017Y29594046D01*
X-68009988Y29594046D01*
X-68009988Y29789180D01*
X-67814853Y29789180D01*
X-67327017Y29789180D01*
X-66839181Y29789180D01*
X-66839181Y30277016D01*
X-66839181Y30764852D01*
X-67327017Y30764852D01*
X-67814853Y30764852D01*
X-67814853Y30277016D01*
X-67814853Y29789180D01*
X-68009988Y29789180D01*
X-68009988Y30277016D01*
X-68009988Y30959987D01*
X-67327017Y30959987D01*
X-66644047Y30959987D01*
X-66644047Y30277016D01*
G37*
G36*
X-60781883Y29500544D02*
G01*
X-60781883Y29398911D01*
X-60883515Y29398911D01*
X-60985148Y29398911D01*
X-60985148Y29500544D01*
X-60985148Y29602176D01*
X-60883515Y29602176D01*
X-60781883Y29602176D01*
X-60781883Y29500544D01*
G37*
G36*
X-61172152Y28528937D02*
G01*
X-61172152Y28431370D01*
X-61078650Y28431370D01*
X-60985148Y28431370D01*
X-60985148Y28528937D01*
X-60985148Y28626504D01*
X-60883515Y28626504D01*
X-60781883Y28626504D01*
X-60781883Y28524872D01*
X-60781883Y28423239D01*
X-60879450Y28423239D01*
X-60977017Y28423239D01*
X-60977017Y28329737D01*
X-60977017Y28236235D01*
X-60879450Y28236235D01*
X-60781883Y28236235D01*
X-60781883Y28134603D01*
X-60781883Y28032970D01*
X-60883515Y28032970D01*
X-60985148Y28032970D01*
X-60985148Y28130537D01*
X-60985148Y28228105D01*
X-61082715Y28228105D01*
X-61180282Y28228105D01*
X-61180282Y28325672D01*
X-61180282Y28423239D01*
X-61277849Y28423239D01*
X-61375417Y28423239D01*
X-61375417Y28524872D01*
X-61375417Y28626504D01*
X-61273784Y28626504D01*
X-61172152Y28626504D01*
X-61172152Y28528937D01*
G37*
G36*
X-66644047Y24422983D02*
G01*
X-66644047Y23740012D01*
X-67327017Y23740012D01*
X-68009988Y23740012D01*
X-68009988Y23935147D01*
X-67814853Y23935147D01*
X-67327017Y23935147D01*
X-66839181Y23935147D01*
X-66839181Y24422983D01*
X-66839181Y24910819D01*
X-67327017Y24910819D01*
X-67814853Y24910819D01*
X-67814853Y24422983D01*
X-67814853Y23935147D01*
X-68009988Y23935147D01*
X-68009988Y24422983D01*
X-68009988Y25105953D01*
X-67327017Y25105953D01*
X-66644047Y25105953D01*
X-66644047Y24422983D01*
G37*
G36*
X-60790013Y24422983D02*
G01*
X-60790013Y23740012D01*
X-61472984Y23740012D01*
X-62155954Y23740012D01*
X-62155954Y23935147D01*
X-61960820Y23935147D01*
X-61472984Y23935147D01*
X-60985148Y23935147D01*
X-60985148Y24422983D01*
X-60985148Y24910819D01*
X-61472984Y24910819D01*
X-61960820Y24910819D01*
X-61960820Y24422983D01*
X-61960820Y23935147D01*
X-62155954Y23935147D01*
X-62155954Y24422983D01*
X-62155954Y25105953D01*
X-61472984Y25105953D01*
X-60790013Y25105953D01*
X-60790013Y24422983D01*
G37*
G36*
X-64684571Y24626248D02*
G01*
X-64684571Y24528681D01*
X-64587004Y24528681D01*
X-64489437Y24528681D01*
X-64489437Y24427048D01*
X-64489437Y24325416D01*
X-64591070Y24325416D01*
X-64692702Y24325416D01*
X-64692702Y24422983D01*
X-64692702Y24520550D01*
X-64786204Y24520550D01*
X-64879706Y24520550D01*
X-64879706Y24422983D01*
X-64879706Y24325416D01*
X-64981338Y24325416D01*
X-65082971Y24325416D01*
X-65082971Y24427048D01*
X-65082971Y24528681D01*
X-64985404Y24528681D01*
X-64887837Y24528681D01*
X-64887837Y24626248D01*
X-64887837Y24723815D01*
X-64786204Y24723815D01*
X-64684571Y24723815D01*
X-64684571Y24626248D01*
G37*
G36*
X-61952689Y29695678D02*
G01*
X-61952689Y29594046D01*
X-62054322Y29594046D01*
X-62155954Y29594046D01*
X-62155954Y29695678D01*
X-62155954Y29797311D01*
X-62054322Y29797311D01*
X-61952689Y29797311D01*
X-61952689Y29695678D01*
G37*
G36*
X-65074840Y29305409D02*
G01*
X-65074840Y29203777D01*
X-65176473Y29203777D01*
X-65278105Y29203777D01*
X-65278105Y29305409D01*
X-65278105Y29407042D01*
X-65176473Y29407042D01*
X-65074840Y29407042D01*
X-65074840Y29305409D01*
G37*
G36*
X-63123496Y26772727D02*
G01*
X-63123496Y26675160D01*
X-63025929Y26675160D01*
X-62928361Y26675160D01*
X-62928361Y26573527D01*
X-62928361Y26471895D01*
X-63029994Y26471895D01*
X-63131627Y26471895D01*
X-63131627Y26569462D01*
X-63131627Y26667029D01*
X-63229194Y26667029D01*
X-63326761Y26667029D01*
X-63326761Y26768662D01*
X-63326761Y26870294D01*
X-63225128Y26870294D01*
X-63123496Y26870294D01*
X-63123496Y26772727D01*
G37*
G36*
X-62538093Y26573527D02*
G01*
X-62538093Y26471895D01*
X-62639725Y26471895D01*
X-62741358Y26471895D01*
X-62741358Y26573527D01*
X-62741358Y26675160D01*
X-62639725Y26675160D01*
X-62538093Y26675160D01*
X-62538093Y26573527D01*
G37*
G36*
X-67034315Y30277016D02*
G01*
X-67034315Y29984315D01*
X-67327017Y29984315D01*
X-67619719Y29984315D01*
X-67619719Y30277016D01*
X-67619719Y30569718D01*
X-67327017Y30569718D01*
X-67034315Y30569718D01*
X-67034315Y30277016D01*
G37*
G36*
X-67034315Y24422983D02*
G01*
X-67034315Y24130281D01*
X-67327017Y24130281D01*
X-67619719Y24130281D01*
X-67619719Y24422983D01*
X-67619719Y24715685D01*
X-67327017Y24715685D01*
X-67034315Y24715685D01*
X-67034315Y24422983D01*
G37*
G36*
X-61180282Y24422983D02*
G01*
X-61180282Y24130281D01*
X-61472984Y24130281D01*
X-61765685Y24130281D01*
X-61765685Y24422983D01*
X-61765685Y24715685D01*
X-61472984Y24715685D01*
X-61180282Y24715685D01*
X-61180282Y24422983D01*
G37*
%TD*%
%LPC*%
D14*
%TO.C,J6*%
X-35530000Y8150000D03*
D15*
X-32990000Y8150000D03*
X-30450000Y8150000D03*
%TD*%
D16*
%TO.C,J2*%
X-4257700Y28905200D03*
D15*
X-1717700Y28905200D03*
X-4257700Y26365200D03*
X-1717700Y26365200D03*
X-4257700Y23825200D03*
X-1717700Y23825200D03*
X-4257700Y21285200D03*
X-1717700Y21285200D03*
X-4257700Y18745200D03*
X-1717700Y18745200D03*
X-4257700Y16205200D03*
X-1717700Y16205200D03*
X-4257700Y13665200D03*
X-1717700Y13665200D03*
X-4257700Y11125200D03*
X-1717700Y11125200D03*
X-4257700Y8585200D03*
X-1717700Y8585200D03*
X-4257700Y6045200D03*
X-1717700Y6045200D03*
%TD*%
D17*
%TO.C,H2*%
X-59738800Y31500000D03*
X-59255526Y32666726D03*
X-59255526Y30333274D03*
X-58088800Y33150000D03*
D18*
X-58088800Y31500000D03*
D17*
X-58088800Y29850000D03*
X-56922074Y32666726D03*
X-56922074Y30333274D03*
X-56438800Y31500000D03*
%TD*%
D19*
%TO.C,J4*%
X-32200000Y3403600D03*
D15*
X-34740000Y3403600D03*
%TD*%
D16*
%TO.C,J1*%
X-15525800Y28905200D03*
D15*
X-12985800Y28905200D03*
X-15525800Y26365200D03*
X-12985800Y26365200D03*
X-15525800Y23825200D03*
X-12985800Y23825200D03*
X-15525800Y21285200D03*
X-12985800Y21285200D03*
X-15525800Y18745200D03*
X-12985800Y18745200D03*
%TD*%
D17*
%TO.C,H1*%
X-25738800Y31500000D03*
X-25255526Y32666726D03*
X-25255526Y30333274D03*
X-24088800Y33150000D03*
D18*
X-24088800Y31500000D03*
D17*
X-24088800Y29850000D03*
X-22922074Y32666726D03*
X-22922074Y30333274D03*
X-22438800Y31500000D03*
%TD*%
%TO.C,H4*%
X-59738800Y3500000D03*
X-59255526Y4666726D03*
X-59255526Y2333274D03*
X-58088800Y5150000D03*
D18*
X-58088800Y3500000D03*
D17*
X-58088800Y1850000D03*
X-56922074Y4666726D03*
X-56922074Y2333274D03*
X-56438800Y3500000D03*
%TD*%
%TO.C,H3*%
X-25738800Y3411200D03*
X-25255526Y4577926D03*
X-25255526Y2244474D03*
X-24088800Y5061200D03*
D18*
X-24088800Y3411200D03*
D17*
X-24088800Y1761200D03*
X-22922074Y4577926D03*
X-22922074Y2244474D03*
X-22438800Y3411200D03*
%TD*%
%LPD*%
M02*
